Ponomar.ufo
<glyph name="uni0021" format="2">
  <advance width="222"/>
  <unicode hex="0021"/>
  <outline>
    <contour>
      <point x="117" y="178" type="curve" smooth="yes"/>
      <point x="117" y="176"/>
      <point x="115" y="175"/>
      <point x="111" y="175" type="curve" smooth="yes"/>
      <point x="107" y="175"/>
      <point x="105" y="176"/>
      <point x="105" y="178" type="curve" smooth="yes"/>
      <point x="91" y="324"/>
      <point x="75" y="477"/>
      <point x="57" y="618" type="curve" smooth="yes"/>
      <point x="51" y="668"/>
      <point x="40" y="707"/>
      <point x="40" y="737" type="curve" smooth="yes"/>
      <point x="40" y="744"/>
      <point x="46" y="752"/>
      <point x="52" y="752" type="curve" smooth="yes"/>
      <point x="53" y="752"/>
      <point x="53" y="752"/>
      <point x="54" y="752" type="curve" smooth="yes"/>
      <point x="84" y="750"/>
      <point x="127" y="746"/>
      <point x="156" y="744" type="curve"/>
      <point x="161" y="742"/>
      <point x="168" y="735"/>
      <point x="166" y="728" type="curve"/>
      <point x="164" y="713"/>
      <point x="162" y="691"/>
      <point x="159" y="664" type="curve" smooth="yes"/>
      <point x="150" y="572" type="line" smooth="yes"/>
      <point x="144" y="505"/>
      <point x="137" y="424"/>
      <point x="131" y="355" type="curve" smooth="yes"/>
      <point x="126" y="296"/>
      <point x="119" y="230"/>
    </contour>
    <contour>
      <point x="40" y="63" type="curve" smooth="yes"/>
      <point x="40" y="101"/>
      <point x="73" y="131"/>
      <point x="112" y="131" type="curve" smooth="yes"/>
      <point x="150" y="131"/>
      <point x="180" y="98"/>
      <point x="180" y="59" type="curve" smooth="yes"/>
      <point x="180" y="21"/>
      <point x="147" y="-8"/>
      <point x="109" y="-8" type="curve" smooth="yes"/>
      <point x="70" y="-8"/>
      <point x="40" y="24"/>
    </contour>
  </outline>
</glyph>
<glyph name="uni0022" format="2">
  <advance width="404"/>
  <unicode hex="0022"/>
  <outline>
    <contour>
      <point x="132" y="733" type="curve" smooth="yes"/>
      <point x="172" y="733"/>
      <point x="188" y="682"/>
      <point x="188" y="641" type="curve" smooth="yes"/>
      <point x="188" y="551"/>
      <point x="129" y="487"/>
      <point x="72" y="453" type="curve" smooth="yes"/>
      <point x="70" y="452"/>
      <point x="69" y="452"/>
      <point x="67" y="452" type="curve" smooth="yes"/>
      <point x="63" y="452"/>
      <point x="64" y="457"/>
      <point x="68" y="463" type="curve" smooth="yes"/>
      <point x="85" y="485"/>
      <point x="100" y="508"/>
      <point x="113" y="531" type="curve" smooth="yes"/>
      <point x="126" y="554"/>
      <point x="132" y="577"/>
      <point x="132" y="598" type="curve" smooth="yes"/>
      <point x="132" y="622"/>
      <point x="128" y="648"/>
      <point x="98" y="655" type="curve" smooth="yes"/>
      <point x="94" y="656"/>
      <point x="93" y="656"/>
      <point x="88" y="656" type="curve" smooth="yes"/>
      <point x="59" y="656"/>
      <point x="35" y="636"/>
      <point x="22" y="619" type="curve" smooth="yes"/>
      <point x="17" y="613"/>
      <point x="8" y="616"/>
      <point x="14" y="625" type="curve"/>
      <point x="32" y="669"/>
      <point x="68" y="714"/>
      <point x="113" y="730" type="curve" smooth="yes"/>
      <point x="119" y="732"/>
      <point x="126" y="733"/>
    </contour>
    <contour>
      <point x="338" y="733" type="curve" smooth="yes"/>
      <point x="378" y="733"/>
      <point x="394" y="682"/>
      <point x="394" y="641" type="curve" smooth="yes"/>
      <point x="394" y="551"/>
      <point x="335" y="487"/>
      <point x="278" y="453" type="curve" smooth="yes"/>
      <point x="276" y="452"/>
      <point x="275" y="452"/>
      <point x="273" y="452" type="curve" smooth="yes"/>
      <point x="269" y="452"/>
      <point x="270" y="457"/>
      <point x="274" y="463" type="curve" smooth="yes"/>
      <point x="291" y="485"/>
      <point x="306" y="508"/>
      <point x="319" y="531" type="curve" smooth="yes"/>
      <point x="332" y="554"/>
      <point x="338" y="577"/>
      <point x="338" y="598" type="curve" smooth="yes"/>
      <point x="338" y="622"/>
      <point x="334" y="648"/>
      <point x="304" y="655" type="curve" smooth="yes"/>
      <point x="300" y="656"/>
      <point x="299" y="656"/>
      <point x="294" y="656" type="curve" smooth="yes"/>
      <point x="265" y="656"/>
      <point x="241" y="636"/>
      <point x="228" y="619" type="curve" smooth="yes"/>
      <point x="223" y="613"/>
      <point x="214" y="616"/>
      <point x="220" y="625" type="curve"/>
      <point x="238" y="669"/>
      <point x="274" y="714"/>
      <point x="319" y="730" type="curve" smooth="yes"/>
      <point x="325" y="732"/>
      <point x="332" y="733"/>
    </contour>
  </outline>
</glyph>
<glyph name="uni0024" format="2">
  <advance width="500"/>
  <unicode hex="0024"/>
  <outline>
    <contour>
      <point x="230" y="0" type="line"/>
      <point x="140" y="0"/>
      <point x="104" y="14"/>
      <point x="44" y="51" type="curve"/>
      <point x="44" y="181" type="line"/>
      <point x="59" y="181" type="line"/>
      <point x="80" y="87"/>
      <point x="124" y="28"/>
      <point x="230" y="28" type="curve"/>
      <point x="230" y="310" type="line"/>
      <point x="164" y="347"/>
      <point x="118" y="380"/>
      <point x="92" y="408" type="curve" smooth="yes"/>
      <point x="65" y="438"/>
      <point x="52" y="472"/>
      <point x="52" y="512" type="curve" smooth="yes"/>
      <point x="52" y="612"/>
      <point x="131" y="653"/>
      <point x="230" y="664" type="curve"/>
      <point x="230" y="727" type="line"/>
      <point x="264" y="727" type="line"/>
      <point x="264" y="664" type="line"/>
      <point x="339" y="655"/>
      <point x="393" y="638"/>
      <point x="425" y="611" type="curve"/>
      <point x="425" y="500" type="line"/>
      <point x="410" y="500" type="line"/>
      <point x="393" y="583"/>
      <point x="351" y="626"/>
      <point x="264" y="637" type="curve"/>
      <point x="264" y="391" type="line"/>
      <point x="297" y="371"/>
      <point x="341" y="347"/>
      <point x="372" y="326" type="curve" smooth="yes"/>
      <point x="402" y="307"/>
      <point x="402" y="303"/>
      <point x="424" y="278" type="curve" smooth="yes"/>
      <point x="442" y="257"/>
      <point x="446" y="243"/>
      <point x="452" y="213" type="curve" smooth="yes"/>
      <point x="456" y="200"/>
      <point x="457" y="185"/>
      <point x="457" y="170" type="curve" smooth="yes"/>
      <point x="457" y="120"/>
      <point x="443" y="82"/>
      <point x="410" y="56" type="curve" smooth="yes"/>
      <point x="378" y="29"/>
      <point x="328" y="11"/>
      <point x="264" y="0" type="curve"/>
      <point x="264" y="-87" type="line"/>
      <point x="230" y="-87" type="line"/>
    </contour>
    <contour>
      <point x="230" y="407" type="curve"/>
      <point x="230" y="637" type="line"/>
      <point x="161" y="623"/>
      <point x="126" y="589"/>
      <point x="126" y="534" type="curve" smooth="yes"/>
      <point x="126" y="511"/>
      <point x="133" y="491"/>
      <point x="146" y="474" type="curve" smooth="yes"/>
      <point x="160" y="457"/>
      <point x="189" y="435"/>
    </contour>
    <contour>
      <point x="264" y="293" type="curve"/>
      <point x="264" y="28" type="line"/>
      <point x="340" y="43"/>
      <point x="378" y="82"/>
      <point x="378" y="146" type="curve" smooth="yes"/>
      <point x="378" y="177"/>
      <point x="371" y="202"/>
      <point x="356" y="220" type="curve" smooth="yes"/>
      <point x="341" y="240"/>
      <point x="311" y="264"/>
    </contour>
  </outline>
</glyph>
<glyph name="uni0025" format="2">
  <advance width="815"/>
  <unicode hex="0025"/>
  <outline>
    <contour>
      <point x="569" y="0" type="curve" smooth="yes"/>
      <point x="495" y="0"/>
      <point x="449" y="54"/>
      <point x="449" y="129" type="curve" smooth="yes"/>
      <point x="449" y="192"/>
      <point x="472" y="248"/>
      <point x="516" y="297" type="curve" smooth="yes"/>
      <point x="562" y="346"/>
      <point x="612" y="371"/>
      <point x="669" y="371" type="curve" smooth="yes"/>
      <point x="735" y="371"/>
      <point x="772" y="331"/>
      <point x="772" y="264" type="curve" smooth="yes"/>
      <point x="772" y="177"/>
      <point x="732" y="98"/>
      <point x="686" y="51" type="curve" smooth="yes"/>
      <point x="652" y="17"/>
      <point x="613" y="0"/>
    </contour>
    <contour>
      <point x="525" y="94" type="curve" smooth="yes"/>
      <point x="525" y="57"/>
      <point x="550" y="30"/>
      <point x="586" y="30" type="curve" smooth="yes"/>
      <point x="654" y="30"/>
      <point x="704" y="104"/>
      <point x="726" y="158" type="curve" smooth="yes"/>
      <point x="739" y="194"/>
      <point x="746" y="227"/>
      <point x="746" y="259" type="curve" smooth="yes"/>
      <point x="746" y="300"/>
      <point x="716" y="339"/>
      <point x="676" y="339" type="curve" smooth="yes"/>
      <point x="607" y="339"/>
      <point x="557" y="238"/>
      <point x="540" y="180" type="curve" smooth="yes"/>
      <point x="530" y="144"/>
      <point x="525" y="115"/>
    </contour>
    <contour>
      <point x="179" y="289" type="curve" smooth="yes"/>
      <point x="113" y="289"/>
      <point x="61" y="349"/>
      <point x="61" y="416" type="curve" smooth="yes"/>
      <point x="61" y="479"/>
      <point x="84" y="536"/>
      <point x="128" y="586" type="curve" smooth="yes"/>
      <point x="174" y="637"/>
      <point x="225" y="662"/>
      <point x="282" y="662" type="curve" smooth="yes"/>
      <point x="303" y="662"/>
      <point x="319" y="658"/>
      <point x="332" y="648" type="curve" smooth="yes"/>
      <point x="361" y="628"/>
      <point x="387" y="608"/>
      <point x="439" y="608" type="curve" smooth="yes"/>
      <point x="470" y="608"/>
      <point x="498" y="613"/>
      <point x="520" y="623" type="curve" smooth="yes"/>
      <point x="544" y="633"/>
      <point x="568" y="651"/>
      <point x="595" y="676" type="curve"/>
      <point x="634" y="676" type="line"/>
      <point x="249" y="-13" type="line"/>
      <point x="201" y="-13" type="line"/>
      <point x="552" y="613" type="line"/>
      <point x="517" y="593"/>
      <point x="481" y="583"/>
      <point x="442" y="583" type="curve" smooth="yes"/>
      <point x="416" y="583"/>
      <point x="394" y="586"/>
      <point x="377" y="593" type="curve"/>
      <point x="382" y="576"/>
      <point x="384" y="562"/>
      <point x="384" y="549" type="curve" smooth="yes"/>
      <point x="384" y="487"/>
      <point x="364" y="428"/>
      <point x="324" y="372" type="curve" smooth="yes"/>
      <point x="285" y="317"/>
      <point x="236" y="289"/>
    </contour>
    <contour>
      <point x="137" y="384" type="curve" smooth="yes"/>
      <point x="137" y="349"/>
      <point x="161" y="323"/>
      <point x="196" y="323" type="curve" smooth="yes"/>
      <point x="237" y="323"/>
      <point x="274" y="347"/>
      <point x="308" y="394" type="curve" smooth="yes"/>
      <point x="342" y="442"/>
      <point x="359" y="494"/>
      <point x="359" y="551" type="curve" smooth="yes"/>
      <point x="359" y="564"/>
      <point x="356" y="580"/>
      <point x="350" y="600" type="curve"/>
      <point x="331" y="605"/>
      <point x="309" y="613"/>
      <point x="298" y="622" type="curve" smooth="yes"/>
      <point x="294" y="626"/>
      <point x="289" y="632"/>
      <point x="282" y="632" type="curve" smooth="yes"/>
      <point x="250" y="632"/>
      <point x="218" y="603"/>
      <point x="186" y="544" type="curve" smooth="yes"/>
      <point x="153" y="486"/>
      <point x="137" y="433"/>
    </contour>
  </outline>
</glyph>
<glyph name="uni0026" format="2">
  <advance width="774"/>
  <unicode hex="0026"/>
  <outline>
    <contour>
      <point x="116" y="-24" type="curve" smooth="yes"/>
      <point x="68" y="-24"/>
      <point x="21" y="4"/>
      <point x="21" y="49" type="curve" smooth="yes"/>
      <point x="21" y="64"/>
      <point x="22" y="81"/>
      <point x="28" y="98" type="curve"/>
      <point x="61" y="224"/>
      <point x="133" y="299"/>
      <point x="238" y="352" type="curve"/>
      <point x="238" y="368" type="line"/>
      <point x="235" y="371"/>
      <point x="232" y="372"/>
      <point x="229" y="375" type="curve" smooth="yes"/>
      <point x="216" y="385"/>
      <point x="204" y="394"/>
      <point x="194" y="402" type="curve" smooth="yes"/>
      <point x="165" y="425"/>
      <point x="136" y="441"/>
      <point x="109" y="463" type="curve" smooth="yes"/>
      <point x="106" y="466"/>
      <point x="111" y="460"/>
      <point x="108" y="463" type="curve"/>
      <point x="110" y="480" type="line"/>
      <point x="124" y="501"/>
      <point x="137" y="518"/>
      <point x="147" y="531" type="curve" smooth="yes"/>
      <point x="188" y="588"/>
      <point x="223" y="621"/>
      <point x="278" y="676" type="curve" smooth="yes"/>
      <point x="315" y="713" type="line"/>
      <point x="316" y="713" type="line"/>
      <point x="326" y="723" type="line"/>
      <point x="334" y="730"/>
      <point x="343" y="733"/>
      <point x="351" y="733" type="curve" smooth="yes"/>
      <point x="359" y="733"/>
      <point x="373" y="731"/>
      <point x="391" y="725" type="curve" smooth="yes"/>
      <point x="410" y="719"/>
      <point x="430" y="711"/>
      <point x="454" y="702" type="curve" smooth="yes"/>
      <point x="474" y="694"/>
      <point x="479" y="684"/>
      <point x="479" y="658" type="curve" smooth="yes"/>
      <point x="479" y="582"/>
      <point x="448" y="506"/>
      <point x="386" y="429" type="curve"/>
      <point x="388" y="415" type="line"/>
      <point x="428" y="382"/>
      <point x="456" y="356"/>
      <point x="494" y="321" type="curve"/>
      <point x="509" y="323" type="line"/>
      <point x="523" y="343"/>
      <point x="535" y="359"/>
      <point x="545" y="374" type="curve" smooth="yes"/>
      <point x="580" y="422"/>
      <point x="601" y="465"/>
      <point x="627" y="525" type="curve"/>
      <point x="684" y="534" type="line"/>
      <point x="671" y="494"/>
      <point x="653" y="466"/>
      <point x="630" y="432" type="curve" smooth="yes"/>
      <point x="628" y="430"/>
      <point x="628" y="429"/>
      <point x="631" y="431" type="curve"/>
      <point x="623" y="416"/>
      <point x="616" y="411"/>
      <point x="606" y="398" type="curve" smooth="yes"/>
      <point x="585" y="373"/>
      <point x="570" y="354"/>
      <point x="544" y="321" type="curve"/>
      <point x="543" y="319" type="line"/>
      <point x="537" y="310" type="line" smooth="yes"/>
      <point x="534" y="306"/>
      <point x="532" y="304"/>
      <point x="530" y="301" type="curve"/>
      <point x="530" y="289" type="line"/>
      <point x="698" y="108" type="line"/>
      <point x="697" y="100" type="line"/>
      <point x="604" y="-14" type="line"/>
      <point x="595" y="-16" type="line"/>
      <point x="581" y="1"/>
      <point x="575" y="13"/>
      <point x="562" y="29" type="curve" smooth="yes"/>
      <point x="541" y="53"/>
      <point x="523" y="77"/>
      <point x="497" y="105" type="curve"/>
      <point x="479" y="126"/>
      <point x="463" y="149"/>
      <point x="445" y="172" type="curve"/>
      <point x="431" y="172" type="line"/>
      <point x="360" y="106"/>
      <point x="218" y="-24"/>
    </contour>
    <contour>
      <point x="401" y="210" type="line"/>
      <point x="284" y="330" type="line"/>
      <point x="274" y="332" type="line"/>
      <point x="232" y="314"/>
      <point x="199" y="294"/>
      <point x="180" y="271" type="curve"/>
      <point x="159" y="248"/>
      <point x="150" y="222"/>
      <point x="150" y="192" type="curve" smooth="yes"/>
      <point x="150" y="182"/>
      <point x="152" y="172"/>
      <point x="156" y="162" type="curve" smooth="yes"/>
      <point x="166" y="138"/>
      <point x="191" y="110"/>
      <point x="224" y="110" type="curve" smooth="yes"/>
      <point x="226" y="110" type="line" smooth="yes"/>
      <point x="231" y="110"/>
      <point x="237" y="111"/>
      <point x="245" y="113" type="curve" smooth="yes"/>
      <point x="273" y="118"/>
      <point x="304" y="128"/>
      <point x="326" y="141" type="curve"/>
      <point x="358" y="155"/>
      <point x="373" y="170"/>
      <point x="401" y="196" type="curve"/>
    </contour>
    <contour>
      <point x="237" y="546" type="curve" smooth="yes"/>
      <point x="237" y="544"/>
      <point x="238" y="547"/>
      <point x="238" y="545" type="curve" smooth="yes"/>
      <point x="242" y="538" type="line"/>
      <point x="253" y="530"/>
      <point x="263" y="521"/>
      <point x="271" y="514" type="curve" smooth="yes"/>
      <point x="284" y="504"/>
      <point x="284" y="504"/>
      <point x="297" y="494" type="curve" smooth="yes"/>
      <point x="319" y="476"/>
      <point x="335" y="461"/>
      <point x="359" y="440" type="curve"/>
      <point x="374" y="443" type="line"/>
      <point x="388" y="467"/>
      <point x="397" y="483"/>
      <point x="402" y="495" type="curve" smooth="yes"/>
      <point x="407" y="507"/>
      <point x="410" y="519"/>
      <point x="410" y="529" type="curve" smooth="yes"/>
      <point x="410" y="542"/>
      <point x="407" y="555"/>
      <point x="400" y="567" type="curve" smooth="yes"/>
      <point x="384" y="601"/>
      <point x="349" y="628"/>
      <point x="300" y="628" type="curve" smooth="yes"/>
      <point x="264" y="628"/>
      <point x="230" y="604"/>
      <point x="230" y="568" type="curve" smooth="yes"/>
      <point x="230" y="559"/>
      <point x="234" y="554"/>
    </contour>
  </outline>
</glyph>
<glyph name="uni0028" format="2">
  <advance width="319"/>
  <unicode hex="0028"/>
  <outline>
    <contour>
      <point x="363" y="-434" type="line"/>
      <point x="332" y="-429"/>
      <point x="302" y="-416"/>
      <point x="275" y="-393" type="curve" smooth="yes"/>
      <point x="180" y="-316"/>
      <point x="125" y="-177"/>
      <point x="90" y="-37" type="curve" smooth="yes"/>
      <point x="66" y="57"/>
      <point x="51" y="172"/>
      <point x="51" y="285" type="curve" smooth="yes"/>
      <point x="51" y="292"/>
      <point x="51" y="298"/>
      <point x="51" y="305" type="curve" smooth="yes"/>
      <point x="51" y="474"/>
      <point x="86" y="629"/>
      <point x="134" y="755" type="curve" smooth="yes"/>
      <point x="168" y="843"/>
      <point x="212" y="920"/>
      <point x="273" y="975" type="curve" smooth="yes"/>
      <point x="301" y="1000"/>
      <point x="331" y="1016"/>
      <point x="363" y="1023" type="curve"/>
      <point x="363" y="1000" type="line"/>
      <point x="300" y="980"/>
      <point x="262" y="924"/>
      <point x="236" y="862" type="curve" smooth="yes"/>
      <point x="175" y="719"/>
      <point x="166" y="520"/>
      <point x="166" y="319" type="curve" smooth="yes"/>
      <point x="166" y="285" type="line" smooth="yes"/>
      <point x="166" y="133"/>
      <point x="179" y="-19"/>
      <point x="206" y="-144" type="curve" smooth="yes"/>
      <point x="216" y="-189"/>
      <point x="228" y="-229"/>
      <point x="242" y="-264" type="curve" smooth="yes"/>
      <point x="267" y="-327"/>
      <point x="303" y="-384"/>
      <point x="363" y="-404" type="curve"/>
    </contour>
  </outline>
</glyph>
<glyph name="uni0029" format="2">
  <advance width="319"/>
  <unicode hex="0029"/>
  <outline>
    <contour>
      <point x="268" y="285" type="curve" smooth="yes"/>
      <point x="268" y="111"/>
      <point x="231" y="-50"/>
      <point x="182" y="-179" type="curve" smooth="yes"/>
      <point x="149" y="-264"/>
      <point x="104" y="-342"/>
      <point x="44" y="-393" type="curve" smooth="yes"/>
      <point x="17" y="-416"/>
      <point x="-13" y="-429"/>
      <point x="-44" y="-434" type="curve"/>
      <point x="-44" y="-404" type="line"/>
      <point x="17" y="-384"/>
      <point x="53" y="-326"/>
      <point x="78" y="-265" type="curve" smooth="yes"/>
      <point x="123" y="-153"/>
      <point x="141" y="-9"/>
      <point x="149" y="140" type="curve" smooth="yes"/>
      <point x="152" y="190"/>
      <point x="152" y="238"/>
      <point x="153" y="285" type="curve"/>
      <point x="153" y="331" type="line" smooth="yes"/>
      <point x="153" y="479"/>
      <point x="144" y="628"/>
      <point x="118" y="750" type="curve" smooth="yes"/>
      <point x="101" y="829"/>
      <point x="73" y="903"/>
      <point x="29" y="951" type="curve" smooth="yes"/>
      <point x="8" y="974"/>
      <point x="-16" y="991"/>
      <point x="-44" y="1000" type="curve"/>
      <point x="-44" y="1023" type="line"/>
      <point x="-12" y="1016"/>
      <point x="18" y="1000"/>
      <point x="46" y="975" type="curve" smooth="yes"/>
      <point x="141" y="890"/>
      <point x="195" y="752"/>
      <point x="231" y="606" type="curve" smooth="yes"/>
      <point x="253" y="515"/>
      <point x="268" y="413"/>
      <point x="268" y="305" type="curve" smooth="yes"/>
      <point x="268" y="298"/>
      <point x="268" y="292"/>
    </contour>
  </outline>
</glyph>
<glyph name="uni002A" format="2">
  <advance width="387"/>
  <unicode hex="002A"/>
  <outline>
    <contour>
      <point x="280" y="505" type="line"/>
      <point x="326" y="412" type="line"/>
      <point x="233" y="457" type="line"/>
      <point x="198" y="361" type="line"/>
      <point x="164" y="457" type="line"/>
      <point x="73" y="412" type="line"/>
      <point x="117" y="505" type="line"/>
      <point x="21" y="539" type="line"/>
      <point x="115" y="573" type="line"/>
      <point x="71" y="665" type="line"/>
      <point x="164" y="620" type="line"/>
      <point x="198" y="716" type="line"/>
      <point x="233" y="620" type="line"/>
      <point x="326" y="665" type="line"/>
      <point x="280" y="573" type="line"/>
      <point x="376" y="539" type="line"/>
    </contour>
    <contour>
      <point x="258" y="564" type="line"/>
      <point x="292" y="632" type="line"/>
      <point x="223" y="600" type="line"/>
      <point x="198" y="669" type="line"/>
      <point x="173" y="599" type="line"/>
      <point x="105" y="631" type="line"/>
      <point x="137" y="564" type="line"/>
      <point x="68" y="539" type="line"/>
      <point x="138" y="513" type="line"/>
      <point x="105" y="445" type="line"/>
      <point x="173" y="478" type="line"/>
      <point x="198" y="408" type="line"/>
      <point x="223" y="478" type="line"/>
      <point x="292" y="445" type="line"/>
      <point x="258" y="513" type="line"/>
      <point x="329" y="539" type="line"/>
    </contour>
  </outline>
</glyph>
<glyph name="uni002C" format="2">
  <advance width="304"/>
  <unicode hex="002C"/>
  <outline>
    <contour>
      <point x="181" y="-22" type="curve" smooth="yes"/>
      <point x="181" y="17"/>
      <point x="158" y="51"/>
      <point x="122" y="51" type="curve" smooth="yes"/>
      <point x="97" y="51"/>
      <point x="73" y="37"/>
      <point x="49" y="10" type="curve" smooth="yes"/>
      <point x="43" y="3"/>
      <point x="33" y="6"/>
      <point x="33" y="13" type="curve" smooth="yes"/>
      <point x="33" y="14"/>
      <point x="33" y="16"/>
      <point x="34" y="17" type="curve" smooth="yes"/>
      <point x="53" y="60"/>
      <point x="69" y="79"/>
      <point x="100" y="110" type="curve" smooth="yes"/>
      <point x="117" y="127"/>
      <point x="149" y="147"/>
      <point x="181" y="147" type="curve" smooth="yes"/>
      <point x="234" y="147"/>
      <point x="254" y="97"/>
      <point x="254" y="43" type="curve" smooth="yes"/>
      <point x="254" y="-31"/>
      <point x="215" y="-87"/>
      <point x="175" y="-120" type="curve" smooth="yes"/>
      <point x="170" y="-125"/>
      <point x="117" y="-169"/>
      <point x="100" y="-169" type="curve" smooth="yes"/>
      <point x="91" y="-169"/>
      <point x="95" y="-159"/>
      <point x="101" y="-155" type="curve" smooth="yes"/>
      <point x="137" y="-134"/>
      <point x="164" y="-101"/>
      <point x="176" y="-57" type="curve" smooth="yes"/>
      <point x="179" y="-45"/>
      <point x="181" y="-33"/>
    </contour>
  </outline>
</glyph>
<glyph name="uni002E" format="2">
  <advance width="216"/>
  <unicode hex="002E"/>
  <outline>
    <contour>
      <point x="34" y="53" type="curve" smooth="yes"/>
      <point x="34" y="91"/>
      <point x="67" y="124"/>
      <point x="105" y="124" type="curve" smooth="yes"/>
      <point x="143" y="124"/>
      <point x="176" y="91"/>
      <point x="176" y="53" type="curve" smooth="yes"/>
      <point x="176" y="15"/>
      <point x="143" y="-18"/>
      <point x="105" y="-18" type="curve" smooth="yes"/>
      <point x="67" y="-18"/>
      <point x="34" y="15"/>
    </contour>
  </outline>
</glyph>
<glyph name="uni0030" format="2">
  <advance width="450"/>
  <unicode hex="0030"/>
  <outline>
    <contour>
      <point x="226" y="575" type="curve" smooth="yes"/>
      <point x="182" y="575"/>
      <point x="120" y="529"/>
      <point x="120" y="283" type="curve" smooth="yes"/>
      <point x="120" y="196"/>
      <point x="130" y="25"/>
      <point x="224" y="25" type="curve" smooth="yes"/>
      <point x="242" y="25"/>
      <point x="290" y="34"/>
      <point x="312" y="116" type="curve" smooth="yes"/>
      <point x="326" y="167"/>
      <point x="330" y="230"/>
      <point x="330" y="322" type="curve" smooth="yes"/>
      <point x="330" y="456"/>
      <point x="302" y="532"/>
      <point x="272" y="558" type="curve" smooth="yes"/>
      <point x="260" y="569"/>
      <point x="244" y="575"/>
    </contour>
    <contour>
      <point x="222" y="-10" type="curve" smooth="yes"/>
      <point x="184" y="-10"/>
      <point x="150" y="4"/>
      <point x="122" y="32" type="curve" smooth="yes"/>
      <point x="66" y="86"/>
      <point x="34" y="187"/>
      <point x="34" y="294" type="curve" smooth="yes"/>
      <point x="34" y="492"/>
      <point x="128" y="610"/>
      <point x="226" y="610" type="curve" smooth="yes"/>
      <point x="280" y="610"/>
      <point x="322" y="580"/>
      <point x="348" y="545" type="curve" smooth="yes"/>
      <point x="392" y="487"/>
      <point x="416" y="402"/>
      <point x="416" y="303" type="curve" smooth="yes"/>
      <point x="416" y="68"/>
      <point x="300" y="-10"/>
    </contour>
  </outline>
</glyph>
<glyph name="uni0031" format="2">
  <advance width="418"/>
  <unicode hex="0031"/>
  <outline>
    <contour>
      <point x="262" y="122" type="line" smooth="yes"/>
      <point x="262" y="39"/>
      <point x="280" y="31"/>
      <point x="350" y="31" type="curve"/>
      <point x="352" y="28"/>
      <point x="354" y="21"/>
      <point x="354" y="14" type="curve" smooth="yes"/>
      <point x="354" y="8"/>
      <point x="352" y="3"/>
      <point x="350" y="0" type="curve"/>
      <point x="88" y="0" type="line"/>
      <point x="86" y="3"/>
      <point x="84" y="8"/>
      <point x="84" y="14" type="curve" smooth="yes"/>
      <point x="84" y="21"/>
      <point x="86" y="28"/>
      <point x="88" y="31" type="curve"/>
      <point x="158" y="31"/>
      <point x="186" y="39"/>
      <point x="186" y="122" type="curve" smooth="yes"/>
      <point x="186" y="448" type="line" smooth="yes"/>
      <point x="186" y="482"/>
      <point x="182" y="506"/>
      <point x="166" y="506" type="curve" smooth="yes"/>
      <point x="146" y="506"/>
      <point x="124" y="500"/>
      <point x="78" y="481" type="curve"/>
      <point x="70" y="487"/>
      <point x="66" y="497"/>
      <point x="64" y="508" type="curve"/>
      <point x="152" y="549"/>
      <point x="204" y="574"/>
      <point x="260" y="608" type="curve"/>
      <point x="262" y="608"/>
      <point x="266" y="608"/>
      <point x="266" y="603" type="curve" smooth="yes"/>
      <point x="264" y="590"/>
      <point x="262" y="529"/>
      <point x="262" y="469" type="curve" smooth="yes"/>
    </contour>
  </outline>
</glyph>
<glyph name="uni0032" format="2">
  <advance width="450"/>
  <unicode hex="0032"/>
  <outline>
    <contour>
      <point x="54" y="468" type="curve" smooth="yes"/>
      <point x="54" y="528"/>
      <point x="123" y="610"/>
      <point x="234" y="610" type="curve" smooth="yes"/>
      <point x="315" y="610"/>
      <point x="403" y="566"/>
      <point x="403" y="458" type="curve" smooth="yes"/>
      <point x="403" y="382"/>
      <point x="360" y="338"/>
      <point x="303" y="283" type="curve" smooth="yes"/>
      <point x="202" y="186" type="line" smooth="yes"/>
      <point x="197" y="181"/>
      <point x="128" y="113"/>
      <point x="128" y="65" type="curve"/>
      <point x="306" y="65" type="line" smooth="yes"/>
      <point x="342" y="65"/>
      <point x="359" y="90"/>
      <point x="376" y="161" type="curve"/>
      <point x="386" y="163"/>
      <point x="399" y="161"/>
      <point x="405" y="156" type="curve"/>
      <point x="405" y="126"/>
      <point x="394" y="53"/>
      <point x="381" y="0" type="curve"/>
      <point x="381" y="0"/>
      <point x="335" y="0"/>
      <point x="303" y="0" type="curve" smooth="yes"/>
      <point x="128" y="0" type="line" smooth="yes"/>
      <point x="45" y="0" type="line"/>
      <point x="45" y="59"/>
      <point x="61" y="105"/>
      <point x="159" y="205" type="curve"/>
      <point x="233" y="278" type="line"/>
      <point x="292" y="338"/>
      <point x="315" y="390"/>
      <point x="315" y="454" type="curve" smooth="yes"/>
      <point x="315" y="550"/>
      <point x="264" y="575"/>
      <point x="228" y="575" type="curve" smooth="yes"/>
      <point x="155" y="575"/>
      <point x="129" y="539"/>
      <point x="129" y="514" type="curve" smooth="yes"/>
      <point x="129" y="506"/>
      <point x="135" y="497"/>
      <point x="137" y="490" type="curve" smooth="yes"/>
      <point x="139" y="483"/>
      <point x="141" y="477"/>
      <point x="141" y="469" type="curve" smooth="yes"/>
      <point x="141" y="447"/>
      <point x="111" y="431"/>
      <point x="94" y="431" type="curve" smooth="yes"/>
      <point x="73" y="431"/>
      <point x="54" y="447"/>
    </contour>
  </outline>
</glyph>
<glyph name="uni0033" format="2">
  <advance width="450"/>
  <unicode hex="0033"/>
  <outline>
    <contour>
      <point x="215" y="575" type="curve" smooth="yes"/>
      <point x="189" y="575"/>
      <point x="120" y="563"/>
      <point x="120" y="499" type="curve" smooth="yes"/>
      <point x="120" y="480"/>
      <point x="116" y="447"/>
      <point x="81" y="447" type="curve" smooth="yes"/>
      <point x="57" y="447"/>
      <point x="47" y="467"/>
      <point x="47" y="481" type="curve" smooth="yes"/>
      <point x="47" y="514"/>
      <point x="89" y="610"/>
      <point x="236" y="610" type="curve" smooth="yes"/>
      <point x="288" y="610"/>
      <point x="323" y="593"/>
      <point x="345" y="571" type="curve" smooth="yes"/>
      <point x="369" y="546"/>
      <point x="376" y="522"/>
      <point x="376" y="492" type="curve" smooth="yes"/>
      <point x="376" y="439"/>
      <point x="353" y="398"/>
      <point x="271" y="359" type="curve"/>
      <point x="272" y="357" type="line"/>
      <point x="331" y="347"/>
      <point x="413" y="308"/>
      <point x="413" y="199" type="curve" smooth="yes"/>
      <point x="413" y="67"/>
      <point x="307" y="-10"/>
      <point x="188" y="-10" type="curve" smooth="yes"/>
      <point x="128" y="-10"/>
      <point x="44" y="17"/>
      <point x="44" y="57" type="curve" smooth="yes"/>
      <point x="44" y="73"/>
      <point x="65" y="92"/>
      <point x="86" y="92" type="curve" smooth="yes"/>
      <point x="106" y="92"/>
      <point x="119" y="80"/>
      <point x="129" y="66" type="curve" smooth="yes"/>
      <point x="141" y="48"/>
      <point x="150" y="25"/>
      <point x="201" y="25" type="curve" smooth="yes"/>
      <point x="236" y="25"/>
      <point x="325" y="52"/>
      <point x="325" y="185" type="curve" smooth="yes"/>
      <point x="325" y="298"/>
      <point x="251" y="314"/>
      <point x="194" y="314" type="curve" smooth="yes"/>
      <point x="181" y="314"/>
      <point x="163" y="314"/>
      <point x="146" y="312" type="curve"/>
      <point x="141" y="344" type="line"/>
      <point x="240" y="358"/>
      <point x="298" y="434"/>
      <point x="298" y="485" type="curve" smooth="yes"/>
      <point x="298" y="549"/>
      <point x="258" y="575"/>
    </contour>
  </outline>
</glyph>
<glyph name="uni0034" format="2">
  <advance width="450"/>
  <unicode hex="0034"/>
  <outline>
    <contour>
      <point x="260" y="507" type="line"/>
      <point x="190" y="413"/>
      <point x="120" y="301"/>
      <point x="68" y="219" type="curve"/>
      <point x="260" y="219" type="line"/>
    </contour>
    <contour>
      <point x="418" y="219" type="line" smooth="yes"/>
      <point x="430" y="219"/>
      <point x="434" y="213"/>
      <point x="434" y="203" type="curve" smooth="yes"/>
      <point x="434" y="191"/>
      <point x="418" y="172"/>
      <point x="404" y="172" type="curve" smooth="yes"/>
      <point x="336" y="172" type="line"/>
      <point x="336" y="80" type="line" smooth="yes"/>
      <point x="336" y="33"/>
      <point x="356" y="31"/>
      <point x="406" y="31" type="curve"/>
      <point x="408" y="28"/>
      <point x="410" y="21"/>
      <point x="410" y="14" type="curve" smooth="yes"/>
      <point x="410" y="8"/>
      <point x="408" y="3"/>
      <point x="406" y="0" type="curve"/>
      <point x="374" y="0"/>
      <point x="336" y="0"/>
      <point x="296" y="0" type="curve" smooth="yes"/>
      <point x="250" y="0"/>
      <point x="210" y="0"/>
      <point x="178" y="0" type="curve"/>
      <point x="176" y="3"/>
      <point x="174" y="8"/>
      <point x="174" y="14" type="curve" smooth="yes"/>
      <point x="174" y="21"/>
      <point x="176" y="28"/>
      <point x="178" y="31" type="curve"/>
      <point x="222" y="31"/>
      <point x="260" y="34"/>
      <point x="260" y="80" type="curve" smooth="yes"/>
      <point x="260" y="172" type="line"/>
      <point x="56" y="172" type="line" smooth="yes"/>
      <point x="26" y="172"/>
      <point x="20" y="199"/>
      <point x="16" y="214" type="curve"/>
      <point x="108" y="357"/>
      <point x="224" y="522"/>
      <point x="288" y="599" type="curve" smooth="yes"/>
      <point x="292" y="604"/>
      <point x="296" y="610"/>
      <point x="304" y="610" type="curve" smooth="yes"/>
      <point x="336" y="610" type="line"/>
      <point x="338" y="608" type="line"/>
      <point x="336" y="600"/>
      <point x="336" y="561"/>
      <point x="336" y="511" type="curve" smooth="yes"/>
      <point x="336" y="219" type="line"/>
    </contour>
  </outline>
</glyph>
<glyph name="u0035" format="2">
  <advance width="450"/>
  <unicode hex="0035"/>
  <outline>
    <contour>
      <point x="313" y="189" type="curve" smooth="yes"/>
      <point x="313" y="298"/>
      <point x="262" y="341"/>
      <point x="197" y="341" type="curve" smooth="yes"/>
      <point x="161" y="341"/>
      <point x="123" y="337"/>
      <point x="70" y="317" type="curve"/>
      <point x="104" y="605" type="line"/>
      <point x="139" y="602"/>
      <point x="175" y="600"/>
      <point x="212" y="600" type="curve" smooth="yes"/>
      <point x="265" y="600"/>
      <point x="319" y="605"/>
      <point x="376" y="611" type="curve"/>
      <point x="383" y="607" type="line"/>
      <point x="367" y="539" type="line"/>
      <point x="326" y="535"/>
      <point x="292" y="533"/>
      <point x="262" y="533" type="curve" smooth="yes"/>
      <point x="214" y="533"/>
      <point x="182" y="538"/>
      <point x="145" y="542" type="curve"/>
      <point x="125" y="375" type="line"/>
      <point x="143" y="382"/>
      <point x="180" y="391"/>
      <point x="223" y="391" type="curve" smooth="yes"/>
      <point x="335" y="391"/>
      <point x="402" y="304"/>
      <point x="402" y="207" type="curve" smooth="yes"/>
      <point x="402" y="81"/>
      <point x="314" y="-10"/>
      <point x="190" y="-10" type="curve" smooth="yes"/>
      <point x="133" y="-10"/>
      <point x="48" y="23"/>
      <point x="48" y="64" type="curve" smooth="yes"/>
      <point x="48" y="84"/>
      <point x="67" y="101"/>
      <point x="86" y="101" type="curve" smooth="yes"/>
      <point x="107" y="101"/>
      <point x="124" y="86"/>
      <point x="137" y="69" type="curve" smooth="yes"/>
      <point x="152" y="49"/>
      <point x="165" y="24"/>
      <point x="203" y="24" type="curve" smooth="yes"/>
      <point x="263" y="24"/>
      <point x="313" y="94"/>
    </contour>
  </outline>
</glyph>
<glyph name="uni0036" format="2">
  <advance width="450"/>
  <unicode hex="0036"/>
  <outline>
    <contour>
      <point x="128" y="307" type="curve"/>
      <point x="122" y="278"/>
      <point x="120" y="252"/>
      <point x="120" y="229" type="curve" smooth="yes"/>
      <point x="120" y="58"/>
      <point x="176" y="24"/>
      <point x="240" y="24" type="curve" smooth="yes"/>
      <point x="288" y="24"/>
      <point x="330" y="74"/>
      <point x="330" y="184" type="curve" smooth="yes"/>
      <point x="330" y="234"/>
      <point x="308" y="330"/>
      <point x="210" y="330" type="curve" smooth="yes"/>
      <point x="194" y="330"/>
      <point x="160" y="329"/>
    </contour>
    <contour>
      <point x="136" y="343" type="curve"/>
      <point x="166" y="357"/>
      <point x="206" y="365"/>
      <point x="232" y="365" type="curve" smooth="yes"/>
      <point x="368" y="365"/>
      <point x="414" y="288"/>
      <point x="414" y="202" type="curve" smooth="yes"/>
      <point x="414" y="116"/>
      <point x="360" y="-10"/>
      <point x="228" y="-10" type="curve" smooth="yes"/>
      <point x="152" y="-10"/>
      <point x="36" y="29"/>
      <point x="36" y="232" type="curve" smooth="yes"/>
      <point x="36" y="311"/>
      <point x="68" y="402"/>
      <point x="130" y="474" type="curve" smooth="yes"/>
      <point x="186" y="539"/>
      <point x="248" y="581"/>
      <point x="348" y="611" type="curve"/>
      <point x="356" y="606"/>
      <point x="360" y="597"/>
      <point x="360" y="585" type="curve"/>
      <point x="228" y="535"/>
      <point x="164" y="434"/>
    </contour>
  </outline>
</glyph>
<glyph name="uni0037" format="2">
  <advance width="450"/>
  <unicode hex="0037"/>
  <outline>
    <contour>
      <point x="158" y="535" type="line" smooth="yes"/>
      <point x="126" y="535"/>
      <point x="92" y="528"/>
      <point x="70" y="448" type="curve"/>
      <point x="68" y="448"/>
      <point x="64" y="447"/>
      <point x="62" y="447" type="curve" smooth="yes"/>
      <point x="54" y="447"/>
      <point x="46" y="449"/>
      <point x="38" y="451" type="curve"/>
      <point x="46" y="503"/>
      <point x="58" y="563"/>
      <point x="58" y="611" type="curve" smooth="yes"/>
      <point x="58" y="614"/>
      <point x="60" y="614"/>
      <point x="62" y="614" type="curve" smooth="yes"/>
      <point x="80" y="610"/>
      <point x="78" y="600"/>
      <point x="112" y="600" type="curve" smooth="yes"/>
      <point x="318" y="600" type="line" smooth="yes"/>
      <point x="356" y="600"/>
      <point x="378" y="606"/>
      <point x="396" y="611" type="curve"/>
      <point x="412" y="599" type="line"/>
      <point x="300" y="326"/>
      <point x="244" y="160"/>
      <point x="188" y="-10" type="curve"/>
      <point x="120" y="-10" type="line"/>
      <point x="112" y="-6" type="line"/>
      <point x="180" y="146"/>
      <point x="258" y="341"/>
      <point x="336" y="535" type="curve"/>
    </contour>
  </outline>
</glyph>
<glyph name="uni0038" format="2">
  <advance width="450"/>
  <unicode hex="0038"/>
  <outline>
    <contour>
      <point x="226" y="575" type="curve" smooth="yes"/>
      <point x="166" y="575"/>
      <point x="134" y="537"/>
      <point x="134" y="491" type="curve" smooth="yes"/>
      <point x="134" y="460"/>
      <point x="142" y="427"/>
      <point x="204" y="386" type="curve"/>
      <point x="236" y="367" type="line"/>
      <point x="262" y="387"/>
      <point x="316" y="432"/>
      <point x="316" y="486" type="curve" smooth="yes"/>
      <point x="316" y="532"/>
      <point x="292" y="575"/>
    </contour>
    <contour>
      <point x="386" y="485" type="curve" smooth="yes"/>
      <point x="386" y="421"/>
      <point x="310" y="369"/>
      <point x="262" y="346" type="curve"/>
      <point x="334" y="303" type="line" smooth="yes"/>
      <point x="386" y="271"/>
      <point x="412" y="220"/>
      <point x="412" y="162" type="curve" smooth="yes"/>
      <point x="412" y="86"/>
      <point x="348" y="-10"/>
      <point x="216" y="-10" type="curve" smooth="yes"/>
      <point x="110" y="-10"/>
      <point x="38" y="44"/>
      <point x="38" y="146" type="curve" smooth="yes"/>
      <point x="38" y="185"/>
      <point x="56" y="230"/>
      <point x="96" y="266" type="curve" smooth="yes"/>
      <point x="122" y="288"/>
      <point x="148" y="306"/>
      <point x="176" y="321" type="curve"/>
      <point x="152" y="337" type="line" smooth="yes"/>
      <point x="90" y="375"/>
      <point x="64" y="416"/>
      <point x="64" y="472" type="curve" smooth="yes"/>
      <point x="64" y="549"/>
      <point x="130" y="610"/>
      <point x="232" y="610" type="curve" smooth="yes"/>
      <point x="330" y="610"/>
      <point x="386" y="557"/>
    </contour>
    <contour>
      <point x="218" y="25" type="curve" smooth="yes"/>
      <point x="264" y="25"/>
      <point x="338" y="42"/>
      <point x="338" y="142" type="curve" smooth="yes"/>
      <point x="338" y="190"/>
      <point x="314" y="237"/>
      <point x="252" y="275" type="curve" smooth="yes"/>
      <point x="204" y="303" type="line"/>
      <point x="118" y="246"/>
      <point x="106" y="176"/>
      <point x="106" y="146" type="curve" smooth="yes"/>
      <point x="106" y="56"/>
      <point x="174" y="25"/>
    </contour>
  </outline>
</glyph>
<glyph name="uni0039" format="2">
  <advance width="450"/>
  <unicode hex="0039"/>
  <outline>
    <contour>
      <point x="322" y="292" type="curve"/>
      <point x="328" y="321"/>
      <point x="330" y="348"/>
      <point x="330" y="370" type="curve" smooth="yes"/>
      <point x="330" y="541"/>
      <point x="274" y="575"/>
      <point x="210" y="575" type="curve" smooth="yes"/>
      <point x="162" y="575"/>
      <point x="120" y="525"/>
      <point x="120" y="415" type="curve" smooth="yes"/>
      <point x="120" y="365"/>
      <point x="142" y="269"/>
      <point x="240" y="269" type="curve" smooth="yes"/>
      <point x="256" y="269"/>
      <point x="290" y="270"/>
    </contour>
    <contour>
      <point x="314" y="256" type="curve"/>
      <point x="284" y="242"/>
      <point x="244" y="234"/>
      <point x="218" y="234" type="curve" smooth="yes"/>
      <point x="82" y="234"/>
      <point x="36" y="311"/>
      <point x="36" y="397" type="curve" smooth="yes"/>
      <point x="36" y="483"/>
      <point x="90" y="610"/>
      <point x="222" y="610" type="curve" smooth="yes"/>
      <point x="298" y="610"/>
      <point x="414" y="570"/>
      <point x="414" y="367" type="curve" smooth="yes"/>
      <point x="414" y="288"/>
      <point x="382" y="197"/>
      <point x="320" y="125" type="curve" smooth="yes"/>
      <point x="264" y="60"/>
      <point x="202" y="20"/>
      <point x="102" y="-10" type="curve"/>
      <point x="94" y="-5"/>
      <point x="90" y="2"/>
      <point x="90" y="14" type="curve"/>
      <point x="222" y="64"/>
      <point x="286" y="165"/>
    </contour>
  </outline>
</glyph>
<glyph name="uni003A" format="2">
  <advance width="276"/>
  <unicode hex="003A"/>
  <anchor x="21.7778" y="509.2" name="left"/>
  <anchor x="275" y="512" name="right"/>
  <outline>
    <contour>
      <point x="144" y="-12" type="line" smooth="yes"/>
      <point x="143" y="-14"/>
      <point x="141" y="-14"/>
      <point x="140" y="-14" type="curve" smooth="yes"/>
      <point x="139" y="-14"/>
      <point x="137" y="-14"/>
      <point x="136" y="-12" type="curve" smooth="yes"/>
      <point x="68" y="68" type="line" smooth="yes"/>
      <point x="67" y="70"/>
      <point x="68" y="71"/>
      <point x="68" y="73" type="curve" smooth="yes"/>
      <point x="68" y="74"/>
      <point x="67" y="76"/>
      <point x="68" y="77" type="curve" smooth="yes"/>
      <point x="136" y="156" type="line" smooth="yes"/>
      <point x="139" y="159"/>
      <point x="141" y="159"/>
      <point x="144" y="156" type="curve" smooth="yes"/>
      <point x="215" y="77" type="line" smooth="yes"/>
      <point x="216" y="76"/>
      <point x="216" y="74"/>
      <point x="216" y="73" type="curve" smooth="yes"/>
      <point x="216" y="72"/>
      <point x="216" y="71"/>
      <point x="215" y="70" type="curve" smooth="yes"/>
    </contour>
    <contour>
      <point x="144" y="254" type="line" smooth="yes"/>
      <point x="143" y="252"/>
      <point x="141" y="252"/>
      <point x="140" y="252" type="curve" smooth="yes"/>
      <point x="139" y="252"/>
      <point x="137" y="252"/>
      <point x="136" y="254" type="curve" smooth="yes"/>
      <point x="68" y="334" type="line" smooth="yes"/>
      <point x="67" y="336"/>
      <point x="68" y="337"/>
      <point x="68" y="339" type="curve" smooth="yes"/>
      <point x="68" y="340"/>
      <point x="67" y="342"/>
      <point x="68" y="343" type="curve" smooth="yes"/>
      <point x="136" y="422" type="line" smooth="yes"/>
      <point x="137" y="423"/>
      <point x="139" y="424"/>
      <point x="140" y="424" type="curve" smooth="yes"/>
      <point x="141" y="424"/>
      <point x="143" y="423"/>
      <point x="144" y="422" type="curve" smooth="yes"/>
      <point x="215" y="343" type="line" smooth="yes"/>
      <point x="216" y="342"/>
      <point x="216" y="340"/>
      <point x="216" y="339" type="curve" smooth="yes"/>
      <point x="216" y="338"/>
      <point x="216" y="337"/>
      <point x="215" y="336" type="curve" smooth="yes"/>
    </contour>
  </outline>
</glyph>
<glyph name="uni003B" format="2">
  <advance width="297"/>
  <unicode hex="003B"/>
  <anchor x="275" y="512" name="right"/>
  <anchor x="21.7778" y="509.2" name="left"/>
  <outline>
    <contour>
      <point x="168" y="-16" type="curve" smooth="yes"/>
      <point x="168" y="18"/>
      <point x="155" y="43"/>
      <point x="122" y="43" type="curve" smooth="yes"/>
      <point x="96" y="43"/>
      <point x="71" y="25"/>
      <point x="56" y="11" type="curve" smooth="yes"/>
      <point x="49" y="4"/>
      <point x="35" y="12"/>
      <point x="35" y="20" type="curve" smooth="yes"/>
      <point x="35" y="68"/>
      <point x="90" y="119"/>
      <point x="124" y="136" type="curve" smooth="yes"/>
      <point x="138" y="143"/>
      <point x="152" y="147"/>
      <point x="168" y="147" type="curve" smooth="yes"/>
      <point x="223" y="147"/>
      <point x="245" y="91"/>
      <point x="245" y="37" type="curve" smooth="yes"/>
      <point x="245" y="-35"/>
      <point x="208" y="-91"/>
      <point x="171" y="-128" type="curve" smooth="yes"/>
      <point x="157" y="-141"/>
      <point x="142" y="-152"/>
      <point x="127" y="-159" type="curve" smooth="yes"/>
      <point x="124" y="-160"/>
      <point x="121" y="-161"/>
      <point x="118" y="-161" type="curve" smooth="yes"/>
      <point x="111" y="-161"/>
      <point x="108" y="-156"/>
      <point x="114" y="-150" type="curve" smooth="yes"/>
      <point x="140" y="-122"/>
      <point x="168" y="-66"/>
    </contour>
    <contour>
      <point x="64" y="289" type="curve" smooth="yes"/>
      <point x="64" y="327"/>
      <point x="96" y="359"/>
      <point x="134" y="359" type="curve" smooth="yes"/>
      <point x="172" y="359"/>
      <point x="204" y="327"/>
      <point x="204" y="289" type="curve" smooth="yes"/>
      <point x="204" y="251"/>
      <point x="172" y="219"/>
      <point x="134" y="219" type="curve" smooth="yes"/>
      <point x="96" y="219"/>
      <point x="64" y="251"/>
    </contour>
  </outline>
</glyph>
<glyph name="uni003C" format="2">
  <advance width="611"/>
  <unicode hex="003C"/>
  <outline>
    <contour>
      <point x="583" y="508" type="line"/>
      <point x="161" y="296" type="line"/>
      <point x="583" y="85" type="line"/>
      <point x="583" y="25" type="line"/>
      <point x="40" y="296" type="line"/>
      <point x="583" y="568" type="line"/>
    </contour>
  </outline>
</glyph>
<glyph name="uni003D" format="2">
  <advance width="376"/>
  <unicode hex="003D"/>
  <outline>
    <contour>
      <point x="330" y="491" type="line" smooth="yes"/>
      <point x="356" y="491"/>
      <point x="362" y="469"/>
      <point x="362" y="442" type="curve" smooth="yes"/>
      <point x="362" y="415"/>
      <point x="356" y="395"/>
      <point x="330" y="395" type="curve" smooth="yes"/>
      <point x="46" y="395" type="line" smooth="yes"/>
      <point x="20" y="395"/>
      <point x="14" y="415"/>
      <point x="14" y="442" type="curve" smooth="yes"/>
      <point x="14" y="469"/>
      <point x="20" y="491"/>
      <point x="46" y="491" type="curve" smooth="yes"/>
    </contour>
    <contour>
      <point x="329" y="299" type="line" smooth="yes"/>
      <point x="356" y="299"/>
      <point x="361" y="277"/>
      <point x="361" y="250" type="curve" smooth="yes"/>
      <point x="361" y="223"/>
      <point x="356" y="203"/>
      <point x="329" y="203" type="curve" smooth="yes"/>
      <point x="46" y="203" type="line" smooth="yes"/>
      <point x="19" y="203"/>
      <point x="14" y="223"/>
      <point x="14" y="250" type="curve" smooth="yes"/>
      <point x="14" y="277"/>
      <point x="19" y="299"/>
      <point x="46" y="299" type="curve" smooth="yes"/>
    </contour>
  </outline>
</glyph>
<glyph name="uni003E" format="2">
  <advance width="600"/>
  <unicode hex="003E"/>
  <outline>
    <contour>
      <point x="40" y="84" type="line"/>
      <point x="463" y="296" type="line"/>
      <point x="40" y="508" type="line"/>
      <point x="40" y="568" type="line"/>
      <point x="583" y="296" type="line"/>
      <point x="40" y="25" type="line"/>
    </contour>
  </outline>
</glyph>
<glyph name="uni003F" format="2">
  <advance width="368"/>
  <unicode hex="003F"/>
  <outline>
    <contour>
      <point x="129" y="781" type="curve" smooth="yes"/>
      <point x="234" y="781"/>
      <point x="341" y="725"/>
      <point x="341" y="626" type="curve" smooth="yes"/>
      <point x="341" y="579"/>
      <point x="312" y="533"/>
      <point x="254" y="487" type="curve"/>
      <point x="219" y="458" type="line" smooth="yes"/>
      <point x="173" y="421"/>
      <point x="150" y="391"/>
      <point x="150" y="367" type="curve" smooth="yes"/>
      <point x="150" y="330"/>
      <point x="177" y="303"/>
      <point x="232" y="285" type="curve"/>
      <point x="205" y="268"/>
      <point x="181" y="242"/>
      <point x="161" y="209" type="curve"/>
      <point x="116" y="228"/>
      <point x="86" y="252"/>
      <point x="70" y="279" type="curve"/>
      <point x="79" y="328"/>
      <point x="108" y="385"/>
      <point x="157" y="448" type="curve"/>
      <point x="181" y="480" type="line"/>
      <point x="222" y="532"/>
      <point x="243" y="570"/>
      <point x="243" y="594" type="curve" smooth="yes"/>
      <point x="243" y="666"/>
      <point x="154" y="702"/>
      <point x="76" y="702" type="curve" smooth="yes"/>
      <point x="69" y="702"/>
      <point x="58" y="701"/>
      <point x="43" y="700" type="curve"/>
      <point x="63" y="722"/>
      <point x="79" y="748"/>
      <point x="92" y="779" type="curve"/>
      <point x="105" y="780"/>
      <point x="117" y="781"/>
    </contour>
    <contour>
      <point x="220" y="84" type="curve"/>
      <point x="189" y="68"/>
      <point x="163" y="41"/>
      <point x="140" y="4" type="curve"/>
      <point x="117" y="41"/>
      <point x="91" y="67"/>
      <point x="60" y="84" type="curve"/>
      <point x="91" y="100"/>
      <point x="117" y="127"/>
      <point x="140" y="164" type="curve"/>
      <point x="163" y="127"/>
      <point x="189" y="100"/>
    </contour>
  </outline>
</glyph>
<glyph name="uni0040" format="2">
  <advance width="921"/>
  <unicode hex="0040"/>
  <outline>
    <contour>
      <point x="409" y="143" type="curve" smooth="yes"/>
      <point x="355" y="143"/>
      <point x="321" y="200"/>
      <point x="321" y="256" type="curve" smooth="yes"/>
      <point x="321" y="316"/>
      <point x="340" y="373"/>
      <point x="378" y="427" type="curve" smooth="yes"/>
      <point x="415" y="481"/>
      <point x="462" y="508"/>
      <point x="517" y="508" type="curve" smooth="yes"/>
      <point x="534" y="508"/>
      <point x="548" y="504"/>
      <point x="558" y="498" type="curve" smooth="yes"/>
      <point x="567" y="490"/>
      <point x="578" y="477"/>
      <point x="589" y="456" type="curve"/>
      <point x="599" y="494" type="line"/>
      <point x="668" y="494" type="line"/>
      <point x="603" y="240" type="line" smooth="yes"/>
      <point x="602" y="232"/>
      <point x="601" y="226"/>
      <point x="601" y="222" type="curve" smooth="yes"/>
      <point x="601" y="191"/>
      <point x="614" y="176"/>
      <point x="640" y="176" type="curve" smooth="yes"/>
      <point x="673" y="176"/>
      <point x="702" y="196"/>
      <point x="729" y="237" type="curve" smooth="yes"/>
      <point x="756" y="278"/>
      <point x="769" y="323"/>
      <point x="769" y="373" type="curve" smooth="yes"/>
      <point x="769" y="448"/>
      <point x="741" y="512"/>
      <point x="684" y="565" type="curve" smooth="yes"/>
      <point x="628" y="618"/>
      <point x="561" y="645"/>
      <point x="482" y="645" type="curve" smooth="yes"/>
      <point x="398" y="645"/>
      <point x="330" y="614"/>
      <point x="278" y="552" type="curve" smooth="yes"/>
      <point x="226" y="489"/>
      <point x="200" y="413"/>
      <point x="200" y="323" type="curve" smooth="yes"/>
      <point x="200" y="236"/>
      <point x="227" y="165"/>
      <point x="282" y="109" type="curve" smooth="yes"/>
      <point x="337" y="53"/>
      <point x="407" y="25"/>
      <point x="492" y="25" type="curve" smooth="yes"/>
      <point x="551" y="25"/>
      <point x="617" y="41"/>
      <point x="688" y="73" type="curve"/>
      <point x="700" y="43" type="line"/>
      <point x="651" y="21"/>
      <point x="612" y="8"/>
      <point x="582" y="0" type="curve" smooth="yes"/>
      <point x="551" y="-8"/>
      <point x="518" y="-14"/>
      <point x="483" y="-14" type="curve" smooth="yes"/>
      <point x="380" y="-14"/>
      <point x="293" y="19"/>
      <point x="222" y="84" type="curve" smooth="yes"/>
      <point x="151" y="149"/>
      <point x="116" y="230"/>
      <point x="116" y="326" type="curve" smooth="yes"/>
      <point x="116" y="423"/>
      <point x="152" y="506"/>
      <point x="222" y="574" type="curve" smooth="yes"/>
      <point x="294" y="642"/>
      <point x="380" y="676"/>
      <point x="481" y="676" type="curve" smooth="yes"/>
      <point x="574" y="676"/>
      <point x="652" y="648"/>
      <point x="714" y="592" type="curve" smooth="yes"/>
      <point x="778" y="535"/>
      <point x="809" y="466"/>
      <point x="809" y="383" type="curve" smooth="yes"/>
      <point x="809" y="318"/>
      <point x="791" y="262"/>
      <point x="754" y="214" type="curve" smooth="yes"/>
      <point x="717" y="167"/>
      <point x="674" y="144"/>
      <point x="625" y="144" type="curve" smooth="yes"/>
      <point x="577" y="144"/>
      <point x="539" y="173"/>
      <point x="534" y="216" type="curve"/>
      <point x="498" y="168"/>
      <point x="456" y="143"/>
    </contour>
    <contour>
      <point x="392" y="272" type="curve" smooth="yes"/>
      <point x="392" y="227"/>
      <point x="410" y="187"/>
      <point x="452" y="187" type="curve" smooth="yes"/>
      <point x="484" y="187"/>
      <point x="512" y="212"/>
      <point x="536" y="262" type="curve" smooth="yes"/>
      <point x="560" y="312"/>
      <point x="572" y="360"/>
      <point x="572" y="406" type="curve" smooth="yes"/>
      <point x="572" y="440"/>
      <point x="558" y="464"/>
      <point x="528" y="464" type="curve" smooth="yes"/>
      <point x="501" y="464"/>
      <point x="471" y="446"/>
      <point x="440" y="408" type="curve" smooth="yes"/>
      <point x="408" y="372"/>
      <point x="392" y="326"/>
    </contour>
  </outline>
</glyph>
<glyph name="uni0041" format="2">
  <advance width="715"/>
  <unicode hex="0041"/>
  <outline>
    <contour>
      <point x="263" y="283" type="curve" smooth="yes"/>
      <point x="440" y="283" type="line"/>
      <point x="346" y="555" type="line"/>
      <point x="340" y="555" type="line"/>
      <point x="238" y="296" type="line" smooth="yes"/>
      <point x="237" y="295"/>
      <point x="237" y="293"/>
      <point x="237" y="292" type="curve" smooth="yes"/>
      <point x="237" y="285"/>
      <point x="245" y="283"/>
    </contour>
    <contour>
      <point x="172" y="119" type="line" smooth="yes"/>
      <point x="170" y="113"/>
      <point x="152" y="69"/>
      <point x="152" y="64" type="curve" smooth="yes"/>
      <point x="152" y="37"/>
      <point x="191" y="33"/>
      <point x="224" y="31" type="curve"/>
      <point x="227" y="28"/>
      <point x="228" y="21"/>
      <point x="228" y="14" type="curve" smooth="yes"/>
      <point x="228" y="8"/>
      <point x="227" y="3"/>
      <point x="224" y="0" type="curve"/>
      <point x="212" y="0"/>
      <point x="198" y="0"/>
      <point x="183" y="0" type="curve" smooth="yes"/>
      <point x="155" y="0"/>
      <point x="123" y="0"/>
      <point x="96" y="0" type="curve" smooth="yes"/>
      <point x="76" y="0"/>
      <point x="55" y="0"/>
      <point x="35" y="0" type="curve" smooth="yes"/>
      <point x="25" y="0"/>
      <point x="16" y="0"/>
      <point x="7" y="0" type="curve"/>
      <point x="4" y="3"/>
      <point x="0" y="8"/>
      <point x="0" y="14" type="curve" smooth="yes"/>
      <point x="0" y="21"/>
      <point x="4" y="28"/>
      <point x="7" y="31" type="curve"/>
      <point x="50" y="34"/>
      <point x="81" y="40"/>
      <point x="107" y="102" type="curve" smooth="yes"/>
      <point x="334" y="638" type="line"/>
      <point x="347" y="638"/>
      <point x="374" y="649"/>
      <point x="389" y="658" type="curve"/>
      <point x="595" y="86" type="line" smooth="yes"/>
      <point x="612" y="38"/>
      <point x="646" y="34"/>
      <point x="685" y="31" type="curve"/>
      <point x="688" y="28"/>
      <point x="690" y="21"/>
      <point x="690" y="14" type="curve" smooth="yes"/>
      <point x="690" y="8"/>
      <point x="688" y="3"/>
      <point x="685" y="0" type="curve"/>
      <point x="673" y="0"/>
      <point x="661" y="0"/>
      <point x="649" y="0" type="curve" smooth="yes"/>
      <point x="624" y="0"/>
      <point x="598" y="0"/>
      <point x="571" y="0" type="curve" smooth="yes"/>
      <point x="545" y="0"/>
      <point x="512" y="0"/>
      <point x="482" y="0" type="curve" smooth="yes"/>
      <point x="467" y="0"/>
      <point x="452" y="0"/>
      <point x="440" y="0" type="curve"/>
      <point x="437" y="3"/>
      <point x="436" y="8"/>
      <point x="436" y="14" type="curve" smooth="yes"/>
      <point x="436" y="21"/>
      <point x="437" y="28"/>
      <point x="440" y="31" type="curve"/>
      <point x="482" y="34"/>
      <point x="516" y="37"/>
      <point x="516" y="61" type="curve" smooth="yes"/>
      <point x="516" y="64"/>
      <point x="515" y="68"/>
      <point x="514" y="72" type="curve" smooth="yes"/>
      <point x="456" y="241" type="line"/>
      <point x="245" y="241" type="line" smooth="yes"/>
      <point x="221" y="241"/>
      <point x="215" y="237"/>
      <point x="210" y="224" type="curve" smooth="yes"/>
    </contour>
  </outline>
</glyph>
<glyph name="uni0042" format="2">
  <advance width="562"/>
  <unicode hex="0042"/>
  <outline>
    <contour>
      <point x="191" y="550" type="curve" smooth="yes"/>
      <point x="191" y="366" type="line"/>
      <point x="265" y="366" type="line" smooth="yes"/>
      <point x="348" y="366"/>
      <point x="407" y="396"/>
      <point x="407" y="481" type="curve" smooth="yes"/>
      <point x="407" y="583"/>
      <point x="334" y="613"/>
      <point x="278" y="613" type="curve" smooth="yes"/>
      <point x="191" y="613"/>
      <point x="191" y="603"/>
    </contour>
    <contour>
      <point x="191" y="332" type="line"/>
      <point x="191" y="118" type="line" smooth="yes"/>
      <point x="191" y="57"/>
      <point x="204" y="31"/>
      <point x="274" y="31" type="curve" smooth="yes"/>
      <point x="426" y="31"/>
      <point x="454" y="92"/>
      <point x="454" y="165" type="curve" smooth="yes"/>
      <point x="454" y="255"/>
      <point x="397" y="332"/>
      <point x="260" y="332" type="curve" smooth="yes"/>
    </contour>
    <contour>
      <point x="144" y="645" type="curve" smooth="yes"/>
      <point x="180" y="645"/>
      <point x="238" y="647"/>
      <point x="273" y="647" type="curve" smooth="yes"/>
      <point x="459" y="647"/>
      <point x="488" y="560"/>
      <point x="488" y="493" type="curve" smooth="yes"/>
      <point x="488" y="439"/>
      <point x="443" y="387"/>
      <point x="393" y="362" type="curve"/>
      <point x="393" y="360" type="line"/>
      <point x="480" y="335"/>
      <point x="547" y="280"/>
      <point x="547" y="184" type="curve" smooth="yes"/>
      <point x="547" y="98"/>
      <point x="494" y="0"/>
      <point x="295" y="0" type="curve" smooth="yes"/>
      <point x="149" y="0" type="line" smooth="yes"/>
      <point x="124" y="0"/>
      <point x="92" y="0"/>
      <point x="62" y="0" type="curve" smooth="yes"/>
      <point x="47" y="0"/>
      <point x="32" y="0"/>
      <point x="19" y="0" type="curve"/>
      <point x="16" y="3"/>
      <point x="14" y="8"/>
      <point x="14" y="14" type="curve" smooth="yes"/>
      <point x="14" y="21"/>
      <point x="16" y="28"/>
      <point x="19" y="31" type="curve"/>
      <point x="89" y="34"/>
      <point x="106" y="39"/>
      <point x="106" y="122" type="curve" smooth="yes"/>
      <point x="106" y="523" type="line" smooth="yes"/>
      <point x="106" y="606"/>
      <point x="89" y="611"/>
      <point x="19" y="614" type="curve"/>
      <point x="16" y="617"/>
      <point x="14" y="624"/>
      <point x="14" y="630" type="curve" smooth="yes"/>
      <point x="14" y="637"/>
      <point x="16" y="644"/>
      <point x="19" y="647" type="curve"/>
      <point x="58" y="646"/>
      <point x="108" y="645"/>
    </contour>
  </outline>
</glyph>
<glyph name="uni0043" format="2">
  <advance width="636"/>
  <unicode hex="0043"/>
  <outline>
    <contour>
      <point x="37" y="310" type="curve" smooth="yes"/>
      <point x="37" y="500"/>
      <point x="168" y="658"/>
      <point x="358" y="658" type="curve" smooth="yes"/>
      <point x="481" y="658"/>
      <point x="526" y="613"/>
      <point x="577" y="613" type="curve"/>
      <point x="587" y="558"/>
      <point x="594" y="510"/>
      <point x="599" y="458" type="curve"/>
      <point x="591" y="454"/>
      <point x="584" y="451"/>
      <point x="577" y="451" type="curve" smooth="yes"/>
      <point x="573" y="451"/>
      <point x="570" y="452"/>
      <point x="566" y="453" type="curve"/>
      <point x="540" y="539"/>
      <point x="485" y="621"/>
      <point x="347" y="621" type="curve" smooth="yes"/>
      <point x="295" y="621"/>
      <point x="237" y="593"/>
      <point x="187" y="532" type="curve" smooth="yes"/>
      <point x="151" y="487"/>
      <point x="128" y="415"/>
      <point x="128" y="329" type="curve" smooth="yes"/>
      <point x="128" y="183"/>
      <point x="221" y="31"/>
      <point x="356" y="31" type="curve" smooth="yes"/>
      <point x="449" y="31"/>
      <point x="517" y="62"/>
      <point x="588" y="140" type="curve"/>
      <point x="599" y="140"/>
      <point x="606" y="134"/>
      <point x="611" y="125" type="curve"/>
      <point x="543" y="36"/>
      <point x="454" y="-10"/>
      <point x="357" y="-10" type="curve" smooth="yes"/>
      <point x="142" y="-10"/>
      <point x="37" y="136"/>
    </contour>
  </outline>
</glyph>
<glyph name="uni0044" format="2">
  <advance width="676"/>
  <unicode hex="0044"/>
  <outline>
    <contour>
      <point x="191" y="84" type="line" smooth="yes"/>
      <point x="191" y="52"/>
      <point x="202" y="32"/>
      <point x="300" y="32" type="curve" smooth="yes"/>
      <point x="441" y="32"/>
      <point x="562" y="82"/>
      <point x="562" y="284" type="curve" smooth="yes"/>
      <point x="562" y="438"/>
      <point x="491" y="613"/>
      <point x="275" y="613" type="curve" smooth="yes"/>
      <point x="226" y="613"/>
      <point x="191" y="599"/>
      <point x="191" y="564" type="curve" smooth="yes"/>
    </contour>
    <contour>
      <point x="148" y="645" type="curve" smooth="yes"/>
      <point x="187" y="645"/>
      <point x="242" y="647"/>
      <point x="313" y="647" type="curve" smooth="yes"/>
      <point x="505" y="647"/>
      <point x="658" y="494"/>
      <point x="658" y="308" type="curve" smooth="yes"/>
      <point x="658" y="62"/>
      <point x="472" y="0"/>
      <point x="331" y="0" type="curve" smooth="yes"/>
      <point x="228" y="0"/>
      <point x="186" y="0"/>
      <point x="149" y="0" type="curve" smooth="yes"/>
      <point x="111" y="0"/>
      <point x="58" y="-1"/>
      <point x="19" y="-2" type="curve"/>
      <point x="16" y="1"/>
      <point x="14" y="8"/>
      <point x="14" y="14" type="curve" smooth="yes"/>
      <point x="14" y="21"/>
      <point x="16" y="28"/>
      <point x="19" y="31" type="curve"/>
      <point x="89" y="34"/>
      <point x="106" y="39"/>
      <point x="106" y="122" type="curve" smooth="yes"/>
      <point x="106" y="523" type="line" smooth="yes"/>
      <point x="106" y="606"/>
      <point x="89" y="611"/>
      <point x="19" y="614" type="curve"/>
      <point x="16" y="617"/>
      <point x="14" y="624"/>
      <point x="14" y="630" type="curve" smooth="yes"/>
      <point x="14" y="637"/>
      <point x="16" y="644"/>
      <point x="19" y="647" type="curve"/>
      <point x="59" y="646"/>
      <point x="112" y="645"/>
    </contour>
  </outline>
</glyph>
<glyph name="uni0046" format="2">
  <advance width="489"/>
  <unicode hex="0046"/>
  <outline>
    <contour>
      <point x="305" y="323" type="curve" smooth="yes"/>
      <point x="190" y="323" type="line"/>
      <point x="190" y="122" type="line" smooth="yes"/>
      <point x="190" y="39"/>
      <point x="207" y="34"/>
      <point x="277" y="31" type="curve"/>
      <point x="280" y="28"/>
      <point x="282" y="21"/>
      <point x="282" y="14" type="curve" smooth="yes"/>
      <point x="282" y="8"/>
      <point x="280" y="3"/>
      <point x="277" y="0" type="curve"/>
      <point x="265" y="0"/>
      <point x="252" y="0"/>
      <point x="238" y="0" type="curve" smooth="yes"/>
      <point x="210" y="0"/>
      <point x="178" y="0"/>
      <point x="148" y="0" type="curve" smooth="yes"/>
      <point x="103" y="0"/>
      <point x="53" y="-1"/>
      <point x="18" y="-2" type="curve"/>
      <point x="15" y="1"/>
      <point x="14" y="8"/>
      <point x="14" y="14" type="curve" smooth="yes"/>
      <point x="14" y="21"/>
      <point x="15" y="28"/>
      <point x="18" y="31" type="curve"/>
      <point x="88" y="34"/>
      <point x="105" y="39"/>
      <point x="105" y="122" type="curve" smooth="yes"/>
      <point x="105" y="523" type="line" smooth="yes"/>
      <point x="105" y="606"/>
      <point x="88" y="611"/>
      <point x="18" y="614" type="curve"/>
      <point x="15" y="617"/>
      <point x="14" y="624"/>
      <point x="14" y="630" type="curve" smooth="yes"/>
      <point x="14" y="637"/>
      <point x="15" y="644"/>
      <point x="18" y="647" type="curve"/>
      <point x="58" y="646"/>
      <point x="115" y="645"/>
      <point x="147" y="645" type="curve" smooth="yes"/>
      <point x="402" y="645" type="line" smooth="yes"/>
      <point x="427" y="645"/>
      <point x="432" y="646"/>
      <point x="449" y="649" type="curve" smooth="yes"/>
      <point x="452" y="649"/>
      <point x="453" y="648"/>
      <point x="453" y="646" type="curve" smooth="yes"/>
      <point x="455" y="638"/>
      <point x="470" y="542"/>
      <point x="475" y="501" type="curve"/>
      <point x="467" y="498"/>
      <point x="456" y="496"/>
      <point x="444" y="496" type="curve"/>
      <point x="422" y="565"/>
      <point x="397" y="605"/>
      <point x="291" y="605" type="curve" smooth="yes"/>
      <point x="246" y="605" type="line" smooth="yes"/>
      <point x="202" y="605"/>
      <point x="190" y="595"/>
      <point x="190" y="541" type="curve" smooth="yes"/>
      <point x="190" y="361" type="line"/>
      <point x="283" y="361" type="line" smooth="yes"/>
      <point x="368" y="361"/>
      <point x="371" y="374"/>
      <point x="374" y="429" type="curve"/>
      <point x="377" y="432"/>
      <point x="384" y="434"/>
      <point x="390" y="434" type="curve" smooth="yes"/>
      <point x="397" y="434"/>
      <point x="404" y="432"/>
      <point x="407" y="429" type="curve"/>
      <point x="406" y="403"/>
      <point x="405" y="376"/>
      <point x="405" y="343" type="curve" smooth="yes"/>
      <point x="405" y="309"/>
      <point x="406" y="280"/>
      <point x="407" y="255" type="curve"/>
      <point x="404" y="252"/>
      <point x="397" y="250"/>
      <point x="390" y="250" type="curve" smooth="yes"/>
      <point x="384" y="250"/>
      <point x="377" y="252"/>
      <point x="374" y="255" type="curve"/>
      <point x="374" y="258"/>
      <point x="374" y="260"/>
      <point x="373" y="260" type="curve" smooth="yes"/>
      <point x="370" y="260"/>
      <point x="384" y="323"/>
    </contour>
  </outline>
</glyph>
<glyph name="uni0047" format="2">
  <advance width="690"/>
  <unicode hex="0047"/>
  <outline>
    <contour>
      <point x="377" y="658" type="curve" smooth="yes"/>
      <point x="488" y="658"/>
      <point x="525" y="623"/>
      <point x="585" y="613" type="curve"/>
      <point x="601" y="541"/>
      <point x="608" y="501"/>
      <point x="608" y="459" type="curve"/>
      <point x="598" y="455"/>
      <point x="589" y="453"/>
      <point x="579" y="453" type="curve" smooth="yes"/>
      <point x="578" y="453"/>
      <point x="576" y="453"/>
      <point x="575" y="453" type="curve"/>
      <point x="549" y="539"/>
      <point x="508" y="622"/>
      <point x="363" y="622" type="curve" smooth="yes"/>
      <point x="246" y="622"/>
      <point x="133" y="502"/>
      <point x="133" y="327" type="curve" smooth="yes"/>
      <point x="133" y="195"/>
      <point x="217" y="26"/>
      <point x="375" y="26" type="curve" smooth="yes"/>
      <point x="429" y="26"/>
      <point x="496" y="32"/>
      <point x="530" y="64" type="curve"/>
      <point x="530" y="217" type="line" smooth="yes"/>
      <point x="530" y="257"/>
      <point x="503" y="261"/>
      <point x="448" y="265" type="curve"/>
      <point x="445" y="268"/>
      <point x="444" y="276"/>
      <point x="444" y="283" type="curve" smooth="yes"/>
      <point x="444" y="290"/>
      <point x="445" y="298"/>
      <point x="448" y="301" type="curve"/>
      <point x="492" y="300"/>
      <point x="538" y="299"/>
      <point x="572" y="299" type="curve" smooth="yes"/>
      <point x="612" y="299"/>
      <point x="637" y="300"/>
      <point x="661" y="301" type="curve"/>
      <point x="664" y="298"/>
      <point x="666" y="290"/>
      <point x="666" y="283" type="curve" smooth="yes"/>
      <point x="666" y="276"/>
      <point x="664" y="268"/>
      <point x="661" y="265" type="curve"/>
      <point x="632" y="262"/>
      <point x="615" y="252"/>
      <point x="615" y="217" type="curve" smooth="yes"/>
      <point x="615" y="101" type="line" smooth="yes"/>
      <point x="615" y="90"/>
      <point x="620" y="82"/>
      <point x="631" y="73" type="curve"/>
      <point x="563" y="15"/>
      <point x="470" y="-10"/>
      <point x="352" y="-10" type="curve" smooth="yes"/>
      <point x="161" y="-10"/>
      <point x="37" y="127"/>
      <point x="37" y="307" type="curve" smooth="yes"/>
      <point x="37" y="527"/>
      <point x="210" y="658"/>
    </contour>
  </outline>
</glyph>
<glyph name="uni0048" format="2">
  <advance width="728"/>
  <unicode hex="0048"/>
  <outline>
    <contour>
      <point x="618" y="122" type="line" smooth="yes"/>
      <point x="618" y="39"/>
      <point x="635" y="34"/>
      <point x="705" y="31" type="curve"/>
      <point x="708" y="28"/>
      <point x="710" y="21"/>
      <point x="710" y="14" type="curve" smooth="yes"/>
      <point x="710" y="8"/>
      <point x="708" y="1"/>
      <point x="705" y="-2" type="curve"/>
      <point x="661" y="-1"/>
      <point x="613" y="0"/>
      <point x="576" y="0" type="curve" smooth="yes"/>
      <point x="539" y="0"/>
      <point x="491" y="-1"/>
      <point x="446" y="-2" type="curve"/>
      <point x="443" y="1"/>
      <point x="442" y="8"/>
      <point x="442" y="14" type="curve" smooth="yes"/>
      <point x="442" y="21"/>
      <point x="443" y="28"/>
      <point x="446" y="31" type="curve"/>
      <point x="516" y="34"/>
      <point x="533" y="39"/>
      <point x="533" y="122" type="curve" smooth="yes"/>
      <point x="533" y="321" type="line"/>
      <point x="191" y="321" type="line"/>
      <point x="191" y="122" type="line" smooth="yes"/>
      <point x="191" y="39"/>
      <point x="208" y="34"/>
      <point x="278" y="31" type="curve"/>
      <point x="281" y="28"/>
      <point x="282" y="21"/>
      <point x="282" y="14" type="curve" smooth="yes"/>
      <point x="282" y="8"/>
      <point x="281" y="1"/>
      <point x="278" y="-2" type="curve"/>
      <point x="234" y="-1"/>
      <point x="185" y="0"/>
      <point x="149" y="0" type="curve" smooth="yes"/>
      <point x="111" y="0"/>
      <point x="63" y="-1"/>
      <point x="19" y="-2" type="curve"/>
      <point x="16" y="1"/>
      <point x="14" y="8"/>
      <point x="14" y="14" type="curve" smooth="yes"/>
      <point x="14" y="21"/>
      <point x="16" y="28"/>
      <point x="19" y="31" type="curve"/>
      <point x="89" y="34"/>
      <point x="106" y="39"/>
      <point x="106" y="122" type="curve" smooth="yes"/>
      <point x="106" y="523" type="line" smooth="yes"/>
      <point x="106" y="606"/>
      <point x="89" y="611"/>
      <point x="19" y="614" type="curve"/>
      <point x="16" y="617"/>
      <point x="14" y="624"/>
      <point x="14" y="630" type="curve" smooth="yes"/>
      <point x="14" y="637"/>
      <point x="16" y="644"/>
      <point x="19" y="647" type="curve"/>
      <point x="57" y="646"/>
      <point x="98" y="645"/>
      <point x="148" y="645" type="curve" smooth="yes"/>
      <point x="199" y="645"/>
      <point x="240" y="646"/>
      <point x="278" y="647" type="curve"/>
      <point x="281" y="644"/>
      <point x="282" y="637"/>
      <point x="282" y="630" type="curve" smooth="yes"/>
      <point x="282" y="624"/>
      <point x="281" y="617"/>
      <point x="278" y="614" type="curve"/>
      <point x="208" y="611"/>
      <point x="191" y="606"/>
      <point x="191" y="523" type="curve" smooth="yes"/>
      <point x="191" y="363" type="line"/>
      <point x="533" y="363" type="line"/>
      <point x="533" y="523" type="line" smooth="yes"/>
      <point x="533" y="606"/>
      <point x="516" y="611"/>
      <point x="446" y="614" type="curve"/>
      <point x="443" y="617"/>
      <point x="442" y="624"/>
      <point x="442" y="630" type="curve" smooth="yes"/>
      <point x="442" y="637"/>
      <point x="443" y="644"/>
      <point x="446" y="647" type="curve"/>
      <point x="490" y="646"/>
      <point x="538" y="645"/>
      <point x="575" y="645" type="curve" smooth="yes"/>
      <point x="613" y="645"/>
      <point x="664" y="646"/>
      <point x="705" y="647" type="curve"/>
      <point x="708" y="644"/>
      <point x="710" y="637"/>
      <point x="710" y="630" type="curve" smooth="yes"/>
      <point x="710" y="624"/>
      <point x="708" y="617"/>
      <point x="705" y="614" type="curve"/>
      <point x="635" y="611"/>
      <point x="618" y="606"/>
      <point x="618" y="523" type="curve" smooth="yes"/>
    </contour>
  </outline>
</glyph>
<glyph name="uni0049" format="2">
  <advance width="296"/>
  <unicode hex="0049"/>
  <outline>
    <contour>
      <point x="191" y="122" type="line" smooth="yes"/>
      <point x="191" y="39"/>
      <point x="208" y="34"/>
      <point x="278" y="31" type="curve"/>
      <point x="281" y="28"/>
      <point x="282" y="21"/>
      <point x="282" y="14" type="curve" smooth="yes"/>
      <point x="282" y="8"/>
      <point x="281" y="1"/>
      <point x="278" y="-2" type="curve"/>
      <point x="233" y="-1"/>
      <point x="185" y="0"/>
      <point x="149" y="0" type="curve" smooth="yes"/>
      <point x="113" y="0"/>
      <point x="64" y="-1"/>
      <point x="19" y="-2" type="curve"/>
      <point x="16" y="1"/>
      <point x="14" y="8"/>
      <point x="14" y="14" type="curve" smooth="yes"/>
      <point x="14" y="21"/>
      <point x="16" y="28"/>
      <point x="19" y="31" type="curve"/>
      <point x="89" y="34"/>
      <point x="106" y="39"/>
      <point x="106" y="122" type="curve" smooth="yes"/>
      <point x="106" y="523" type="line" smooth="yes"/>
      <point x="106" y="606"/>
      <point x="89" y="611"/>
      <point x="19" y="614" type="curve"/>
      <point x="16" y="617"/>
      <point x="14" y="624"/>
      <point x="14" y="630" type="curve" smooth="yes"/>
      <point x="14" y="637"/>
      <point x="16" y="644"/>
      <point x="19" y="647" type="curve"/>
      <point x="66" y="646"/>
      <point x="114" y="645"/>
      <point x="148" y="645" type="curve" smooth="yes"/>
      <point x="186" y="645"/>
      <point x="234" y="646"/>
      <point x="278" y="647" type="curve"/>
      <point x="281" y="644"/>
      <point x="282" y="637"/>
      <point x="282" y="630" type="curve" smooth="yes"/>
      <point x="282" y="624"/>
      <point x="281" y="617"/>
      <point x="278" y="614" type="curve"/>
      <point x="208" y="611"/>
      <point x="191" y="606"/>
      <point x="191" y="523" type="curve" smooth="yes"/>
    </contour>
  </outline>
</glyph>
<glyph name="uni004A" format="2">
  <advance width="332"/>
  <unicode hex="004A"/>
  <outline>
    <contour>
      <point x="226" y="523" type="curve" smooth="yes"/>
      <point x="226" y="103" type="line" smooth="yes"/>
      <point x="226" y="-40"/>
      <point x="168" y="-92"/>
      <point x="124" y="-129" type="curve" smooth="yes"/>
      <point x="83" y="-164"/>
      <point x="52" y="-172"/>
      <point x="7" y="-172" type="curve" smooth="yes"/>
      <point x="-15" y="-172"/>
      <point x="-68" y="-154"/>
      <point x="-68" y="-118" type="curve" smooth="yes"/>
      <point x="-68" y="-96"/>
      <point x="-38" y="-75"/>
      <point x="-24" y="-75" type="curve" smooth="yes"/>
      <point x="1" y="-75"/>
      <point x="10" y="-88"/>
      <point x="16" y="-100" type="curve" smooth="yes"/>
      <point x="23" y="-115"/>
      <point x="37" y="-127"/>
      <point x="56" y="-127" type="curve" smooth="yes"/>
      <point x="89" y="-127"/>
      <point x="141" y="-99"/>
      <point x="141" y="81" type="curve" smooth="yes"/>
      <point x="141" y="523" type="line" smooth="yes"/>
      <point x="141" y="606"/>
      <point x="124" y="611"/>
      <point x="44" y="614" type="curve"/>
      <point x="41" y="617"/>
      <point x="40" y="624"/>
      <point x="40" y="630" type="curve" smooth="yes"/>
      <point x="40" y="637"/>
      <point x="41" y="644"/>
      <point x="44" y="647" type="curve"/>
      <point x="94" y="646"/>
      <point x="147" y="645"/>
      <point x="183" y="645" type="curve" smooth="yes"/>
      <point x="222" y="645"/>
      <point x="265" y="646"/>
      <point x="303" y="647" type="curve"/>
      <point x="306" y="644"/>
      <point x="308" y="637"/>
      <point x="308" y="630" type="curve" smooth="yes"/>
      <point x="308" y="624"/>
      <point x="306" y="617"/>
      <point x="303" y="614" type="curve"/>
      <point x="243" y="611"/>
      <point x="226" y="606"/>
    </contour>
  </outline>
</glyph>
<glyph name="uni004B" format="2">
  <advance width="646"/>
  <unicode hex="004B"/>
  <outline>
    <contour>
      <point x="191" y="122" type="line" smooth="yes"/>
      <point x="191" y="39"/>
      <point x="208" y="34"/>
      <point x="278" y="31" type="curve"/>
      <point x="281" y="28"/>
      <point x="282" y="21"/>
      <point x="282" y="14" type="curve" smooth="yes"/>
      <point x="282" y="8"/>
      <point x="281" y="3"/>
      <point x="278" y="0" type="curve"/>
      <point x="263" y="0"/>
      <point x="248" y="0"/>
      <point x="233" y="0" type="curve" smooth="yes"/>
      <point x="203" y="0"/>
      <point x="174" y="0"/>
      <point x="149" y="0" type="curve" smooth="yes"/>
      <point x="110" y="0"/>
      <point x="64" y="-1"/>
      <point x="19" y="-2" type="curve"/>
      <point x="16" y="1"/>
      <point x="14" y="8"/>
      <point x="14" y="14" type="curve" smooth="yes"/>
      <point x="14" y="21"/>
      <point x="16" y="28"/>
      <point x="19" y="31" type="curve"/>
      <point x="89" y="34"/>
      <point x="106" y="39"/>
      <point x="106" y="122" type="curve" smooth="yes"/>
      <point x="106" y="523" type="line" smooth="yes"/>
      <point x="106" y="606"/>
      <point x="89" y="611"/>
      <point x="19" y="614" type="curve"/>
      <point x="16" y="617"/>
      <point x="14" y="624"/>
      <point x="14" y="630" type="curve" smooth="yes"/>
      <point x="14" y="637"/>
      <point x="16" y="644"/>
      <point x="19" y="647" type="curve"/>
      <point x="64" y="646"/>
      <point x="110" y="645"/>
      <point x="148" y="645" type="curve" smooth="yes"/>
      <point x="184" y="645"/>
      <point x="232" y="646"/>
      <point x="278" y="647" type="curve"/>
      <point x="281" y="644"/>
      <point x="282" y="637"/>
      <point x="282" y="630" type="curve" smooth="yes"/>
      <point x="282" y="624"/>
      <point x="281" y="617"/>
      <point x="278" y="614" type="curve"/>
      <point x="208" y="611"/>
      <point x="191" y="606"/>
      <point x="191" y="523" type="curve" smooth="yes"/>
      <point x="191" y="347" type="line"/>
      <point x="226" y="350"/>
      <point x="249" y="363"/>
      <point x="270" y="386" type="curve" smooth="yes"/>
      <point x="435" y="562" type="line" smooth="yes"/>
      <point x="449" y="577"/>
      <point x="454" y="587"/>
      <point x="454" y="594" type="curve" smooth="yes"/>
      <point x="454" y="609"/>
      <point x="431" y="612"/>
      <point x="407" y="614" type="curve"/>
      <point x="404" y="617"/>
      <point x="402" y="624"/>
      <point x="402" y="630" type="curve" smooth="yes"/>
      <point x="402" y="637"/>
      <point x="404" y="644"/>
      <point x="407" y="647" type="curve"/>
      <point x="444" y="646"/>
      <point x="483" y="645"/>
      <point x="520" y="645" type="curve" smooth="yes"/>
      <point x="552" y="645"/>
      <point x="584" y="646"/>
      <point x="615" y="647" type="curve"/>
      <point x="618" y="644"/>
      <point x="620" y="637"/>
      <point x="620" y="630" type="curve" smooth="yes"/>
      <point x="620" y="624"/>
      <point x="618" y="617"/>
      <point x="615" y="614" type="curve"/>
      <point x="575" y="611"/>
      <point x="535" y="607"/>
      <point x="489" y="558" type="curve"/>
      <point x="342" y="407" type="line" smooth="yes"/>
      <point x="308" y="372"/>
      <point x="307" y="365"/>
      <point x="307" y="358" type="curve" smooth="yes"/>
      <point x="307" y="350"/>
      <point x="312" y="342"/>
      <point x="320" y="333" type="curve" smooth="yes"/>
      <point x="539" y="73" type="line" smooth="yes"/>
      <point x="570" y="37"/>
      <point x="598" y="34"/>
      <point x="627" y="31" type="curve"/>
      <point x="630" y="28"/>
      <point x="632" y="21"/>
      <point x="632" y="14" type="curve" smooth="yes"/>
      <point x="632" y="8"/>
      <point x="630" y="1"/>
      <point x="627" y="-2" type="curve"/>
      <point x="594" y="-1"/>
      <point x="560" y="0"/>
      <point x="526" y="0" type="curve" smooth="yes"/>
      <point x="505" y="0"/>
      <point x="492" y="-1"/>
      <point x="472" y="-2" type="curve" smooth="yes"/>
      <point x="468" y="-2"/>
      <point x="467" y="1"/>
      <point x="467" y="4" type="curve" smooth="yes"/>
      <point x="465" y="20"/>
      <point x="451" y="47"/>
      <point x="431" y="73" type="curve" smooth="yes"/>
      <point x="274" y="271" type="line" smooth="yes"/>
      <point x="254" y="297"/>
      <point x="225" y="308"/>
      <point x="191" y="309" type="curve"/>
    </contour>
  </outline>
</glyph>
<glyph name="uni004C" format="2">
  <advance width="521"/>
  <unicode hex="004C"/>
  <outline>
    <contour>
      <point x="149" y="0" type="line" smooth="yes"/>
      <point x="115" y="0"/>
      <point x="58" y="-1"/>
      <point x="19" y="-2" type="curve"/>
      <point x="16" y="1"/>
      <point x="14" y="8"/>
      <point x="14" y="14" type="curve" smooth="yes"/>
      <point x="14" y="21"/>
      <point x="16" y="28"/>
      <point x="19" y="31" type="curve"/>
      <point x="89" y="34"/>
      <point x="106" y="39"/>
      <point x="106" y="122" type="curve" smooth="yes"/>
      <point x="106" y="523" type="line" smooth="yes"/>
      <point x="106" y="606"/>
      <point x="89" y="611"/>
      <point x="19" y="614" type="curve"/>
      <point x="16" y="617"/>
      <point x="14" y="624"/>
      <point x="14" y="630" type="curve" smooth="yes"/>
      <point x="14" y="637"/>
      <point x="16" y="644"/>
      <point x="19" y="647" type="curve"/>
      <point x="65" y="646"/>
      <point x="112" y="645"/>
      <point x="148" y="645" type="curve" smooth="yes"/>
      <point x="186" y="645"/>
      <point x="233" y="646"/>
      <point x="278" y="647" type="curve"/>
      <point x="281" y="644"/>
      <point x="282" y="637"/>
      <point x="282" y="630" type="curve" smooth="yes"/>
      <point x="282" y="624"/>
      <point x="281" y="617"/>
      <point x="278" y="614" type="curve"/>
      <point x="208" y="611"/>
      <point x="191" y="606"/>
      <point x="191" y="523" type="curve" smooth="yes"/>
      <point x="191" y="109" type="line" smooth="yes"/>
      <point x="191" y="58"/>
      <point x="209" y="39"/>
      <point x="248" y="39" type="curve" smooth="yes"/>
      <point x="311" y="39" type="line" smooth="yes"/>
      <point x="417" y="39"/>
      <point x="454" y="98"/>
      <point x="474" y="170" type="curve"/>
      <point x="477" y="170"/>
      <point x="480" y="171"/>
      <point x="483" y="171" type="curve" smooth="yes"/>
      <point x="492" y="171"/>
      <point x="500" y="169"/>
      <point x="507" y="165" type="curve"/>
      <point x="501" y="113"/>
      <point x="491" y="48"/>
      <point x="481" y="-2" type="curve"/>
      <point x="481" y="-2"/>
      <point x="389" y="0"/>
      <point x="362" y="0" type="curve" smooth="yes"/>
    </contour>
  </outline>
</glyph>
<glyph name="uni004D" format="2">
  <advance width="836"/>
  <unicode hex="004D"/>
  <outline>
    <contour>
      <point x="660" y="198" type="curve" smooth="yes"/>
      <point x="637" y="534" type="line"/>
      <point x="635" y="534" type="line"/>
      <point x="410" y="5" type="line" smooth="yes"/>
      <point x="406" y="-3"/>
      <point x="402" y="-10"/>
      <point x="396" y="-10" type="curve" smooth="yes"/>
      <point x="390" y="-10"/>
      <point x="384" y="-2"/>
      <point x="381" y="5" type="curve" smooth="yes"/>
      <point x="174" y="524" type="line"/>
      <point x="172" y="524" type="line"/>
      <point x="134" y="123" type="line" smooth="yes"/>
      <point x="133" y="113"/>
      <point x="132" y="104"/>
      <point x="132" y="95" type="curve" smooth="yes"/>
      <point x="132" y="57"/>
      <point x="146" y="35"/>
      <point x="200" y="31" type="curve"/>
      <point x="203" y="28"/>
      <point x="204" y="21"/>
      <point x="204" y="14" type="curve" smooth="yes"/>
      <point x="204" y="8"/>
      <point x="203" y="3"/>
      <point x="200" y="0" type="curve"/>
      <point x="190" y="0"/>
      <point x="179" y="0"/>
      <point x="168" y="0" type="curve" smooth="yes"/>
      <point x="145" y="0"/>
      <point x="122" y="0"/>
      <point x="106" y="0" type="curve" smooth="yes"/>
      <point x="82" y="0"/>
      <point x="50" y="-1"/>
      <point x="20" y="-2" type="curve"/>
      <point x="17" y="1"/>
      <point x="16" y="8"/>
      <point x="16" y="14" type="curve" smooth="yes"/>
      <point x="16" y="21"/>
      <point x="17" y="28"/>
      <point x="20" y="31" type="curve"/>
      <point x="77" y="36"/>
      <point x="89" y="61"/>
      <point x="95" y="121" type="curve" smooth="yes"/>
      <point x="135" y="533" type="line" smooth="yes"/>
      <point x="136" y="548"/>
      <point x="137" y="560"/>
      <point x="137" y="569" type="curve" smooth="yes"/>
      <point x="137" y="609"/>
      <point x="123" y="611"/>
      <point x="67" y="614" type="curve"/>
      <point x="64" y="617"/>
      <point x="62" y="624"/>
      <point x="62" y="630" type="curve" smooth="yes"/>
      <point x="62" y="637"/>
      <point x="64" y="644"/>
      <point x="67" y="647" type="curve"/>
      <point x="212" y="645" type="line"/>
      <point x="417" y="137" type="line" smooth="yes"/>
      <point x="420" y="129"/>
      <point x="423" y="124"/>
      <point x="425" y="124" type="curve" smooth="yes"/>
      <point x="427" y="124"/>
      <point x="430" y="128"/>
      <point x="434" y="138" type="curve" smooth="yes"/>
      <point x="646" y="645" type="line"/>
      <point x="777" y="647" type="line"/>
      <point x="780" y="644"/>
      <point x="782" y="637"/>
      <point x="782" y="630" type="curve" smooth="yes"/>
      <point x="782" y="624"/>
      <point x="780" y="617"/>
      <point x="777" y="614" type="curve"/>
      <point x="720" y="611"/>
      <point x="707" y="600"/>
      <point x="707" y="565" type="curve" smooth="yes"/>
      <point x="707" y="558"/>
      <point x="708" y="551"/>
      <point x="708" y="542" type="curve" smooth="yes"/>
      <point x="738" y="121" type="line" smooth="yes"/>
      <point x="744" y="38"/>
      <point x="747" y="34"/>
      <point x="815" y="31" type="curve"/>
      <point x="818" y="28"/>
      <point x="820" y="21"/>
      <point x="820" y="14" type="curve" smooth="yes"/>
      <point x="820" y="8"/>
      <point x="818" y="1"/>
      <point x="815" y="-2" type="curve"/>
      <point x="782" y="-1"/>
      <point x="736" y="0"/>
      <point x="706" y="0" type="curve" smooth="yes"/>
      <point x="676" y="0"/>
      <point x="636" y="-1"/>
      <point x="599" y="-2" type="curve"/>
      <point x="596" y="1"/>
      <point x="594" y="8"/>
      <point x="594" y="14" type="curve" smooth="yes"/>
      <point x="594" y="21"/>
      <point x="596" y="28"/>
      <point x="599" y="31" type="curve"/>
      <point x="652" y="33"/>
      <point x="664" y="35"/>
      <point x="664" y="79" type="curve" smooth="yes"/>
      <point x="664" y="89"/>
      <point x="660" y="184"/>
    </contour>
  </outline>
</glyph>
<glyph name="uni004E" format="2">
  <advance width="708"/>
  <unicode hex="004E"/>
  <outline>
    <contour>
      <point x="554" y="514" type="line" smooth="yes"/>
      <point x="554" y="606"/>
      <point x="539" y="607"/>
      <point x="469" y="614" type="curve"/>
      <point x="466" y="617"/>
      <point x="464" y="624"/>
      <point x="464" y="630" type="curve" smooth="yes"/>
      <point x="464" y="637"/>
      <point x="466" y="644"/>
      <point x="469" y="647" type="curve"/>
      <point x="513" y="646"/>
      <point x="559" y="645"/>
      <point x="580" y="645" type="curve" smooth="yes"/>
      <point x="604" y="645"/>
      <point x="651" y="646"/>
      <point x="692" y="647" type="curve"/>
      <point x="695" y="644"/>
      <point x="696" y="637"/>
      <point x="696" y="630" type="curve" smooth="yes"/>
      <point x="696" y="624"/>
      <point x="695" y="617"/>
      <point x="692" y="614" type="curve"/>
      <point x="622" y="607"/>
      <point x="605" y="601"/>
      <point x="605" y="512" type="curve" smooth="yes"/>
      <point x="605" y="21" type="line" smooth="yes"/>
      <point x="605" y="2"/>
      <point x="596" y="-10"/>
      <point x="582" y="-10" type="curve" smooth="yes"/>
      <point x="566" y="-10"/>
      <point x="553" y="-1"/>
      <point x="542" y="14" type="curve" smooth="yes"/>
      <point x="193" y="455" type="line" smooth="yes"/>
      <point x="176" y="477"/>
      <point x="165" y="488"/>
      <point x="159" y="488" type="curve" smooth="yes"/>
      <point x="151" y="488"/>
      <point x="151" y="473"/>
      <point x="151" y="439" type="curve" smooth="yes"/>
      <point x="151" y="133" type="line" smooth="yes"/>
      <point x="151" y="42"/>
      <point x="168" y="38"/>
      <point x="238" y="31" type="curve"/>
      <point x="241" y="28"/>
      <point x="242" y="21"/>
      <point x="242" y="14" type="curve" smooth="yes"/>
      <point x="242" y="8"/>
      <point x="241" y="3"/>
      <point x="238" y="0" type="curve"/>
      <point x="224" y="0"/>
      <point x="210" y="0"/>
      <point x="196" y="0" type="curve" smooth="yes"/>
      <point x="168" y="0"/>
      <point x="142" y="0"/>
      <point x="127" y="0" type="curve" smooth="yes"/>
      <point x="111" y="0"/>
      <point x="86" y="0"/>
      <point x="58" y="0" type="curve" smooth="yes"/>
      <point x="44" y="0"/>
      <point x="29" y="0"/>
      <point x="15" y="0" type="curve"/>
      <point x="12" y="3"/>
      <point x="10" y="8"/>
      <point x="10" y="14" type="curve" smooth="yes"/>
      <point x="10" y="21"/>
      <point x="12" y="28"/>
      <point x="15" y="31" type="curve"/>
      <point x="85" y="38"/>
      <point x="102" y="44"/>
      <point x="102" y="133" type="curve" smooth="yes"/>
      <point x="102" y="550" type="line"/>
      <point x="96" y="576"/>
      <point x="66" y="611"/>
      <point x="23" y="614" type="curve"/>
      <point x="20" y="617"/>
      <point x="18" y="624"/>
      <point x="18" y="630" type="curve" smooth="yes"/>
      <point x="18" y="637"/>
      <point x="20" y="644"/>
      <point x="23" y="647" type="curve"/>
      <point x="158" y="645" type="line"/>
      <point x="501" y="210" type="line" smooth="yes"/>
      <point x="530" y="173"/>
      <point x="545" y="155"/>
      <point x="549" y="155" type="curve" smooth="yes"/>
      <point x="556" y="155"/>
      <point x="556" y="166"/>
      <point x="556" y="185" type="curve" smooth="yes"/>
    </contour>
  </outline>
</glyph>
<glyph name="uni004F" format="2">
  <advance width="694"/>
  <unicode hex="004F"/>
  <outline>
    <contour>
      <point x="331" y="622" type="curve" smooth="yes"/>
      <point x="232" y="622"/>
      <point x="133" y="537"/>
      <point x="133" y="327" type="curve" smooth="yes"/>
      <point x="133" y="135"/>
      <point x="248" y="26"/>
      <point x="370" y="26" type="curve" smooth="yes"/>
      <point x="484" y="26"/>
      <point x="570" y="131"/>
      <point x="570" y="310" type="curve" smooth="yes"/>
      <point x="570" y="512"/>
      <point x="463" y="622"/>
    </contour>
    <contour>
      <point x="666" y="329" type="curve" smooth="yes"/>
      <point x="666" y="131"/>
      <point x="541" y="-10"/>
      <point x="350" y="-10" type="curve" smooth="yes"/>
      <point x="180" y="-10"/>
      <point x="37" y="113"/>
      <point x="37" y="310" type="curve" smooth="yes"/>
      <point x="37" y="504"/>
      <point x="150" y="658"/>
      <point x="344" y="658" type="curve" smooth="yes"/>
      <point x="523" y="658"/>
      <point x="666" y="536"/>
    </contour>
  </outline>
</glyph>
<glyph name="uni0050" format="2">
  <advance width="527"/>
  <unicode hex="0050"/>
  <outline>
    <contour>
      <point x="189" y="554" type="curve" smooth="yes"/>
      <point x="189" y="321" type="line"/>
      <point x="200" y="318"/>
      <point x="240" y="316"/>
      <point x="265" y="316" type="curve" smooth="yes"/>
      <point x="362" y="316"/>
      <point x="414" y="360"/>
      <point x="414" y="468" type="curve" smooth="yes"/>
      <point x="414" y="595"/>
      <point x="345" y="618"/>
      <point x="276" y="618" type="curve" smooth="yes"/>
      <point x="204" y="618"/>
      <point x="189" y="583"/>
    </contour>
    <contour>
      <point x="104" y="523" type="line" smooth="yes"/>
      <point x="104" y="606"/>
      <point x="87" y="611"/>
      <point x="17" y="614" type="curve"/>
      <point x="14" y="617"/>
      <point x="12" y="624"/>
      <point x="12" y="630" type="curve" smooth="yes"/>
      <point x="12" y="637"/>
      <point x="14" y="644"/>
      <point x="17" y="647" type="curve"/>
      <point x="57" y="646"/>
      <point x="109" y="645"/>
      <point x="146" y="645" type="curve" smooth="yes"/>
      <point x="186" y="645"/>
      <point x="245" y="652"/>
      <point x="283" y="652" type="curve" smooth="yes"/>
      <point x="468" y="652"/>
      <point x="507" y="545"/>
      <point x="507" y="486" type="curve" smooth="yes"/>
      <point x="507" y="401"/>
      <point x="452" y="282"/>
      <point x="270" y="282" type="curve" smooth="yes"/>
      <point x="235" y="282"/>
      <point x="211" y="285"/>
      <point x="189" y="292" type="curve"/>
      <point x="189" y="122" type="line" smooth="yes"/>
      <point x="189" y="39"/>
      <point x="213" y="35"/>
      <point x="291" y="31" type="curve"/>
      <point x="294" y="28"/>
      <point x="296" y="21"/>
      <point x="296" y="14" type="curve" smooth="yes"/>
      <point x="296" y="8"/>
      <point x="294" y="3"/>
      <point x="291" y="0" type="curve"/>
      <point x="274" y="0"/>
      <point x="257" y="0"/>
      <point x="239" y="0" type="curve" smooth="yes"/>
      <point x="204" y="0"/>
      <point x="170" y="0"/>
      <point x="147" y="0" type="curve" smooth="yes"/>
      <point x="111" y="0"/>
      <point x="62" y="-1"/>
      <point x="17" y="-2" type="curve"/>
      <point x="14" y="1"/>
      <point x="12" y="8"/>
      <point x="12" y="14" type="curve" smooth="yes"/>
      <point x="12" y="21"/>
      <point x="14" y="28"/>
      <point x="17" y="31" type="curve"/>
      <point x="87" y="34"/>
      <point x="104" y="39"/>
      <point x="104" y="122" type="curve" smooth="yes"/>
    </contour>
  </outline>
</glyph>
<glyph name="uni0051" format="2">
  <advance width="703"/>
  <unicode hex="0051"/>
  <outline>
    <contour>
      <point x="331" y="622" type="curve" smooth="yes"/>
      <point x="232" y="622"/>
      <point x="133" y="537"/>
      <point x="133" y="327" type="curve" smooth="yes"/>
      <point x="133" y="135"/>
      <point x="248" y="26"/>
      <point x="370" y="26" type="curve" smooth="yes"/>
      <point x="484" y="26"/>
      <point x="570" y="131"/>
      <point x="570" y="310" type="curve" smooth="yes"/>
      <point x="570" y="512"/>
      <point x="463" y="622"/>
    </contour>
    <contour>
      <point x="666" y="329" type="curve" smooth="yes"/>
      <point x="666" y="148"/>
      <point x="564" y="21"/>
      <point x="409" y="-5" type="curve"/>
      <point x="377" y="-14"/>
      <point x="328" y="-35"/>
      <point x="278" y="-72" type="curve"/>
      <point x="285" y="-70"/>
      <point x="292" y="-70"/>
      <point x="298" y="-70" type="curve" smooth="yes"/>
      <point x="356" y="-70"/>
      <point x="406" y="-92"/>
      <point x="452" y="-114" type="curve" smooth="yes"/>
      <point x="495" y="-134"/>
      <point x="535" y="-152"/>
      <point x="577" y="-152" type="curve" smooth="yes"/>
      <point x="606" y="-152"/>
      <point x="642" y="-142"/>
      <point x="664" y="-115" type="curve"/>
      <point x="681" y="-127" type="line"/>
      <point x="642" y="-183"/>
      <point x="600" y="-209"/>
      <point x="537" y="-209" type="curve" smooth="yes"/>
      <point x="466" y="-209"/>
      <point x="416" y="-182"/>
      <point x="369" y="-155" type="curve" smooth="yes"/>
      <point x="330" y="-133"/>
      <point x="294" y="-114"/>
      <point x="251" y="-114" type="curve" smooth="yes"/>
      <point x="243" y="-114"/>
      <point x="230" y="-117"/>
      <point x="216" y="-127" type="curve"/>
      <point x="202" y="-141"/>
      <point x="190" y="-156"/>
      <point x="178" y="-173" type="curve"/>
      <point x="139" y="-153" type="line"/>
      <point x="144" y="-145"/>
      <point x="150" y="-137"/>
      <point x="157" y="-130" type="curve" smooth="yes"/>
      <point x="192" y="-87"/>
      <point x="248" y="-40"/>
      <point x="309" y="-8" type="curve"/>
      <point x="158" y="10"/>
      <point x="37" y="129"/>
      <point x="37" y="310" type="curve" smooth="yes"/>
      <point x="37" y="504"/>
      <point x="150" y="658"/>
      <point x="344" y="658" type="curve" smooth="yes"/>
      <point x="523" y="658"/>
      <point x="666" y="536"/>
    </contour>
  </outline>
</glyph>
<glyph name="uni0052" format="2">
  <advance width="607"/>
  <unicode hex="0052"/>
  <outline>
    <contour>
      <point x="272" y="618" type="curve" smooth="yes"/>
      <point x="201" y="618"/>
      <point x="189" y="583"/>
      <point x="189" y="554" type="curve" smooth="yes"/>
      <point x="189" y="325" type="line"/>
      <point x="237" y="325" type="line" smooth="yes"/>
      <point x="334" y="325"/>
      <point x="405" y="353"/>
      <point x="405" y="478" type="curve" smooth="yes"/>
      <point x="405" y="596"/>
      <point x="333" y="618"/>
    </contour>
    <contour>
      <point x="189" y="122" type="line" smooth="yes"/>
      <point x="189" y="39"/>
      <point x="206" y="34"/>
      <point x="276" y="31" type="curve"/>
      <point x="279" y="28"/>
      <point x="280" y="21"/>
      <point x="280" y="14" type="curve" smooth="yes"/>
      <point x="280" y="8"/>
      <point x="279" y="1"/>
      <point x="276" y="-2" type="curve"/>
      <point x="232" y="-1"/>
      <point x="185" y="0"/>
      <point x="147" y="0" type="curve" smooth="yes"/>
      <point x="108" y="0"/>
      <point x="62" y="-1"/>
      <point x="17" y="-2" type="curve"/>
      <point x="14" y="1"/>
      <point x="12" y="8"/>
      <point x="12" y="14" type="curve" smooth="yes"/>
      <point x="12" y="21"/>
      <point x="14" y="28"/>
      <point x="17" y="31" type="curve"/>
      <point x="87" y="34"/>
      <point x="104" y="39"/>
      <point x="104" y="122" type="curve" smooth="yes"/>
      <point x="104" y="523" type="line" smooth="yes"/>
      <point x="104" y="606"/>
      <point x="87" y="611"/>
      <point x="17" y="614" type="curve"/>
      <point x="14" y="617"/>
      <point x="12" y="624"/>
      <point x="12" y="630" type="curve" smooth="yes"/>
      <point x="12" y="637"/>
      <point x="14" y="644"/>
      <point x="17" y="647" type="curve"/>
      <point x="64" y="646"/>
      <point x="111" y="645"/>
      <point x="146" y="645" type="curve" smooth="yes"/>
      <point x="182" y="645"/>
      <point x="224" y="652"/>
      <point x="271" y="652" type="curve" smooth="yes"/>
      <point x="334" y="652"/>
      <point x="396" y="649"/>
      <point x="444" y="604" type="curve" smooth="yes"/>
      <point x="480" y="570"/>
      <point x="497" y="529"/>
      <point x="497" y="479" type="curve" smooth="yes"/>
      <point x="497" y="374"/>
      <point x="407" y="322"/>
      <point x="364" y="308" type="curve"/>
      <point x="490" y="98" type="line" smooth="yes"/>
      <point x="516" y="55"/>
      <point x="541" y="21"/>
      <point x="586" y="21" type="curve"/>
      <point x="588" y="17"/>
      <point x="589" y="12"/>
      <point x="589" y="7" type="curve" smooth="yes"/>
      <point x="589" y="4"/>
      <point x="589" y="0"/>
      <point x="587" y="-3" type="curve"/>
      <point x="577" y="-8"/>
      <point x="560" y="-10"/>
      <point x="545" y="-10" type="curve" smooth="yes"/>
      <point x="485" y="-10"/>
      <point x="442" y="32"/>
      <point x="413" y="79" type="curve" smooth="yes"/>
      <point x="306" y="253" type="line" smooth="yes"/>
      <point x="292" y="276"/>
      <point x="273" y="291"/>
      <point x="189" y="291" type="curve"/>
    </contour>
  </outline>
</glyph>
<glyph name="uni0053" format="2">
  <advance width="471"/>
  <unicode hex="0053"/>
  <outline>
    <contour>
      <point x="392" y="633" type="curve"/>
      <point x="402" y="580"/>
      <point x="409" y="550"/>
      <point x="412" y="502" type="curve"/>
      <point x="406" y="497"/>
      <point x="398" y="495"/>
      <point x="390" y="495" type="curve" smooth="yes"/>
      <point x="386" y="495"/>
      <point x="383" y="495"/>
      <point x="380" y="496" type="curve"/>
      <point x="360" y="562"/>
      <point x="329" y="624"/>
      <point x="232" y="624" type="curve" smooth="yes"/>
      <point x="173" y="624"/>
      <point x="122" y="568"/>
      <point x="122" y="512" type="curve" smooth="yes"/>
      <point x="122" y="428"/>
      <point x="222" y="390"/>
      <point x="282" y="368" type="curve" smooth="yes"/>
      <point x="364" y="337"/>
      <point x="444" y="290"/>
      <point x="444" y="184" type="curve" smooth="yes"/>
      <point x="444" y="120"/>
      <point x="408" y="59"/>
      <point x="350" y="23" type="curve" smooth="yes"/>
      <point x="315" y="1"/>
      <point x="272" y="-10"/>
      <point x="227" y="-10" type="curve" smooth="yes"/>
      <point x="138" y="-10"/>
      <point x="110" y="13"/>
      <point x="47" y="13" type="curve"/>
      <point x="35" y="62"/>
      <point x="31" y="88"/>
      <point x="27" y="165" type="curve"/>
      <point x="33" y="168"/>
      <point x="39" y="170"/>
      <point x="46" y="170" type="curve" smooth="yes"/>
      <point x="51" y="170"/>
      <point x="55" y="169"/>
      <point x="60" y="168" type="curve"/>
      <point x="82" y="68"/>
      <point x="142" y="26"/>
      <point x="235" y="26" type="curve" smooth="yes"/>
      <point x="315" y="26"/>
      <point x="360" y="68"/>
      <point x="360" y="149" type="curve" smooth="yes"/>
      <point x="360" y="247"/>
      <point x="286" y="275"/>
      <point x="226" y="298" type="curve" smooth="yes"/>
      <point x="138" y="332"/>
      <point x="51" y="380"/>
      <point x="51" y="485" type="curve" smooth="yes"/>
      <point x="51" y="591"/>
      <point x="140" y="658"/>
      <point x="241" y="658" type="curve" smooth="yes"/>
      <point x="339" y="658"/>
      <point x="334" y="641"/>
    </contour>
  </outline>
</glyph>
<glyph name="uni0054" format="2">
  <advance width="595"/>
  <unicode hex="0054"/>
  <outline>
    <contour>
      <point x="352" y="124" type="line" smooth="yes"/>
      <point x="352" y="40"/>
      <point x="367" y="34"/>
      <point x="447" y="31" type="curve"/>
      <point x="450" y="28"/>
      <point x="452" y="21"/>
      <point x="452" y="14" type="curve" smooth="yes"/>
      <point x="452" y="8"/>
      <point x="450" y="3"/>
      <point x="447" y="0" type="curve"/>
      <point x="430" y="0"/>
      <point x="414" y="0"/>
      <point x="397" y="0" type="curve" smooth="yes"/>
      <point x="364" y="0"/>
      <point x="333" y="0"/>
      <point x="308" y="0" type="curve" smooth="yes"/>
      <point x="268" y="0"/>
      <point x="217" y="-1"/>
      <point x="168" y="-2" type="curve"/>
      <point x="165" y="1"/>
      <point x="164" y="8"/>
      <point x="164" y="14" type="curve" smooth="yes"/>
      <point x="164" y="21"/>
      <point x="165" y="28"/>
      <point x="168" y="31" type="curve"/>
      <point x="248" y="34"/>
      <point x="265" y="39"/>
      <point x="265" y="122" type="curve" smooth="yes"/>
      <point x="265" y="507" type="line" smooth="yes"/>
      <point x="265" y="568"/>
      <point x="255" y="606"/>
      <point x="218" y="606" type="curve" smooth="yes"/>
      <point x="169" y="606" type="line" smooth="yes"/>
      <point x="103" y="606"/>
      <point x="57" y="580"/>
      <point x="37" y="500" type="curve"/>
      <point x="25" y="500"/>
      <point x="13" y="501"/>
      <point x="3" y="505" type="curve"/>
      <point x="14" y="553"/>
      <point x="24" y="605"/>
      <point x="28" y="650" type="curve" smooth="yes"/>
      <point x="28" y="651"/>
      <point x="30" y="653"/>
      <point x="32" y="653" type="curve" smooth="yes"/>
      <point x="70" y="650"/>
      <point x="188" y="645"/>
      <point x="265" y="645" type="curve" smooth="yes"/>
      <point x="351" y="645" type="line" smooth="yes"/>
      <point x="430" y="645"/>
      <point x="541" y="650"/>
      <point x="575" y="653" type="curve" smooth="yes"/>
      <point x="576" y="653"/>
      <point x="578" y="651"/>
      <point x="578" y="650" type="curve" smooth="yes"/>
      <point x="579" y="605"/>
      <point x="584" y="554"/>
      <point x="591" y="508" type="curve"/>
      <point x="582" y="504"/>
      <point x="568" y="503"/>
      <point x="557" y="503" type="curve"/>
      <point x="540" y="580"/>
      <point x="493" y="606"/>
      <point x="418" y="606" type="curve" smooth="yes"/>
      <point x="396" y="606" type="line" smooth="yes"/>
      <point x="360" y="606"/>
      <point x="350" y="568"/>
      <point x="350" y="504" type="curve" smooth="yes"/>
    </contour>
  </outline>
</glyph>
<glyph name="uni0055" format="2">
  <advance width="662"/>
  <unicode hex="0055"/>
  <outline>
    <contour>
      <point x="172" y="523" type="curve" smooth="yes"/>
      <point x="172" y="266" type="line" smooth="yes"/>
      <point x="172" y="201"/>
      <point x="174" y="125"/>
      <point x="223" y="78" type="curve" smooth="yes"/>
      <point x="253" y="49"/>
      <point x="294" y="31"/>
      <point x="342" y="31" type="curve" smooth="yes"/>
      <point x="511" y="31"/>
      <point x="526" y="165"/>
      <point x="526" y="277" type="curve" smooth="yes"/>
      <point x="526" y="523" type="line" smooth="yes"/>
      <point x="526" y="604"/>
      <point x="509" y="607"/>
      <point x="434" y="614" type="curve"/>
      <point x="431" y="617"/>
      <point x="430" y="624"/>
      <point x="430" y="630" type="curve" smooth="yes"/>
      <point x="430" y="637"/>
      <point x="431" y="644"/>
      <point x="434" y="647" type="curve"/>
      <point x="449" y="647"/>
      <point x="465" y="647"/>
      <point x="480" y="647" type="curve" smooth="yes"/>
      <point x="509" y="647"/>
      <point x="535" y="647"/>
      <point x="550" y="647" type="curve" smooth="yes"/>
      <point x="565" y="647"/>
      <point x="589" y="647"/>
      <point x="614" y="647" type="curve" smooth="yes"/>
      <point x="626" y="647"/>
      <point x="639" y="647"/>
      <point x="652" y="647" type="curve"/>
      <point x="655" y="644"/>
      <point x="656" y="637"/>
      <point x="656" y="630" type="curve" smooth="yes"/>
      <point x="656" y="624"/>
      <point x="655" y="617"/>
      <point x="652" y="614" type="curve"/>
      <point x="592" y="607"/>
      <point x="575" y="603"/>
      <point x="575" y="523" type="curve" smooth="yes"/>
      <point x="575" y="295" type="line" smooth="yes"/>
      <point x="575" y="117"/>
      <point x="526" y="-10"/>
      <point x="321" y="-10" type="curve" smooth="yes"/>
      <point x="218" y="-10"/>
      <point x="87" y="29"/>
      <point x="87" y="233" type="curve" smooth="yes"/>
      <point x="87" y="523" type="line" smooth="yes"/>
      <point x="87" y="606"/>
      <point x="70" y="611"/>
      <point x="10" y="614" type="curve"/>
      <point x="7" y="617"/>
      <point x="6" y="624"/>
      <point x="6" y="630" type="curve" smooth="yes"/>
      <point x="6" y="637"/>
      <point x="7" y="644"/>
      <point x="10" y="647" type="curve"/>
      <point x="49" y="646"/>
      <point x="90" y="645"/>
      <point x="129" y="645" type="curve" smooth="yes"/>
      <point x="168" y="645"/>
      <point x="217" y="646"/>
      <point x="264" y="647" type="curve"/>
      <point x="267" y="644"/>
      <point x="268" y="637"/>
      <point x="268" y="630" type="curve" smooth="yes"/>
      <point x="268" y="624"/>
      <point x="267" y="617"/>
      <point x="264" y="614" type="curve"/>
      <point x="187" y="611"/>
      <point x="172" y="606"/>
    </contour>
  </outline>
</glyph>
<glyph name="uni0056" format="2">
  <advance width="654"/>
  <unicode hex="0056"/>
  <outline>
    <contour>
      <point x="448" y="614" type="curve"/>
      <point x="445" y="617"/>
      <point x="444" y="624"/>
      <point x="444" y="630" type="curve" smooth="yes"/>
      <point x="444" y="637"/>
      <point x="445" y="644"/>
      <point x="448" y="647" type="curve"/>
      <point x="489" y="646"/>
      <point x="534" y="645"/>
      <point x="557" y="645" type="curve" smooth="yes"/>
      <point x="580" y="645"/>
      <point x="615" y="646"/>
      <point x="645" y="647" type="curve"/>
      <point x="648" y="644"/>
      <point x="650" y="637"/>
      <point x="650" y="630" type="curve" smooth="yes"/>
      <point x="650" y="624"/>
      <point x="648" y="617"/>
      <point x="645" y="614" type="curve"/>
      <point x="582" y="607"/>
      <point x="566" y="568"/>
      <point x="547" y="521" type="curve" smooth="yes"/>
      <point x="340" y="11" type="line" smooth="yes"/>
      <point x="334" y="-3"/>
      <point x="327" y="-12"/>
      <point x="316" y="-12" type="curve" smooth="yes"/>
      <point x="306" y="-12"/>
      <point x="299" y="-5"/>
      <point x="293" y="11" type="curve" smooth="yes"/>
      <point x="96" y="523" type="line" smooth="yes"/>
      <point x="69" y="592"/>
      <point x="61" y="609"/>
      <point x="6" y="614" type="curve"/>
      <point x="3" y="617"/>
      <point x="0" y="625"/>
      <point x="0" y="632" type="curve" smooth="yes"/>
      <point x="0" y="638"/>
      <point x="2" y="644"/>
      <point x="5" y="647" type="curve"/>
      <point x="38" y="646"/>
      <point x="73" y="645"/>
      <point x="109" y="645" type="curve" smooth="yes"/>
      <point x="145" y="645"/>
      <point x="190" y="646"/>
      <point x="230" y="647" type="curve"/>
      <point x="233" y="644"/>
      <point x="234" y="637"/>
      <point x="234" y="630" type="curve" smooth="yes"/>
      <point x="234" y="624"/>
      <point x="233" y="617"/>
      <point x="230" y="614" type="curve"/>
      <point x="185" y="609"/>
      <point x="167" y="602"/>
      <point x="167" y="580" type="curve" smooth="yes"/>
      <point x="167" y="569"/>
      <point x="172" y="554"/>
      <point x="179" y="534" type="curve" smooth="yes"/>
      <point x="338" y="127" type="line"/>
      <point x="343" y="127" type="line"/>
      <point x="501" y="528" type="line" smooth="yes"/>
      <point x="508" y="547"/>
      <point x="513" y="562"/>
      <point x="513" y="575" type="curve" smooth="yes"/>
      <point x="513" y="598"/>
      <point x="496" y="611"/>
    </contour>
  </outline>
</glyph>
<glyph name="uni0057" format="2">
  <advance width="956"/>
  <unicode hex="0057"/>
  <outline>
    <contour>
      <point x="810" y="565" type="line" smooth="yes"/>
      <point x="812" y="571"/>
      <point x="813" y="577"/>
      <point x="813" y="582" type="curve" smooth="yes"/>
      <point x="813" y="609"/>
      <point x="779" y="611"/>
      <point x="744" y="614" type="curve"/>
      <point x="741" y="617"/>
      <point x="740" y="624"/>
      <point x="740" y="630" type="curve" smooth="yes"/>
      <point x="740" y="637"/>
      <point x="741" y="644"/>
      <point x="744" y="647" type="curve"/>
      <point x="784" y="646"/>
      <point x="828" y="645"/>
      <point x="854" y="645" type="curve" smooth="yes"/>
      <point x="880" y="645"/>
      <point x="912" y="646"/>
      <point x="941" y="647" type="curve"/>
      <point x="944" y="644"/>
      <point x="946" y="637"/>
      <point x="946" y="630" type="curve" smooth="yes"/>
      <point x="946" y="624"/>
      <point x="944" y="617"/>
      <point x="941" y="614" type="curve"/>
      <point x="886" y="611"/>
      <point x="868" y="588"/>
      <point x="855" y="553" type="curve" smooth="yes"/>
      <point x="654" y="14" type="line" smooth="yes"/>
      <point x="649" y="-1"/>
      <point x="642" y="-12"/>
      <point x="631" y="-12" type="curve" smooth="yes"/>
      <point x="619" y="-12"/>
      <point x="614" y="-2"/>
      <point x="608" y="15" type="curve" smooth="yes"/>
      <point x="493" y="347" type="line" smooth="yes"/>
      <point x="487" y="364"/>
      <point x="483" y="375"/>
      <point x="479" y="375" type="curve" smooth="yes"/>
      <point x="474" y="375"/>
      <point x="471" y="370"/>
      <point x="462" y="350" type="curve" smooth="yes"/>
      <point x="313" y="15" type="line" smooth="yes"/>
      <point x="306" y="-2"/>
      <point x="300" y="-12"/>
      <point x="287" y="-12" type="curve" smooth="yes"/>
      <point x="276" y="-12"/>
      <point x="270" y="-1"/>
      <point x="265" y="15" type="curve" smooth="yes"/>
      <point x="77" y="556" type="line" smooth="yes"/>
      <point x="58" y="610"/>
      <point x="51" y="611"/>
      <point x="6" y="614" type="curve"/>
      <point x="3" y="617"/>
      <point x="0" y="624"/>
      <point x="0" y="630" type="curve" smooth="yes"/>
      <point x="0" y="637"/>
      <point x="3" y="644"/>
      <point x="6" y="647" type="curve"/>
      <point x="35" y="646"/>
      <point x="64" y="645"/>
      <point x="99" y="645" type="curve" smooth="yes"/>
      <point x="138" y="645"/>
      <point x="182" y="646"/>
      <point x="215" y="647" type="curve"/>
      <point x="218" y="644"/>
      <point x="220" y="637"/>
      <point x="220" y="630" type="curve" smooth="yes"/>
      <point x="220" y="624"/>
      <point x="218" y="617"/>
      <point x="215" y="614" type="curve"/>
      <point x="186" y="612"/>
      <point x="162" y="609"/>
      <point x="162" y="587" type="curve" smooth="yes"/>
      <point x="162" y="583"/>
      <point x="163" y="578"/>
      <point x="165" y="572" type="curve" smooth="yes"/>
      <point x="311" y="130" type="line"/>
      <point x="316" y="129" type="line"/>
      <point x="445" y="422" type="line" smooth="yes"/>
      <point x="452" y="439"/>
      <point x="454" y="447"/>
      <point x="454" y="457" type="curve" smooth="yes"/>
      <point x="454" y="466"/>
      <point x="451" y="476"/>
      <point x="447" y="488" type="curve" smooth="yes"/>
      <point x="424" y="554" type="line" smooth="yes"/>
      <point x="415" y="580"/>
      <point x="393" y="611"/>
      <point x="340" y="614" type="curve"/>
      <point x="337" y="617"/>
      <point x="336" y="624"/>
      <point x="336" y="630" type="curve" smooth="yes"/>
      <point x="336" y="637"/>
      <point x="337" y="644"/>
      <point x="340" y="647" type="curve"/>
      <point x="372" y="646"/>
      <point x="407" y="645"/>
      <point x="440" y="645" type="curve" smooth="yes"/>
      <point x="480" y="645"/>
      <point x="524" y="646"/>
      <point x="565" y="647" type="curve"/>
      <point x="568" y="644"/>
      <point x="570" y="637"/>
      <point x="570" y="630" type="curve" smooth="yes"/>
      <point x="570" y="624"/>
      <point x="568" y="617"/>
      <point x="565" y="614" type="curve"/>
      <point x="537" y="612"/>
      <point x="508" y="609"/>
      <point x="508" y="579" type="curve" smooth="yes"/>
      <point x="508" y="572"/>
      <point x="510" y="564"/>
      <point x="513" y="554" type="curve" smooth="yes"/>
      <point x="650" y="132" type="line"/>
      <point x="654" y="131" type="line"/>
    </contour>
  </outline>
</glyph>
<glyph name="uni0058" format="2">
  <advance width="645"/>
  <unicode hex="0058"/>
  <outline>
    <contour>
      <point x="538" y="102" type="line" smooth="yes"/>
      <point x="580" y="44"/>
      <point x="597" y="34"/>
      <point x="639" y="31" type="curve"/>
      <point x="642" y="28"/>
      <point x="644" y="20"/>
      <point x="644" y="13" type="curve" smooth="yes"/>
      <point x="644" y="7"/>
      <point x="643" y="1"/>
      <point x="640" y="-2" type="curve"/>
      <point x="610" y="-1"/>
      <point x="577" y="0"/>
      <point x="538" y="0" type="curve" smooth="yes"/>
      <point x="498" y="0"/>
      <point x="461" y="-1"/>
      <point x="424" y="-2" type="curve"/>
      <point x="421" y="1"/>
      <point x="420" y="8"/>
      <point x="420" y="14" type="curve" smooth="yes"/>
      <point x="420" y="21"/>
      <point x="421" y="28"/>
      <point x="424" y="31" type="curve"/>
      <point x="455" y="33"/>
      <point x="468" y="37"/>
      <point x="468" y="47" type="curve" smooth="yes"/>
      <point x="468" y="55"/>
      <point x="460" y="67"/>
      <point x="448" y="85" type="curve" smooth="yes"/>
      <point x="324" y="261" type="line" smooth="yes"/>
      <point x="318" y="269"/>
      <point x="314" y="272"/>
      <point x="310" y="272" type="curve" smooth="yes"/>
      <point x="307" y="272"/>
      <point x="301" y="266"/>
      <point x="295" y="258" type="curve" smooth="yes"/>
      <point x="163" y="73" type="line" smooth="yes"/>
      <point x="156" y="63"/>
      <point x="152" y="55"/>
      <point x="152" y="50" type="curve" smooth="yes"/>
      <point x="152" y="36"/>
      <point x="171" y="33"/>
      <point x="202" y="31" type="curve"/>
      <point x="205" y="28"/>
      <point x="206" y="21"/>
      <point x="206" y="14" type="curve" smooth="yes"/>
      <point x="206" y="8"/>
      <point x="205" y="1"/>
      <point x="202" y="-2" type="curve"/>
      <point x="162" y="-1"/>
      <point x="120" y="0"/>
      <point x="97" y="0" type="curve" smooth="yes"/>
      <point x="74" y="0"/>
      <point x="37" y="-1"/>
      <point x="7" y="-2" type="curve"/>
      <point x="4" y="1"/>
      <point x="2" y="8"/>
      <point x="2" y="14" type="curve" smooth="yes"/>
      <point x="2" y="21"/>
      <point x="4" y="28"/>
      <point x="7" y="31" type="curve"/>
      <point x="52" y="35"/>
      <point x="84" y="47"/>
      <point x="118" y="93" type="curve" smooth="yes"/>
      <point x="266" y="291" type="line" smooth="yes"/>
      <point x="272" y="299"/>
      <point x="276" y="308"/>
      <point x="276" y="314" type="curve" smooth="yes"/>
      <point x="276" y="324"/>
      <point x="270" y="332"/>
      <point x="262" y="344" type="curve" smooth="yes"/>
      <point x="120" y="547" type="line" smooth="yes"/>
      <point x="78" y="606"/>
      <point x="60" y="611"/>
      <point x="18" y="614" type="curve"/>
      <point x="15" y="617"/>
      <point x="13" y="625"/>
      <point x="13" y="632" type="curve" smooth="yes"/>
      <point x="13" y="638"/>
      <point x="14" y="644"/>
      <point x="17" y="647" type="curve"/>
      <point x="47" y="646"/>
      <point x="80" y="645"/>
      <point x="119" y="645" type="curve" smooth="yes"/>
      <point x="159" y="645"/>
      <point x="196" y="646"/>
      <point x="233" y="647" type="curve"/>
      <point x="236" y="644"/>
      <point x="238" y="637"/>
      <point x="238" y="630" type="curve" smooth="yes"/>
      <point x="238" y="624"/>
      <point x="236" y="617"/>
      <point x="233" y="614" type="curve"/>
      <point x="202" y="612"/>
      <point x="189" y="608"/>
      <point x="189" y="598" type="curve" smooth="yes"/>
      <point x="189" y="590"/>
      <point x="197" y="577"/>
      <point x="210" y="560" type="curve"/>
      <point x="320" y="396" type="line" smooth="yes"/>
      <point x="325" y="389"/>
      <point x="329" y="385"/>
      <point x="332" y="385" type="curve" smooth="yes"/>
      <point x="336" y="385"/>
      <point x="342" y="388"/>
      <point x="348" y="397" type="curve" smooth="yes"/>
      <point x="471" y="572" type="line" smooth="yes"/>
      <point x="478" y="582"/>
      <point x="481" y="589"/>
      <point x="481" y="595" type="curve" smooth="yes"/>
      <point x="481" y="609"/>
      <point x="463" y="612"/>
      <point x="432" y="614" type="curve"/>
      <point x="429" y="617"/>
      <point x="428" y="624"/>
      <point x="428" y="630" type="curve" smooth="yes"/>
      <point x="428" y="637"/>
      <point x="429" y="644"/>
      <point x="432" y="647" type="curve"/>
      <point x="472" y="646"/>
      <point x="514" y="645"/>
      <point x="537" y="645" type="curve" smooth="yes"/>
      <point x="560" y="645"/>
      <point x="597" y="646"/>
      <point x="627" y="647" type="curve"/>
      <point x="630" y="644"/>
      <point x="632" y="637"/>
      <point x="632" y="630" type="curve" smooth="yes"/>
      <point x="632" y="624"/>
      <point x="630" y="617"/>
      <point x="627" y="614" type="curve"/>
      <point x="582" y="610"/>
      <point x="551" y="597"/>
      <point x="516" y="552" type="curve" smooth="yes"/>
      <point x="379" y="375" type="line" smooth="yes"/>
      <point x="370" y="363"/>
      <point x="369" y="354"/>
      <point x="369" y="345" type="curve" smooth="yes"/>
      <point x="369" y="335"/>
      <point x="375" y="325"/>
      <point x="385" y="312" type="curve" smooth="yes"/>
    </contour>
  </outline>
</glyph>
<glyph name="uni0059" format="2">
  <advance width="577"/>
  <unicode hex="0059"/>
  <outline>
    <contour>
      <point x="337" y="122" type="line" smooth="yes"/>
      <point x="337" y="39"/>
      <point x="354" y="34"/>
      <point x="434" y="31" type="curve"/>
      <point x="437" y="28"/>
      <point x="438" y="21"/>
      <point x="438" y="14" type="curve" smooth="yes"/>
      <point x="438" y="8"/>
      <point x="437" y="1"/>
      <point x="434" y="-2" type="curve"/>
      <point x="384" y="-1"/>
      <point x="334" y="0"/>
      <point x="295" y="0" type="curve" smooth="yes"/>
      <point x="256" y="0"/>
      <point x="204" y="-1"/>
      <point x="155" y="-2" type="curve"/>
      <point x="152" y="1"/>
      <point x="150" y="8"/>
      <point x="150" y="14" type="curve" smooth="yes"/>
      <point x="150" y="21"/>
      <point x="152" y="28"/>
      <point x="155" y="31" type="curve"/>
      <point x="235" y="34"/>
      <point x="252" y="39"/>
      <point x="252" y="122" type="curve" smooth="yes"/>
      <point x="252" y="249" type="line" smooth="yes"/>
      <point x="252" y="286"/>
      <point x="248" y="296"/>
      <point x="231" y="326" type="curve" smooth="yes"/>
      <point x="100" y="547" type="line" smooth="yes"/>
      <point x="65" y="605"/>
      <point x="48" y="611"/>
      <point x="6" y="614" type="curve"/>
      <point x="3" y="617"/>
      <point x="0" y="625"/>
      <point x="0" y="632" type="curve" smooth="yes"/>
      <point x="0" y="638"/>
      <point x="2" y="644"/>
      <point x="5" y="647" type="curve"/>
      <point x="35" y="646"/>
      <point x="68" y="645"/>
      <point x="107" y="645" type="curve" smooth="yes"/>
      <point x="147" y="645"/>
      <point x="185" y="646"/>
      <point x="221" y="647" type="curve"/>
      <point x="224" y="644"/>
      <point x="226" y="637"/>
      <point x="226" y="630" type="curve" smooth="yes"/>
      <point x="226" y="624"/>
      <point x="224" y="617"/>
      <point x="221" y="614" type="curve"/>
      <point x="186" y="612"/>
      <point x="171" y="608"/>
      <point x="171" y="594" type="curve" smooth="yes"/>
      <point x="171" y="586"/>
      <point x="176" y="575"/>
      <point x="185" y="559" type="curve" smooth="yes"/>
      <point x="301" y="354" type="line" smooth="yes"/>
      <point x="306" y="346"/>
      <point x="310" y="341"/>
      <point x="313" y="341" type="curve" smooth="yes"/>
      <point x="316" y="341"/>
      <point x="319" y="345"/>
      <point x="323" y="352" type="curve" smooth="yes"/>
      <point x="434" y="561" type="line" smooth="yes"/>
      <point x="440" y="573"/>
      <point x="443" y="582"/>
      <point x="443" y="590" type="curve" smooth="yes"/>
      <point x="443" y="607"/>
      <point x="426" y="612"/>
      <point x="395" y="614" type="curve"/>
      <point x="392" y="617"/>
      <point x="390" y="624"/>
      <point x="390" y="630" type="curve" smooth="yes"/>
      <point x="390" y="637"/>
      <point x="392" y="644"/>
      <point x="395" y="647" type="curve"/>
      <point x="427" y="646"/>
      <point x="463" y="645"/>
      <point x="486" y="645" type="curve" smooth="yes"/>
      <point x="509" y="645"/>
      <point x="541" y="646"/>
      <point x="569" y="647" type="curve"/>
      <point x="572" y="644"/>
      <point x="574" y="637"/>
      <point x="574" y="630" type="curve" smooth="yes"/>
      <point x="574" y="624"/>
      <point x="572" y="617"/>
      <point x="569" y="614" type="curve"/>
      <point x="524" y="610"/>
      <point x="502" y="601"/>
      <point x="474" y="550" type="curve" smooth="yes"/>
      <point x="354" y="334" type="line" smooth="yes"/>
      <point x="338" y="304"/>
      <point x="337" y="288"/>
      <point x="337" y="258" type="curve" smooth="yes"/>
    </contour>
  </outline>
</glyph>
<glyph name="uni005B" format="2">
  <advance width="297"/>
  <unicode hex="005B"/>
  <outline>
    <contour>
      <point x="63" y="-200" type="line"/>
      <point x="63" y="922" type="line"/>
      <point x="261" y="922" type="line"/>
      <point x="261" y="903" type="line"/>
      <point x="120" y="903" type="line"/>
      <point x="120" y="-181" type="line"/>
      <point x="261" y="-181" type="line"/>
      <point x="261" y="-200" type="line"/>
    </contour>
  </outline>
</glyph>
<glyph name="uni005C" format="2">
  <advance width="555"/>
  <unicode hex="005C"/>
  <outline>
    <contour>
      <point x="451" y="-202" type="line"/>
      <point x="396" y="-202" type="line"/>
      <point x="6" y="1013" type="line"/>
      <point x="61" y="1013" type="line"/>
    </contour>
  </outline>
</glyph>
<glyph name="uni005D" format="2">
  <advance width="297"/>
  <unicode hex="005D"/>
  <outline>
    <contour>
      <point x="18" y="-200" type="line"/>
      <point x="18" y="-181" type="line"/>
      <point x="159" y="-181" type="line"/>
      <point x="159" y="903" type="line"/>
      <point x="18" y="903" type="line"/>
      <point x="18" y="922" type="line"/>
      <point x="216" y="922" type="line"/>
      <point x="216" y="-200" type="line"/>
    </contour>
  </outline>
</glyph>
<glyph name="uni005E" format="2">
  <advance width="450"/>
  <unicode hex="005E"/>
  <outline>
    <contour>
      <point x="224" y="593" type="line"/>
      <point x="122" y="346" type="line"/>
      <point x="78" y="346" type="line"/>
      <point x="204" y="650" type="line"/>
      <point x="246" y="650" type="line"/>
      <point x="372" y="346" type="line"/>
      <point x="328" y="346" type="line"/>
    </contour>
  </outline>
</glyph>
<glyph name="uni0060" format="2">
  <advance width="196"/>
  <unicode hex="0060"/>
  <outline>
    <contour>
      <point x="147" y="506" type="line"/>
      <point x="1" y="715" type="line" smooth="yes"/>
      <point x="0" y="716"/>
      <point x="1" y="716"/>
      <point x="1" y="717" type="curve" smooth="yes"/>
      <point x="1" y="719"/>
      <point x="2" y="719"/>
      <point x="4" y="719" type="curve" smooth="yes"/>
      <point x="5" y="719"/>
      <point x="6" y="719"/>
      <point x="7" y="719" type="curve" smooth="yes"/>
      <point x="72" y="719" type="line"/>
      <point x="183" y="514" type="line" smooth="yes"/>
      <point x="184" y="513"/>
      <point x="184" y="512"/>
      <point x="184" y="511" type="curve" smooth="yes"/>
      <point x="184" y="508"/>
      <point x="183" y="506"/>
      <point x="180" y="506" type="curve" smooth="yes"/>
    </contour>
  </outline>
</glyph>
<glyph name="uni0061" format="2">
  <advance width="464"/>
  <unicode hex="0061"/>
  <outline>
    <contour>
      <point x="282" y="244" type="line"/>
      <point x="202" y="223" type="line" smooth="yes"/>
      <point x="128" y="204"/>
      <point x="108" y="158"/>
      <point x="108" y="113" type="curve" smooth="yes"/>
      <point x="108" y="82"/>
      <point x="130" y="42"/>
      <point x="180" y="42" type="curve" smooth="yes"/>
      <point x="208" y="42"/>
      <point x="242" y="65"/>
      <point x="268" y="86" type="curve" smooth="yes"/>
      <point x="276" y="92"/>
      <point x="282" y="99"/>
      <point x="282" y="112" type="curve" smooth="yes"/>
    </contour>
    <contour>
      <point x="118" y="375" type="curve" smooth="yes"/>
      <point x="118" y="353"/>
      <point x="126" y="355"/>
      <point x="126" y="337" type="curve" smooth="yes"/>
      <point x="126" y="324"/>
      <point x="108" y="303"/>
      <point x="78" y="303" type="curve" smooth="yes"/>
      <point x="56" y="303"/>
      <point x="44" y="315"/>
      <point x="44" y="339" type="curve" smooth="yes"/>
      <point x="44" y="396"/>
      <point x="126" y="450"/>
      <point x="208" y="450" type="curve" smooth="yes"/>
      <point x="282" y="450"/>
      <point x="360" y="423"/>
      <point x="360" y="281" type="curve" smooth="yes"/>
      <point x="360" y="134" type="line" smooth="yes"/>
      <point x="360" y="88"/>
      <point x="360" y="49"/>
      <point x="390" y="49" type="curve" smooth="yes"/>
      <point x="402" y="49"/>
      <point x="419" y="59"/>
      <point x="426" y="65" type="curve"/>
      <point x="438" y="58"/>
      <point x="442" y="50"/>
      <point x="444" y="38" type="curve"/>
      <point x="423" y="18"/>
      <point x="387" y="1"/>
      <point x="348" y="1" type="curve" smooth="yes"/>
      <point x="298" y="1"/>
      <point x="288" y="28"/>
      <point x="282" y="59" type="curve"/>
      <point x="280" y="59" type="line"/>
      <point x="260" y="43" type="line" smooth="yes"/>
      <point x="216" y="9"/>
      <point x="185" y="1"/>
      <point x="150" y="1" type="curve" smooth="yes"/>
      <point x="80" y="1"/>
      <point x="24" y="27"/>
      <point x="24" y="109" type="curve" smooth="yes"/>
      <point x="24" y="177"/>
      <point x="94" y="230"/>
      <point x="190" y="254" type="curve" smooth="yes"/>
      <point x="276" y="275" type="line" smooth="yes"/>
      <point x="278" y="276"/>
      <point x="282" y="280"/>
      <point x="282" y="287" type="curve" smooth="yes"/>
      <point x="282" y="400"/>
      <point x="234" y="417"/>
      <point x="200" y="417" type="curve" smooth="yes"/>
      <point x="162" y="417"/>
      <point x="118" y="407"/>
    </contour>
  </outline>
</glyph>
<glyph name="uni0062" format="2">
  <advance width="471"/>
  <unicode hex="0062"/>
  <outline>
    <contour>
      <point x="174" y="373" type="curve" smooth="yes"/>
      <point x="161" y="362"/>
      <point x="157" y="352"/>
      <point x="157" y="331" type="curve" smooth="yes"/>
      <point x="157" y="81" type="line"/>
      <point x="177" y="56"/>
      <point x="198" y="34"/>
      <point x="229" y="34" type="curve" smooth="yes"/>
      <point x="324" y="34"/>
      <point x="370" y="120"/>
      <point x="370" y="234" type="curve" smooth="yes"/>
      <point x="370" y="331"/>
      <point x="320" y="405"/>
      <point x="259" y="405" type="curve" smooth="yes"/>
      <point x="230" y="405"/>
      <point x="200" y="396"/>
    </contour>
    <contour>
      <point x="167" y="404" type="curve" smooth="yes"/>
      <point x="198" y="432"/>
      <point x="236" y="449"/>
      <point x="279" y="449" type="curve" smooth="yes"/>
      <point x="366" y="449"/>
      <point x="456" y="374"/>
      <point x="456" y="252" type="curve" smooth="yes"/>
      <point x="456" y="93"/>
      <point x="337" y="0"/>
      <point x="235" y="0" type="curve" smooth="yes"/>
      <point x="199" y="0"/>
      <point x="170" y="5"/>
      <point x="147" y="25" type="curve" smooth="yes"/>
      <point x="141" y="29"/>
      <point x="137" y="31"/>
      <point x="134" y="31" type="curve" smooth="yes"/>
      <point x="129" y="31"/>
      <point x="125" y="28"/>
      <point x="119" y="22" type="curve" smooth="yes"/>
      <point x="112" y="13"/>
      <point x="102" y="4"/>
      <point x="96" y="-2" type="curve"/>
      <point x="84" y="-2"/>
      <point x="79" y="2"/>
      <point x="74" y="10" type="curve"/>
      <point x="77" y="24"/>
      <point x="78" y="42"/>
      <point x="78" y="81" type="curve" smooth="yes"/>
      <point x="78" y="569" type="line" smooth="yes"/>
      <point x="78" y="653"/>
      <point x="66" y="648"/>
      <point x="14" y="651" type="curve"/>
      <point x="9" y="655"/>
      <point x="7" y="666"/>
      <point x="7" y="674" type="curve" smooth="yes"/>
      <point x="7" y="677"/>
      <point x="7" y="679"/>
      <point x="8" y="681" type="curve"/>
      <point x="48" y="684"/>
      <point x="123" y="698"/>
      <point x="148" y="708" type="curve"/>
      <point x="157" y="708"/>
      <point x="161" y="705"/>
      <point x="161" y="698" type="curve" smooth="yes"/>
      <point x="161" y="698"/>
      <point x="157" y="658"/>
      <point x="157" y="593" type="curve" smooth="yes"/>
      <point x="157" y="409" type="line" smooth="yes"/>
      <point x="157" y="400"/>
      <point x="160" y="398"/>
    </contour>
  </outline>
</glyph>
<glyph name="uni0063" format="2">
  <advance width="407"/>
  <unicode hex="0063"/>
  <outline>
    <contour>
      <point x="394" y="101" type="curve"/>
      <point x="344" y="19"/>
      <point x="290" y="-0"/>
      <point x="230" y="-0" type="curve" smooth="yes"/>
      <point x="104" y="-0"/>
      <point x="32" y="89"/>
      <point x="32" y="218" type="curve" smooth="yes"/>
      <point x="32" y="360"/>
      <point x="138" y="449"/>
      <point x="238" y="449" type="curve" smooth="yes"/>
      <point x="334" y="449"/>
      <point x="390" y="409"/>
      <point x="390" y="354" type="curve" smooth="yes"/>
      <point x="390" y="323"/>
      <point x="362" y="310"/>
      <point x="342" y="310" type="curve" smooth="yes"/>
      <point x="320" y="310"/>
      <point x="304" y="319"/>
      <point x="304" y="346" type="curve" smooth="yes"/>
      <point x="304" y="381"/>
      <point x="292" y="416"/>
      <point x="232" y="416" type="curve" smooth="yes"/>
      <point x="166" y="416"/>
      <point x="118" y="350"/>
      <point x="118" y="240" type="curve" smooth="yes"/>
      <point x="118" y="123"/>
      <point x="180" y="49"/>
      <point x="252" y="49" type="curve" smooth="yes"/>
      <point x="296" y="49"/>
      <point x="338" y="71"/>
      <point x="372" y="115" type="curve"/>
      <point x="382" y="115"/>
      <point x="390" y="110"/>
    </contour>
  </outline>
</glyph>
<glyph name="uni0064" format="2">
  <advance width="507"/>
  <unicode hex="0064"/>
  <outline>
    <contour>
      <point x="337" y="134" type="curve" smooth="yes"/>
      <point x="337" y="324" type="line" smooth="yes"/>
      <point x="337" y="355"/>
      <point x="334" y="362"/>
      <point x="320" y="378" type="curve" smooth="yes"/>
      <point x="300" y="401"/>
      <point x="275" y="414"/>
      <point x="239" y="414" type="curve" smooth="yes"/>
      <point x="219" y="414"/>
      <point x="177" y="411"/>
      <point x="146" y="364" type="curve" smooth="yes"/>
      <point x="131" y="343"/>
      <point x="117" y="303"/>
      <point x="117" y="231" type="curve" smooth="yes"/>
      <point x="117" y="106"/>
      <point x="173" y="47"/>
      <point x="227" y="47" type="curve" smooth="yes"/>
      <point x="252" y="47"/>
      <point x="284" y="63"/>
      <point x="321" y="95" type="curve" smooth="yes"/>
      <point x="335" y="107"/>
      <point x="337" y="115"/>
    </contour>
    <contour>
      <point x="327" y="62" type="curve" smooth="yes"/>
      <point x="278" y="22"/>
      <point x="240" y="0"/>
      <point x="201" y="0" type="curve" smooth="yes"/>
      <point x="93" y="0"/>
      <point x="31" y="90"/>
      <point x="31" y="213" type="curve" smooth="yes"/>
      <point x="31" y="287"/>
      <point x="57" y="346"/>
      <point x="100" y="389" type="curve"/>
      <point x="140" y="427"/>
      <point x="184" y="449"/>
      <point x="250" y="449" type="curve" smooth="yes"/>
      <point x="283" y="449"/>
      <point x="324" y="432"/>
      <point x="328" y="432" type="curve" smooth="yes"/>
      <point x="335" y="432"/>
      <point x="337" y="434"/>
      <point x="337" y="441" type="curve" smooth="yes"/>
      <point x="337" y="569" type="line" smooth="yes"/>
      <point x="337" y="649"/>
      <point x="326" y="651"/>
      <point x="280" y="651" type="curve" smooth="yes"/>
      <point x="273" y="651" type="line"/>
      <point x="269" y="655"/>
      <point x="266" y="665"/>
      <point x="266" y="673" type="curve" smooth="yes"/>
      <point x="266" y="676"/>
      <point x="267" y="679"/>
      <point x="267" y="681" type="curve"/>
      <point x="307" y="681"/>
      <point x="382" y="698"/>
      <point x="407" y="708" type="curve"/>
      <point x="416" y="708"/>
      <point x="420" y="705"/>
      <point x="420" y="698" type="curve" smooth="yes"/>
      <point x="420" y="698"/>
      <point x="416" y="658"/>
      <point x="416" y="593" type="curve" smooth="yes"/>
      <point x="416" y="140" type="line" smooth="yes"/>
      <point x="416" y="91"/>
      <point x="425" y="67"/>
      <point x="489" y="67" type="curve"/>
      <point x="492" y="64"/>
      <point x="494" y="58"/>
      <point x="494" y="53" type="curve" smooth="yes"/>
      <point x="494" y="48"/>
      <point x="492" y="43"/>
      <point x="489" y="40" type="curve"/>
      <point x="428" y="33"/>
      <point x="393" y="18"/>
      <point x="371" y="0" type="curve"/>
      <point x="368" y="-2"/>
      <point x="365" y="-2"/>
      <point x="362" y="-2" type="curve" smooth="yes"/>
      <point x="359" y="-2"/>
      <point x="356" y="-2"/>
      <point x="352" y="0" type="curve"/>
      <point x="352" y="0"/>
      <point x="344" y="34"/>
      <point x="341" y="59" type="curve" smooth="yes"/>
      <point x="341" y="66"/>
      <point x="332" y="66"/>
    </contour>
  </outline>
</glyph>
<glyph name="uni0065" format="2">
  <advance width="438"/>
  <unicode hex="0065"/>
  <outline>
    <contour>
      <point x="122" y="292" type="curve"/>
      <point x="303" y="295" type="line" smooth="yes"/>
      <point x="314" y="295"/>
      <point x="318" y="300"/>
      <point x="318" y="309" type="curve" smooth="yes"/>
      <point x="318" y="393"/>
      <point x="273" y="414"/>
      <point x="235" y="414" type="curve" smooth="yes"/>
      <point x="211" y="414"/>
      <point x="141" y="405"/>
    </contour>
    <contour>
      <point x="235" y="0" type="curve" smooth="yes"/>
      <point x="105" y="0"/>
      <point x="35" y="87"/>
      <point x="35" y="212" type="curve" smooth="yes"/>
      <point x="35" y="364"/>
      <point x="148" y="447"/>
      <point x="235" y="447" type="curve" smooth="yes"/>
      <point x="374" y="447"/>
      <point x="404" y="357"/>
      <point x="404" y="273" type="curve" smooth="yes"/>
      <point x="404" y="262"/>
      <point x="397" y="256"/>
      <point x="385" y="256" type="curve" smooth="yes"/>
      <point x="119" y="258" type="line"/>
      <point x="119" y="200"/>
      <point x="131" y="154"/>
      <point x="151" y="121" type="curve" smooth="yes"/>
      <point x="182" y="70"/>
      <point x="224" y="49"/>
      <point x="260" y="49" type="curve" smooth="yes"/>
      <point x="318" y="49"/>
      <point x="347" y="65"/>
      <point x="384" y="103" type="curve"/>
      <point x="396" y="102"/>
      <point x="402" y="97"/>
      <point x="405" y="87" type="curve"/>
      <point x="365" y="35"/>
      <point x="311" y="0"/>
    </contour>
  </outline>
</glyph>
<glyph name="uni0066" format="2">
  <advance width="388"/>
  <unicode hex="0066"/>
  <outline>
    <contour>
      <point x="170" y="122" type="line" smooth="yes"/>
      <point x="170" y="39"/>
      <point x="176" y="35"/>
      <point x="254" y="31" type="curve"/>
      <point x="257" y="28"/>
      <point x="259" y="21"/>
      <point x="259" y="14" type="curve" smooth="yes"/>
      <point x="259" y="7"/>
      <point x="257" y="1"/>
      <point x="254" y="-2" type="curve"/>
      <point x="219" y="-1"/>
      <point x="171" y="-0"/>
      <point x="131" y="-0" type="curve" smooth="yes"/>
      <point x="91" y="-0"/>
      <point x="56" y="-1"/>
      <point x="21" y="-2" type="curve"/>
      <point x="18" y="1"/>
      <point x="17" y="7"/>
      <point x="17" y="14" type="curve" smooth="yes"/>
      <point x="17" y="21"/>
      <point x="18" y="28"/>
      <point x="21" y="31" type="curve"/>
      <point x="75" y="35"/>
      <point x="91" y="39"/>
      <point x="91" y="122" type="curve" smooth="yes"/>
      <point x="91" y="390" type="line"/>
      <point x="22" y="390" type="line" smooth="yes"/>
      <point x="18" y="390"/>
      <point x="17" y="391"/>
      <point x="17" y="396" type="curve" smooth="yes"/>
      <point x="17" y="409" type="line" smooth="yes"/>
      <point x="17" y="417"/>
      <point x="22" y="429"/>
      <point x="40" y="429" type="curve" smooth="yes"/>
      <point x="91" y="429" type="line"/>
      <point x="91" y="469" type="line" smooth="yes"/>
      <point x="91" y="625"/>
      <point x="184" y="698"/>
      <point x="268" y="698" type="curve" smooth="yes"/>
      <point x="306" y="698"/>
      <point x="332" y="695"/>
      <point x="358" y="677" type="curve"/>
      <point x="379" y="661"/>
      <point x="390" y="643"/>
      <point x="390" y="626" type="curve" smooth="yes"/>
      <point x="390" y="606"/>
      <point x="366" y="585"/>
      <point x="349" y="585" type="curve" smooth="yes"/>
      <point x="328" y="585"/>
      <point x="317" y="599"/>
      <point x="309" y="617" type="curve" smooth="yes"/>
      <point x="295" y="652"/>
      <point x="279" y="664"/>
      <point x="249" y="664" type="curve" smooth="yes"/>
      <point x="216" y="664"/>
      <point x="170" y="640"/>
      <point x="170" y="486" type="curve" smooth="yes"/>
      <point x="170" y="429" type="line"/>
      <point x="278" y="429" type="line" smooth="yes"/>
      <point x="283" y="429"/>
      <point x="286" y="427"/>
      <point x="286" y="423" type="curve" smooth="yes"/>
      <point x="286" y="403" type="line" smooth="yes"/>
      <point x="286" y="394"/>
      <point x="272" y="390"/>
      <point x="263" y="390" type="curve" smooth="yes"/>
      <point x="170" y="390" type="line"/>
    </contour>
  </outline>
</glyph>
<glyph name="uni0067" format="2">
  <advance width="503"/>
  <unicode hex="0067"/>
  <outline>
    <contour>
      <point x="320" y="291" type="curve" smooth="yes"/>
      <point x="320" y="374"/>
      <point x="286" y="420"/>
      <point x="222" y="420" type="curve" smooth="yes"/>
      <point x="168" y="420"/>
      <point x="142" y="384"/>
      <point x="142" y="314" type="curve" smooth="yes"/>
      <point x="142" y="250"/>
      <point x="152" y="179"/>
      <point x="236" y="179" type="curve" smooth="yes"/>
      <point x="272" y="179"/>
      <point x="320" y="198"/>
    </contour>
    <contour>
      <point x="132" y="2" type="curve"/>
      <point x="104" y="-33"/>
      <point x="102" y="-58"/>
      <point x="102" y="-92" type="curve" smooth="yes"/>
      <point x="102" y="-160"/>
      <point x="186" y="-189"/>
      <point x="222" y="-189" type="curve" smooth="yes"/>
      <point x="312" y="-189"/>
      <point x="418" y="-151"/>
      <point x="418" y="-79" type="curve" smooth="yes"/>
      <point x="418" y="-53"/>
      <point x="406" y="-39"/>
      <point x="366" y="-17" type="curve" smooth="yes"/>
      <point x="338" y="-1"/>
      <point x="296" y="0"/>
      <point x="246" y="0" type="curve" smooth="yes"/>
      <point x="232" y="0"/>
      <point x="204" y="-3"/>
      <point x="172" y="-3" type="curve" smooth="yes"/>
      <point x="160" y="-3"/>
      <point x="144" y="-1"/>
    </contour>
    <contour>
      <point x="188" y="56" type="curve" smooth="yes"/>
      <point x="212" y="56"/>
      <point x="260" y="61"/>
      <point x="282" y="61" type="curve" smooth="yes"/>
      <point x="320" y="61"/>
      <point x="390" y="60"/>
      <point x="428" y="28" type="curve" smooth="yes"/>
      <point x="458" y="4"/>
      <point x="472" y="-21"/>
      <point x="472" y="-53" type="curve" smooth="yes"/>
      <point x="472" y="-161"/>
      <point x="326" y="-226"/>
      <point x="192" y="-226" type="curve" smooth="yes"/>
      <point x="114" y="-226"/>
      <point x="32" y="-199"/>
      <point x="32" y="-112" type="curve" smooth="yes"/>
      <point x="32" y="-69"/>
      <point x="60" y="-23"/>
      <point x="114" y="9" type="curve"/>
      <point x="88" y="22"/>
      <point x="68" y="50"/>
      <point x="68" y="86" type="curve" smooth="yes"/>
      <point x="68" y="120"/>
      <point x="84" y="163"/>
      <point x="112" y="187" type="curve"/>
      <point x="84" y="214"/>
      <point x="60" y="245"/>
      <point x="60" y="299" type="curve" smooth="yes"/>
      <point x="60" y="391"/>
      <point x="142" y="451"/>
      <point x="232" y="451" type="curve" smooth="yes"/>
      <point x="290" y="451"/>
      <point x="324" y="431"/>
      <point x="336" y="423" type="curve"/>
      <point x="362" y="457"/>
      <point x="410" y="474"/>
      <point x="436" y="474" type="curve" smooth="yes"/>
      <point x="462" y="474"/>
      <point x="482" y="458"/>
      <point x="482" y="437" type="curve" smooth="yes"/>
      <point x="482" y="417"/>
      <point x="464" y="399"/>
      <point x="444" y="399" type="curve" smooth="yes"/>
      <point x="434" y="399"/>
      <point x="420" y="409"/>
      <point x="416" y="417" type="curve"/>
      <point x="410" y="426"/>
      <point x="404" y="429"/>
      <point x="396" y="429" type="curve" smooth="yes"/>
      <point x="384" y="429"/>
      <point x="364" y="415"/>
      <point x="356" y="405" type="curve"/>
      <point x="386" y="375"/>
      <point x="400" y="348"/>
      <point x="400" y="301" type="curve" smooth="yes"/>
      <point x="400" y="203"/>
      <point x="318" y="148"/>
      <point x="230" y="148" type="curve" smooth="yes"/>
      <point x="192" y="148"/>
      <point x="164" y="155"/>
      <point x="140" y="169" type="curve"/>
      <point x="128" y="152"/>
      <point x="122" y="131"/>
      <point x="122" y="111" type="curve" smooth="yes"/>
      <point x="122" y="68"/>
      <point x="158" y="56"/>
    </contour>
  </outline>
</glyph>
<glyph name="uni0068" format="2">
  <advance width="532"/>
  <unicode hex="0068"/>
  <outline>
    <contour>
      <point x="168" y="286" type="curve" smooth="yes"/>
      <point x="168" y="122" type="line" smooth="yes"/>
      <point x="168" y="39"/>
      <point x="177" y="35"/>
      <point x="228" y="31" type="curve"/>
      <point x="231" y="28"/>
      <point x="233" y="21"/>
      <point x="233" y="14" type="curve" smooth="yes"/>
      <point x="233" y="7"/>
      <point x="231" y="1"/>
      <point x="228" y="-2" type="curve"/>
      <point x="200" y="-1"/>
      <point x="167" y="-0"/>
      <point x="129" y="-0" type="curve" smooth="yes"/>
      <point x="89" y="-0"/>
      <point x="52" y="-1"/>
      <point x="19" y="-2" type="curve"/>
      <point x="16" y="1"/>
      <point x="15" y="7"/>
      <point x="15" y="14" type="curve" smooth="yes"/>
      <point x="15" y="21"/>
      <point x="16" y="28"/>
      <point x="19" y="31" type="curve"/>
      <point x="77" y="35"/>
      <point x="89" y="39"/>
      <point x="89" y="122" type="curve" smooth="yes"/>
      <point x="89" y="559" type="line" smooth="yes"/>
      <point x="89" y="643"/>
      <point x="77" y="638"/>
      <point x="25" y="641" type="curve"/>
      <point x="21" y="645"/>
      <point x="18" y="655"/>
      <point x="18" y="663" type="curve" smooth="yes"/>
      <point x="18" y="666"/>
      <point x="19" y="669"/>
      <point x="19" y="671" type="curve"/>
      <point x="59" y="674"/>
      <point x="134" y="688"/>
      <point x="159" y="698" type="curve"/>
      <point x="168" y="698"/>
      <point x="172" y="695"/>
      <point x="172" y="688" type="curve" smooth="yes"/>
      <point x="172" y="688"/>
      <point x="168" y="648"/>
      <point x="168" y="583" type="curve" smooth="yes"/>
      <point x="168" y="358" type="line" smooth="yes"/>
      <point x="168" y="344"/>
      <point x="174" y="354"/>
      <point x="177" y="358" type="curve" smooth="yes"/>
      <point x="238" y="426"/>
      <point x="298" y="439"/>
      <point x="347" y="439" type="curve" smooth="yes"/>
      <point x="382" y="439"/>
      <point x="413" y="427"/>
      <point x="430" y="405" type="curve" smooth="yes"/>
      <point x="454" y="374"/>
      <point x="457" y="326"/>
      <point x="457" y="271" type="curve" smooth="yes"/>
      <point x="457" y="122" type="line" smooth="yes"/>
      <point x="457" y="40"/>
      <point x="468" y="36"/>
      <point x="524" y="31" type="curve"/>
      <point x="527" y="28"/>
      <point x="528" y="21"/>
      <point x="528" y="14" type="curve" smooth="yes"/>
      <point x="528" y="7"/>
      <point x="527" y="1"/>
      <point x="524" y="-2" type="curve"/>
      <point x="491" y="-1"/>
      <point x="458" y="-0"/>
      <point x="418" y="-0" type="curve" smooth="yes"/>
      <point x="378" y="-0"/>
      <point x="344" y="-1"/>
      <point x="316" y="-2" type="curve"/>
      <point x="314" y="1"/>
      <point x="312" y="7"/>
      <point x="312" y="14" type="curve" smooth="yes"/>
      <point x="312" y="21"/>
      <point x="314" y="28"/>
      <point x="316" y="31" type="curve"/>
      <point x="368" y="36"/>
      <point x="378" y="40"/>
      <point x="378" y="122" type="curve" smooth="yes"/>
      <point x="378" y="274" type="line" smooth="yes"/>
      <point x="378" y="304"/>
      <point x="376" y="331"/>
      <point x="366" y="351" type="curve" smooth="yes"/>
      <point x="355" y="374"/>
      <point x="334" y="385"/>
      <point x="313" y="385" type="curve" smooth="yes"/>
      <point x="274" y="385"/>
      <point x="223" y="365"/>
      <point x="185" y="328" type="curve" smooth="yes"/>
      <point x="177" y="319"/>
      <point x="168" y="307"/>
    </contour>
  </outline>
</glyph>
<glyph name="uni0069" format="2">
  <advance width="283"/>
  <unicode hex="0069"/>
  <outline>
    <contour>
      <point x="90" y="599" type="curve" smooth="yes"/>
      <point x="90" y="623"/>
      <point x="118" y="647"/>
      <point x="142" y="647" type="curve" smooth="yes"/>
      <point x="170" y="647"/>
      <point x="190" y="619"/>
      <point x="190" y="595" type="curve" smooth="yes"/>
      <point x="190" y="574"/>
      <point x="166" y="547"/>
      <point x="138" y="547" type="curve" smooth="yes"/>
      <point x="114" y="547"/>
      <point x="90" y="573"/>
    </contour>
    <contour>
      <point x="182" y="122" type="line" smooth="yes"/>
      <point x="182" y="39"/>
      <point x="192" y="35"/>
      <point x="254" y="31" type="curve"/>
      <point x="256" y="28"/>
      <point x="258" y="21"/>
      <point x="258" y="14" type="curve" smooth="yes"/>
      <point x="258" y="7"/>
      <point x="256" y="1"/>
      <point x="254" y="-2" type="curve"/>
      <point x="220" y="-1"/>
      <point x="182" y="0"/>
      <point x="142" y="0" type="curve" smooth="yes"/>
      <point x="102" y="0"/>
      <point x="64" y="-1"/>
      <point x="30" y="-2" type="curve"/>
      <point x="28" y="1"/>
      <point x="26" y="7"/>
      <point x="26" y="14" type="curve" smooth="yes"/>
      <point x="26" y="21"/>
      <point x="28" y="28"/>
      <point x="30" y="31" type="curve"/>
      <point x="92" y="36"/>
      <point x="102" y="39"/>
      <point x="102" y="122" type="curve" smooth="yes"/>
      <point x="102" y="317" type="line" smooth="yes"/>
      <point x="102" y="374"/>
      <point x="92" y="381"/>
      <point x="38" y="386" type="curve"/>
      <point x="36" y="392"/>
      <point x="34" y="407"/>
      <point x="36" y="413" type="curve"/>
      <point x="104" y="422"/>
      <point x="144" y="431"/>
      <point x="172" y="442" type="curve"/>
      <point x="180" y="442"/>
      <point x="186" y="439"/>
      <point x="186" y="435" type="curve" smooth="yes"/>
      <point x="186" y="435"/>
      <point x="182" y="371"/>
      <point x="182" y="321" type="curve" smooth="yes"/>
    </contour>
  </outline>
</glyph>
<glyph name="uni006A" format="2">
  <advance width="247"/>
  <unicode hex="006A"/>
  <outline>
    <contour>
      <point x="92" y="623" type="curve" smooth="yes"/>
      <point x="92" y="647"/>
      <point x="120" y="671"/>
      <point x="144" y="671" type="curve" smooth="yes"/>
      <point x="171" y="671"/>
      <point x="192" y="643"/>
      <point x="192" y="619" type="curve" smooth="yes"/>
      <point x="192" y="598"/>
      <point x="168" y="571"/>
      <point x="140" y="571" type="curve" smooth="yes"/>
      <point x="116" y="571"/>
      <point x="92" y="597"/>
    </contour>
    <contour>
      <point x="106" y="340" type="line" smooth="yes"/>
      <point x="106" y="397"/>
      <point x="95" y="404"/>
      <point x="41" y="409" type="curve"/>
      <point x="39" y="415"/>
      <point x="37" y="431"/>
      <point x="39" y="437" type="curve"/>
      <point x="108" y="446"/>
      <point x="148" y="455"/>
      <point x="176" y="466" type="curve"/>
      <point x="184" y="466"/>
      <point x="189" y="463"/>
      <point x="189" y="459" type="curve" smooth="yes"/>
      <point x="189" y="459"/>
      <point x="185" y="395"/>
      <point x="185" y="345" type="curve" smooth="yes"/>
      <point x="185" y="134" type="line" smooth="yes"/>
      <point x="185" y="-55"/>
      <point x="157" y="-127"/>
      <point x="110" y="-165" type="curve" smooth="yes"/>
      <point x="73" y="-196"/>
      <point x="21" y="-199"/>
      <point x="0" y="-199" type="curve" smooth="yes"/>
      <point x="-19" y="-199"/>
      <point x="-55" y="-185"/>
      <point x="-55" y="-156" type="curve" smooth="yes"/>
      <point x="-55" y="-138"/>
      <point x="-34" y="-118"/>
      <point x="-23" y="-118" type="curve" smooth="yes"/>
      <point x="-1" y="-118"/>
      <point x="11" y="-134"/>
      <point x="21" y="-144" type="curve" smooth="yes"/>
      <point x="28" y="-151"/>
      <point x="41" y="-155"/>
      <point x="52" y="-155" type="curve" smooth="yes"/>
      <point x="102" y="-155"/>
      <point x="106" y="-32"/>
      <point x="106" y="100" type="curve" smooth="yes"/>
    </contour>
  </outline>
</glyph>
<glyph name="uni006B" format="2">
  <advance width="526"/>
  <unicode hex="006B"/>
  <outline>
    <contour>
      <point x="88" y="122" type="curve" smooth="yes"/>
      <point x="88" y="559" type="line" smooth="yes"/>
      <point x="88" y="639"/>
      <point x="77" y="641"/>
      <point x="31" y="641" type="curve" smooth="yes"/>
      <point x="24" y="641" type="line"/>
      <point x="20" y="645"/>
      <point x="17" y="655"/>
      <point x="17" y="663" type="curve" smooth="yes"/>
      <point x="17" y="666"/>
      <point x="18" y="669"/>
      <point x="18" y="671" type="curve"/>
      <point x="58" y="671"/>
      <point x="133" y="688"/>
      <point x="158" y="698" type="curve"/>
      <point x="167" y="698"/>
      <point x="171" y="695"/>
      <point x="171" y="688" type="curve" smooth="yes"/>
      <point x="171" y="688"/>
      <point x="167" y="648"/>
      <point x="167" y="583" type="curve" smooth="yes"/>
      <point x="167" y="234" type="line"/>
      <point x="186" y="236"/>
      <point x="213" y="248"/>
      <point x="235" y="265" type="curve" smooth="yes"/>
      <point x="261" y="284"/>
      <point x="292" y="318"/>
      <point x="315" y="347" type="curve" smooth="yes"/>
      <point x="320" y="353"/>
      <point x="328" y="364"/>
      <point x="328" y="375" type="curve" smooth="yes"/>
      <point x="328" y="386"/>
      <point x="320" y="398"/>
      <point x="292" y="398" type="curve"/>
      <point x="289" y="401"/>
      <point x="288" y="407"/>
      <point x="288" y="414" type="curve" smooth="yes"/>
      <point x="288" y="421"/>
      <point x="289" y="428"/>
      <point x="292" y="431" type="curve"/>
      <point x="315" y="431"/>
      <point x="352" y="429"/>
      <point x="390" y="429" type="curve" smooth="yes"/>
      <point x="426" y="429"/>
      <point x="454" y="431"/>
      <point x="477" y="431" type="curve"/>
      <point x="480" y="428"/>
      <point x="482" y="421"/>
      <point x="482" y="414" type="curve" smooth="yes"/>
      <point x="482" y="407"/>
      <point x="480" y="401"/>
      <point x="477" y="398" type="curve"/>
      <point x="437" y="398"/>
      <point x="402" y="386"/>
      <point x="372" y="354" type="curve" smooth="yes"/>
      <point x="284" y="263" type="line" smooth="yes"/>
      <point x="280" y="259"/>
      <point x="280" y="257"/>
      <point x="280" y="253" type="curve" smooth="yes"/>
      <point x="280" y="248"/>
      <point x="283" y="243"/>
      <point x="287" y="239" type="curve" smooth="yes"/>
      <point x="419" y="73" type="line" smooth="yes"/>
      <point x="446" y="39"/>
      <point x="471" y="35"/>
      <point x="505" y="31" type="curve"/>
      <point x="508" y="28"/>
      <point x="510" y="21"/>
      <point x="510" y="14" type="curve" smooth="yes"/>
      <point x="510" y="7"/>
      <point x="508" y="1"/>
      <point x="505" y="-2" type="curve"/>
      <point x="485" y="-2"/>
      <point x="454" y="-0"/>
      <point x="423" y="-0" type="curve" smooth="yes"/>
      <point x="403" y="-0"/>
      <point x="381" y="-2"/>
      <point x="361" y="-2" type="curve" smooth="yes"/>
      <point x="358" y="-2"/>
      <point x="357" y="-0"/>
      <point x="357" y="3" type="curve" smooth="yes"/>
      <point x="357" y="14"/>
      <point x="344" y="33"/>
      <point x="315" y="73" type="curve" smooth="yes"/>
      <point x="242" y="171" type="line" smooth="yes"/>
      <point x="230" y="187"/>
      <point x="221" y="196"/>
      <point x="210" y="203" type="curve"/>
      <point x="200" y="207"/>
      <point x="186" y="209"/>
      <point x="167" y="209" type="curve"/>
      <point x="167" y="122" type="line" smooth="yes"/>
      <point x="167" y="39"/>
      <point x="178" y="35"/>
      <point x="219" y="31" type="curve"/>
      <point x="222" y="28"/>
      <point x="224" y="21"/>
      <point x="224" y="14" type="curve" smooth="yes"/>
      <point x="224" y="7"/>
      <point x="222" y="1"/>
      <point x="219" y="-2" type="curve"/>
      <point x="196" y="-1"/>
      <point x="163" y="-0"/>
      <point x="128" y="-0" type="curve" smooth="yes"/>
      <point x="88" y="-0"/>
      <point x="54" y="-1"/>
      <point x="21" y="-2" type="curve"/>
      <point x="18" y="1"/>
      <point x="16" y="7"/>
      <point x="16" y="14" type="curve" smooth="yes"/>
      <point x="16" y="21"/>
      <point x="18" y="28"/>
      <point x="21" y="31" type="curve"/>
      <point x="77" y="35"/>
      <point x="88" y="39"/>
    </contour>
  </outline>
</glyph>
<glyph name="uni006C" format="2">
  <advance width="266"/>
  <unicode hex="006C"/>
  <outline>
    <contour>
      <point x="94" y="122" type="curve" smooth="yes"/>
      <point x="94" y="559" type="line" smooth="yes"/>
      <point x="94" y="634"/>
      <point x="88" y="637"/>
      <point x="30" y="641" type="curve"/>
      <point x="25" y="645"/>
      <point x="23" y="655"/>
      <point x="23" y="663" type="curve" smooth="yes"/>
      <point x="23" y="666"/>
      <point x="23" y="669"/>
      <point x="24" y="671" type="curve"/>
      <point x="64" y="674"/>
      <point x="138" y="688"/>
      <point x="164" y="698" type="curve"/>
      <point x="172" y="698"/>
      <point x="176" y="695"/>
      <point x="176" y="688" type="curve" smooth="yes"/>
      <point x="176" y="688"/>
      <point x="172" y="648"/>
      <point x="172" y="583" type="curve" smooth="yes"/>
      <point x="172" y="122" type="line" smooth="yes"/>
      <point x="172" y="39"/>
      <point x="184" y="34"/>
      <point x="244" y="31" type="curve"/>
      <point x="248" y="28"/>
      <point x="249" y="21"/>
      <point x="249" y="14" type="curve" smooth="yes"/>
      <point x="249" y="7"/>
      <point x="248" y="1"/>
      <point x="244" y="-2" type="curve"/>
      <point x="212" y="-1"/>
      <point x="174" y="-0"/>
      <point x="134" y="-0" type="curve" smooth="yes"/>
      <point x="94" y="-0"/>
      <point x="56" y="-1"/>
      <point x="22" y="-2" type="curve"/>
      <point x="18" y="1"/>
      <point x="17" y="7"/>
      <point x="17" y="14" type="curve" smooth="yes"/>
      <point x="17" y="21"/>
      <point x="18" y="28"/>
      <point x="22" y="31" type="curve"/>
      <point x="82" y="34"/>
      <point x="94" y="39"/>
    </contour>
  </outline>
</glyph>
<glyph name="uni006D" format="2">
  <advance width="793"/>
  <unicode hex="006D"/>
  <outline>
    <contour>
      <point x="163" y="358" type="curve" smooth="yes"/>
      <point x="163" y="346"/>
      <point x="170" y="353"/>
      <point x="175" y="358" type="curve" smooth="yes"/>
      <point x="216" y="404"/>
      <point x="269" y="439"/>
      <point x="327" y="439" type="curve" smooth="yes"/>
      <point x="379" y="439"/>
      <point x="417" y="406"/>
      <point x="427" y="365" type="curve" smooth="yes"/>
      <point x="429" y="357"/>
      <point x="435" y="362"/>
      <point x="438" y="365" type="curve" smooth="yes"/>
      <point x="490" y="420"/>
      <point x="551" y="439"/>
      <point x="603" y="439" type="curve" smooth="yes"/>
      <point x="691" y="439"/>
      <point x="706" y="369"/>
      <point x="706" y="280" type="curve" smooth="yes"/>
      <point x="706" y="122" type="line" smooth="yes"/>
      <point x="706" y="40"/>
      <point x="715" y="31"/>
      <point x="770" y="31" type="curve"/>
      <point x="772" y="28"/>
      <point x="773" y="21"/>
      <point x="773" y="14" type="curve" smooth="yes"/>
      <point x="773" y="7"/>
      <point x="772" y="1"/>
      <point x="770" y="-2" type="curve"/>
      <point x="742" y="-2"/>
      <point x="707" y="0"/>
      <point x="667" y="0" type="curve" smooth="yes"/>
      <point x="627" y="0"/>
      <point x="590" y="-2"/>
      <point x="565" y="-2" type="curve"/>
      <point x="562" y="1"/>
      <point x="561" y="7"/>
      <point x="561" y="14" type="curve" smooth="yes"/>
      <point x="561" y="21"/>
      <point x="562" y="28"/>
      <point x="565" y="31" type="curve"/>
      <point x="617" y="31"/>
      <point x="627" y="40"/>
      <point x="627" y="122" type="curve" smooth="yes"/>
      <point x="627" y="298" type="line" smooth="yes"/>
      <point x="627" y="365"/>
      <point x="605" y="385"/>
      <point x="567" y="385" type="curve" smooth="yes"/>
      <point x="528" y="385"/>
      <point x="483" y="374"/>
      <point x="435" y="321" type="curve"/>
      <point x="435" y="309"/>
      <point x="436" y="295"/>
      <point x="436" y="281" type="curve" smooth="yes"/>
      <point x="436" y="122" type="line" smooth="yes"/>
      <point x="436" y="40"/>
      <point x="445" y="31"/>
      <point x="495" y="31" type="curve"/>
      <point x="497" y="28"/>
      <point x="498" y="21"/>
      <point x="498" y="14" type="curve" smooth="yes"/>
      <point x="498" y="7"/>
      <point x="497" y="1"/>
      <point x="495" y="-2" type="curve"/>
      <point x="470" y="-2"/>
      <point x="437" y="0"/>
      <point x="397" y="0" type="curve" smooth="yes"/>
      <point x="357" y="0"/>
      <point x="320" y="-1"/>
      <point x="295" y="-2" type="curve"/>
      <point x="292" y="1"/>
      <point x="291" y="7"/>
      <point x="291" y="14" type="curve" smooth="yes"/>
      <point x="291" y="21"/>
      <point x="292" y="28"/>
      <point x="295" y="31" type="curve"/>
      <point x="349" y="35"/>
      <point x="357" y="40"/>
      <point x="357" y="122" type="curve" smooth="yes"/>
      <point x="357" y="296" type="line" smooth="yes"/>
      <point x="357" y="363"/>
      <point x="329" y="385"/>
      <point x="291" y="385" type="curve" smooth="yes"/>
      <point x="260" y="385"/>
      <point x="222" y="366"/>
      <point x="183" y="328" type="curve" smooth="yes"/>
      <point x="175" y="319"/>
      <point x="166" y="307"/>
      <point x="166" y="286" type="curve" smooth="yes"/>
      <point x="166" y="122" type="line" smooth="yes"/>
      <point x="166" y="40"/>
      <point x="177" y="36"/>
      <point x="227" y="31" type="curve"/>
      <point x="230" y="28"/>
      <point x="232" y="21"/>
      <point x="232" y="14" type="curve" smooth="yes"/>
      <point x="232" y="7"/>
      <point x="230" y="1"/>
      <point x="227" y="-2" type="curve"/>
      <point x="197" y="-1"/>
      <point x="167" y="0"/>
      <point x="127" y="0" type="curve" smooth="yes"/>
      <point x="87" y="0"/>
      <point x="49" y="-1"/>
      <point x="19" y="-2" type="curve"/>
      <point x="16" y="1"/>
      <point x="14" y="7"/>
      <point x="14" y="14" type="curve" smooth="yes"/>
      <point x="14" y="21"/>
      <point x="16" y="28"/>
      <point x="19" y="31" type="curve"/>
      <point x="74" y="35"/>
      <point x="87" y="40"/>
      <point x="87" y="122" type="curve" smooth="yes"/>
      <point x="87" y="317" type="line" smooth="yes"/>
      <point x="87" y="375"/>
      <point x="76" y="380"/>
      <point x="22" y="385" type="curve"/>
      <point x="20" y="391"/>
      <point x="18" y="407"/>
      <point x="20" y="413" type="curve"/>
      <point x="89" y="422"/>
      <point x="115" y="431"/>
      <point x="143" y="442" type="curve"/>
      <point x="151" y="442"/>
      <point x="153" y="438"/>
      <point x="155" y="434" type="curve" smooth="yes"/>
      <point x="159" y="423"/>
      <point x="161" y="387"/>
    </contour>
  </outline>
</glyph>
<glyph name="uni006E" format="2">
  <advance width="566"/>
  <unicode hex="006E"/>
  <outline>
    <contour>
      <point x="192" y="358" type="curve" smooth="yes"/>
      <point x="251" y="426"/>
      <point x="307" y="439"/>
      <point x="356" y="439" type="curve" smooth="yes"/>
      <point x="391" y="439"/>
      <point x="422" y="427"/>
      <point x="439" y="405" type="curve" smooth="yes"/>
      <point x="462" y="374"/>
      <point x="466" y="326"/>
      <point x="466" y="271" type="curve" smooth="yes"/>
      <point x="466" y="122" type="line" smooth="yes"/>
      <point x="466" y="40"/>
      <point x="477" y="36"/>
      <point x="533" y="31" type="curve"/>
      <point x="536" y="28"/>
      <point x="537" y="21"/>
      <point x="537" y="14" type="curve" smooth="yes"/>
      <point x="537" y="7"/>
      <point x="536" y="1"/>
      <point x="533" y="-2" type="curve"/>
      <point x="503" y="-1"/>
      <point x="467" y="0"/>
      <point x="427" y="0" type="curve" smooth="yes"/>
      <point x="387" y="0"/>
      <point x="355" y="-1"/>
      <point x="325" y="-2" type="curve"/>
      <point x="322" y="1"/>
      <point x="321" y="7"/>
      <point x="321" y="14" type="curve" smooth="yes"/>
      <point x="321" y="21"/>
      <point x="322" y="28"/>
      <point x="325" y="31" type="curve"/>
      <point x="377" y="36"/>
      <point x="387" y="40"/>
      <point x="387" y="122" type="curve" smooth="yes"/>
      <point x="387" y="274" type="line" smooth="yes"/>
      <point x="387" y="304"/>
      <point x="385" y="331"/>
      <point x="375" y="351" type="curve" smooth="yes"/>
      <point x="363" y="374"/>
      <point x="342" y="385"/>
      <point x="322" y="385" type="curve" smooth="yes"/>
      <point x="283" y="385"/>
      <point x="238" y="365"/>
      <point x="200" y="328" type="curve" smooth="yes"/>
      <point x="192" y="319"/>
      <point x="183" y="307"/>
      <point x="183" y="286" type="curve" smooth="yes"/>
      <point x="183" y="122" type="line" smooth="yes"/>
      <point x="183" y="40"/>
      <point x="193" y="36"/>
      <point x="244" y="31" type="curve"/>
      <point x="247" y="28"/>
      <point x="248" y="21"/>
      <point x="248" y="14" type="curve" smooth="yes"/>
      <point x="248" y="7"/>
      <point x="247" y="1"/>
      <point x="244" y="-2" type="curve"/>
      <point x="214" y="-1"/>
      <point x="184" y="0"/>
      <point x="144" y="0" type="curve" smooth="yes"/>
      <point x="104" y="0"/>
      <point x="64" y="-1"/>
      <point x="34" y="-2" type="curve"/>
      <point x="31" y="1"/>
      <point x="30" y="7"/>
      <point x="30" y="14" type="curve" smooth="yes"/>
      <point x="30" y="21"/>
      <point x="31" y="28"/>
      <point x="34" y="31" type="curve"/>
      <point x="94" y="36"/>
      <point x="104" y="40"/>
      <point x="104" y="122" type="curve" smooth="yes"/>
      <point x="104" y="317" type="line" smooth="yes"/>
      <point x="104" y="375"/>
      <point x="93" y="380"/>
      <point x="39" y="385" type="curve"/>
      <point x="37" y="391"/>
      <point x="35" y="407"/>
      <point x="37" y="413" type="curve"/>
      <point x="106" y="422"/>
      <point x="132" y="431"/>
      <point x="160" y="442" type="curve"/>
      <point x="168" y="442"/>
      <point x="170" y="438"/>
      <point x="172" y="434" type="curve" smooth="yes"/>
      <point x="177" y="423"/>
      <point x="179" y="385"/>
      <point x="180" y="358" type="curve" smooth="yes"/>
      <point x="180" y="348"/>
      <point x="186" y="351"/>
    </contour>
  </outline>
</glyph>
<glyph name="uni006F" format="2">
  <advance width="487"/>
  <unicode hex="006F"/>
  <outline>
    <contour>
      <point x="467" y="224" type="curve" smooth="yes"/>
      <point x="467" y="102"/>
      <point x="389" y="0"/>
      <point x="255" y="0" type="curve" smooth="yes"/>
      <point x="113" y="0"/>
      <point x="45" y="113"/>
      <point x="45" y="215" type="curve" smooth="yes"/>
      <point x="45" y="345"/>
      <point x="127" y="449"/>
      <point x="257" y="449" type="curve" smooth="yes"/>
      <point x="410" y="449"/>
      <point x="467" y="328"/>
    </contour>
    <contour>
      <point x="242" y="414" type="curve" smooth="yes"/>
      <point x="152" y="414"/>
      <point x="131" y="325"/>
      <point x="131" y="238" type="curve" smooth="yes"/>
      <point x="131" y="161"/>
      <point x="165" y="35"/>
      <point x="269" y="35" type="curve" smooth="yes"/>
      <point x="316" y="35"/>
      <point x="381" y="66"/>
      <point x="381" y="192" type="curve" smooth="yes"/>
      <point x="381" y="336"/>
      <point x="328" y="414"/>
    </contour>
  </outline>
</glyph>
<glyph name="uni0070" format="2">
  <advance width="499"/>
  <unicode hex="0070"/>
  <outline>
    <contour>
      <point x="176" y="341" type="curve" smooth="yes"/>
      <point x="165" y="326"/>
      <point x="160" y="318"/>
      <point x="160" y="297" type="curve" smooth="yes"/>
      <point x="160" y="115" type="line" smooth="yes"/>
      <point x="160" y="79"/>
      <point x="164" y="73"/>
      <point x="184" y="55" type="curve" smooth="yes"/>
      <point x="202" y="39"/>
      <point x="237" y="34"/>
      <point x="255" y="34" type="curve" smooth="yes"/>
      <point x="367" y="34"/>
      <point x="396" y="136"/>
      <point x="396" y="218" type="curve" smooth="yes"/>
      <point x="396" y="331"/>
      <point x="341" y="403"/>
      <point x="277" y="403" type="curve" smooth="yes"/>
      <point x="248" y="403"/>
      <point x="202" y="373"/>
    </contour>
    <contour>
      <point x="481" y="244" type="curve" smooth="yes"/>
      <point x="481" y="106"/>
      <point x="396" y="0"/>
      <point x="261" y="0" type="curve" smooth="yes"/>
      <point x="230" y="0"/>
      <point x="199" y="5"/>
      <point x="174" y="15" type="curve" smooth="yes"/>
      <point x="164" y="19"/>
      <point x="160" y="21"/>
      <point x="160" y="8" type="curve" smooth="yes"/>
      <point x="160" y="-100" type="line" smooth="yes"/>
      <point x="160" y="-183"/>
      <point x="171" y="-187"/>
      <point x="242" y="-191" type="curve"/>
      <point x="245" y="-194"/>
      <point x="247" y="-201"/>
      <point x="247" y="-208" type="curve" smooth="yes"/>
      <point x="247" y="-215"/>
      <point x="245" y="-221"/>
      <point x="242" y="-224" type="curve"/>
      <point x="209" y="-223"/>
      <point x="161" y="-222"/>
      <point x="121" y="-222" type="curve" smooth="yes"/>
      <point x="81" y="-222"/>
      <point x="44" y="-223"/>
      <point x="9" y="-224" type="curve"/>
      <point x="6" y="-221"/>
      <point x="5" y="-215"/>
      <point x="5" y="-208" type="curve" smooth="yes"/>
      <point x="5" y="-201"/>
      <point x="6" y="-194"/>
      <point x="9" y="-191" type="curve"/>
      <point x="70" y="-188"/>
      <point x="81" y="-183"/>
      <point x="81" y="-100" type="curve" smooth="yes"/>
      <point x="81" y="327" type="line" smooth="yes"/>
      <point x="81" y="385"/>
      <point x="70" y="390"/>
      <point x="16" y="395" type="curve"/>
      <point x="14" y="401"/>
      <point x="12" y="417"/>
      <point x="14" y="423" type="curve"/>
      <point x="83" y="432"/>
      <point x="109" y="441"/>
      <point x="137" y="452" type="curve"/>
      <point x="145" y="452"/>
      <point x="147" y="448"/>
      <point x="149" y="444" type="curve" smooth="yes"/>
      <point x="154" y="433"/>
      <point x="156" y="408"/>
      <point x="157" y="378" type="curve" smooth="yes"/>
      <point x="158" y="368"/>
      <point x="163" y="367"/>
      <point x="168" y="374" type="curve" smooth="yes"/>
      <point x="208" y="418"/>
      <point x="259" y="449"/>
      <point x="305" y="449" type="curve" smooth="yes"/>
      <point x="407" y="449"/>
      <point x="481" y="350"/>
    </contour>
  </outline>
</glyph>
<glyph name="uni0071" format="2">
  <advance width="532"/>
  <unicode hex="0071"/>
  <outline>
    <contour>
      <point x="323" y="378" type="curve" smooth="yes"/>
      <point x="301" y="403"/>
      <point x="275" y="415"/>
      <point x="244" y="415" type="curve" smooth="yes"/>
      <point x="164" y="415"/>
      <point x="122" y="341"/>
      <point x="122" y="237" type="curve" smooth="yes"/>
      <point x="122" y="86"/>
      <point x="209" y="44"/>
      <point x="267" y="44" type="curve" smooth="yes"/>
      <point x="283" y="44"/>
      <point x="310" y="45"/>
      <point x="333" y="57" type="curve" smooth="yes"/>
      <point x="346" y="64"/>
      <point x="347" y="69"/>
      <point x="347" y="87" type="curve" smooth="yes"/>
      <point x="347" y="317" type="line" smooth="yes"/>
      <point x="347" y="341"/>
      <point x="343" y="356"/>
    </contour>
    <contour>
      <point x="349" y="-102" type="curve" smooth="yes"/>
      <point x="347" y="10" type="line" smooth="yes"/>
      <point x="347" y="21"/>
      <point x="346" y="25"/>
      <point x="342" y="25" type="curve" smooth="yes"/>
      <point x="338" y="25"/>
      <point x="331" y="22"/>
      <point x="320" y="15" type="curve" smooth="yes"/>
      <point x="303" y="5"/>
      <point x="270" y="0"/>
      <point x="243" y="0" type="curve" smooth="yes"/>
      <point x="99" y="0"/>
      <point x="36" y="124"/>
      <point x="36" y="217" type="curve" smooth="yes"/>
      <point x="36" y="349"/>
      <point x="126" y="449"/>
      <point x="248" y="449" type="curve" smooth="yes"/>
      <point x="291" y="449"/>
      <point x="330" y="440"/>
      <point x="361" y="420" type="curve" smooth="yes"/>
      <point x="365" y="417"/>
      <point x="368" y="415"/>
      <point x="371" y="415" type="curve" smooth="yes"/>
      <point x="377" y="415"/>
      <point x="382" y="421"/>
      <point x="390" y="433" type="curve" smooth="yes"/>
      <point x="398" y="444"/>
      <point x="404" y="452"/>
      <point x="411" y="452" type="curve" smooth="yes"/>
      <point x="422" y="452"/>
      <point x="426" y="441"/>
      <point x="426" y="427" type="curve" smooth="yes"/>
      <point x="426" y="-101" type="line" smooth="yes"/>
      <point x="426" y="-184"/>
      <point x="437" y="-188"/>
      <point x="498" y="-191" type="curve"/>
      <point x="501" y="-194"/>
      <point x="503" y="-201"/>
      <point x="503" y="-208" type="curve" smooth="yes"/>
      <point x="503" y="-215"/>
      <point x="501" y="-221"/>
      <point x="498" y="-224" type="curve"/>
      <point x="465" y="-223"/>
      <point x="427" y="-222"/>
      <point x="387" y="-222" type="curve" smooth="yes"/>
      <point x="347" y="-222"/>
      <point x="310" y="-223"/>
      <point x="275" y="-224" type="curve"/>
      <point x="272" y="-221"/>
      <point x="271" y="-215"/>
      <point x="271" y="-208" type="curve" smooth="yes"/>
      <point x="271" y="-201"/>
      <point x="272" y="-194"/>
      <point x="275" y="-191" type="curve"/>
      <point x="336" y="-188"/>
      <point x="349" y="-185"/>
    </contour>
  </outline>
</glyph>
<glyph name="uni0072" format="2">
  <advance width="375"/>
  <unicode hex="0072"/>
  <outline>
    <contour>
      <point x="177" y="358" type="curve" smooth="yes"/>
      <point x="177" y="353"/>
      <point x="182" y="345"/>
      <point x="188" y="356" type="curve" smooth="yes"/>
      <point x="211" y="395"/>
      <point x="252" y="439"/>
      <point x="299" y="439" type="curve" smooth="yes"/>
      <point x="341" y="439"/>
      <point x="359" y="410"/>
      <point x="359" y="391" type="curve" smooth="yes"/>
      <point x="359" y="366"/>
      <point x="336" y="341"/>
      <point x="312" y="341" type="curve" smooth="yes"/>
      <point x="294" y="341"/>
      <point x="283" y="354"/>
      <point x="276" y="364" type="curve" smooth="yes"/>
      <point x="268" y="374"/>
      <point x="259" y="377"/>
      <point x="250" y="377" type="curve" smooth="yes"/>
      <point x="238" y="377"/>
      <point x="215" y="344"/>
      <point x="204" y="328" type="curve" smooth="yes"/>
      <point x="192" y="310"/>
      <point x="180" y="287"/>
      <point x="180" y="261" type="curve" smooth="yes"/>
      <point x="180" y="122" type="line" smooth="yes"/>
      <point x="180" y="39"/>
      <point x="192" y="31"/>
      <point x="262" y="31" type="curve"/>
      <point x="265" y="28"/>
      <point x="266" y="21"/>
      <point x="266" y="14" type="curve" smooth="yes"/>
      <point x="266" y="7"/>
      <point x="265" y="1"/>
      <point x="262" y="-2" type="curve"/>
      <point x="227" y="-2"/>
      <point x="181" y="0"/>
      <point x="141" y="0" type="curve" smooth="yes"/>
      <point x="101" y="0"/>
      <point x="62" y="-2"/>
      <point x="27" y="-2" type="curve"/>
      <point x="24" y="1"/>
      <point x="22" y="7"/>
      <point x="22" y="14" type="curve" smooth="yes"/>
      <point x="22" y="21"/>
      <point x="24" y="28"/>
      <point x="27" y="31" type="curve"/>
      <point x="89" y="31"/>
      <point x="101" y="39"/>
      <point x="101" y="122" type="curve" smooth="yes"/>
      <point x="101" y="317" type="line" smooth="yes"/>
      <point x="101" y="375"/>
      <point x="90" y="385"/>
      <point x="36" y="385" type="curve"/>
      <point x="34" y="391"/>
      <point x="32" y="407"/>
      <point x="34" y="413" type="curve"/>
      <point x="103" y="422"/>
      <point x="129" y="431"/>
      <point x="157" y="442" type="curve"/>
      <point x="165" y="442"/>
      <point x="167" y="438"/>
      <point x="169" y="434" type="curve" smooth="yes"/>
      <point x="173" y="423"/>
      <point x="177" y="398"/>
    </contour>
  </outline>
</glyph>
<glyph name="uni0073" format="2">
  <advance width="368"/>
  <unicode hex="0073"/>
  <outline>
    <contour>
      <point x="39" y="148" type="curve"/>
      <point x="42" y="151"/>
      <point x="49" y="153"/>
      <point x="56" y="153" type="curve" smooth="yes"/>
      <point x="62" y="153"/>
      <point x="67" y="151"/>
      <point x="70" y="149" type="curve"/>
      <point x="83" y="93"/>
      <point x="96" y="33"/>
      <point x="180" y="33" type="curve" smooth="yes"/>
      <point x="217" y="33"/>
      <point x="265" y="54"/>
      <point x="265" y="103" type="curve" smooth="yes"/>
      <point x="265" y="146"/>
      <point x="246" y="167"/>
      <point x="163" y="201" type="curve" smooth="yes"/>
      <point x="86" y="233"/>
      <point x="53" y="264"/>
      <point x="53" y="337" type="curve" smooth="yes"/>
      <point x="53" y="401"/>
      <point x="120" y="449"/>
      <point x="194" y="449" type="curve" smooth="yes"/>
      <point x="246" y="449"/>
      <point x="294" y="435"/>
      <point x="325" y="430" type="curve"/>
      <point x="325" y="397"/>
      <point x="319" y="360"/>
      <point x="319" y="324" type="curve"/>
      <point x="316" y="320"/>
      <point x="308" y="319"/>
      <point x="301" y="319" type="curve" smooth="yes"/>
      <point x="295" y="319"/>
      <point x="290" y="320"/>
      <point x="287" y="323" type="curve"/>
      <point x="274" y="408"/>
      <point x="216" y="416"/>
      <point x="194" y="416" type="curve" smooth="yes"/>
      <point x="160" y="416"/>
      <point x="124" y="393"/>
      <point x="124" y="352" type="curve" smooth="yes"/>
      <point x="124" y="297"/>
      <point x="164" y="281"/>
      <point x="224" y="259" type="curve" smooth="yes"/>
      <point x="292" y="234"/>
      <point x="341" y="194"/>
      <point x="341" y="126" type="curve" smooth="yes"/>
      <point x="341" y="27"/>
      <point x="238" y="0"/>
      <point x="182" y="0" type="curve" smooth="yes"/>
      <point x="145" y="0"/>
      <point x="118" y="4"/>
      <point x="91" y="11" type="curve" smooth="yes"/>
      <point x="84" y="13"/>
      <point x="78" y="13"/>
      <point x="71" y="13" type="curve" smooth="yes"/>
      <point x="66" y="13"/>
      <point x="56" y="12"/>
      <point x="46" y="10" type="curve"/>
      <point x="46" y="52"/>
      <point x="39" y="99"/>
    </contour>
  </outline>
</glyph>
<glyph name="uni0074" format="2">
  <advance width="318"/>
  <unicode hex="0074"/>
  <outline>
    <contour>
      <point x="42" y="439" type="curve" smooth="yes"/>
      <point x="88" y="439" type="line"/>
      <point x="88" y="550"/>
      <point x="85" y="543"/>
      <point x="85" y="555" type="curve" smooth="yes"/>
      <point x="85" y="562"/>
      <point x="95" y="565"/>
      <point x="107" y="568" type="curve" smooth="yes"/>
      <point x="120" y="572"/>
      <point x="130" y="576"/>
      <point x="141" y="583" type="curve" smooth="yes"/>
      <point x="150" y="588"/>
      <point x="159" y="591"/>
      <point x="163" y="591" type="curve" smooth="yes"/>
      <point x="168" y="591"/>
      <point x="171" y="589"/>
      <point x="171" y="583" type="curve" smooth="yes"/>
      <point x="171" y="583"/>
      <point x="167" y="543"/>
      <point x="167" y="478" type="curve" smooth="yes"/>
      <point x="167" y="439" type="line"/>
      <point x="287" y="439" type="line" smooth="yes"/>
      <point x="292" y="439"/>
      <point x="295" y="437"/>
      <point x="295" y="433" type="curve" smooth="yes"/>
      <point x="295" y="413" type="line" smooth="yes"/>
      <point x="295" y="404"/>
      <point x="281" y="400"/>
      <point x="271" y="400" type="curve" smooth="yes"/>
      <point x="167" y="400" type="line"/>
      <point x="167" y="147" type="line" smooth="yes"/>
      <point x="167" y="85"/>
      <point x="173" y="55"/>
      <point x="200" y="55" type="curve" smooth="yes"/>
      <point x="226" y="55"/>
      <point x="256" y="63"/>
      <point x="282" y="83" type="curve"/>
      <point x="292" y="83"/>
      <point x="298" y="76"/>
      <point x="300" y="66" type="curve"/>
      <point x="261" y="22"/>
      <point x="211" y="-0"/>
      <point x="165" y="-0" type="curve" smooth="yes"/>
      <point x="119" y="-0"/>
      <point x="88" y="28"/>
      <point x="88" y="99" type="curve" smooth="yes"/>
      <point x="88" y="400" type="line"/>
      <point x="29" y="400" type="line" smooth="yes"/>
      <point x="25" y="400"/>
      <point x="24" y="401"/>
      <point x="24" y="406" type="curve" smooth="yes"/>
      <point x="24" y="419" type="line" smooth="yes"/>
      <point x="24" y="427"/>
      <point x="28" y="439"/>
    </contour>
  </outline>
</glyph>
<glyph name="uni0075" format="2">
  <advance width="543"/>
  <unicode hex="0075"/>
  <outline>
    <contour>
      <point x="214" y="-0" type="curve" smooth="yes"/>
      <point x="114" y="-0"/>
      <point x="84" y="67"/>
      <point x="84" y="136" type="curve" smooth="yes"/>
      <point x="84" y="328" type="line" smooth="yes"/>
      <point x="84" y="393"/>
      <point x="70" y="408"/>
      <point x="22" y="408" type="curve"/>
      <point x="20" y="411"/>
      <point x="18" y="417"/>
      <point x="18" y="424" type="curve" smooth="yes"/>
      <point x="18" y="431"/>
      <point x="20" y="438"/>
      <point x="22" y="441" type="curve"/>
      <point x="56" y="441"/>
      <point x="92" y="439"/>
      <point x="124" y="439" type="curve" smooth="yes"/>
      <point x="140" y="439"/>
      <point x="154" y="440"/>
      <point x="160" y="441" type="curve" smooth="yes"/>
      <point x="164" y="441"/>
      <point x="168" y="438"/>
      <point x="168" y="435" type="curve" smooth="yes"/>
      <point x="168" y="435"/>
      <point x="164" y="362"/>
      <point x="164" y="332" type="curve" smooth="yes"/>
      <point x="164" y="150" type="line" smooth="yes"/>
      <point x="164" y="61"/>
      <point x="214" y="47"/>
      <point x="244" y="47" type="curve" smooth="yes"/>
      <point x="268" y="47"/>
      <point x="306" y="63"/>
      <point x="344" y="95" type="curve" smooth="yes"/>
      <point x="358" y="107"/>
      <point x="360" y="115"/>
      <point x="360" y="134" type="curve" smooth="yes"/>
      <point x="360" y="327" type="line" smooth="yes"/>
      <point x="360" y="393"/>
      <point x="346" y="408"/>
      <point x="298" y="408" type="curve"/>
      <point x="294" y="411"/>
      <point x="293" y="417"/>
      <point x="293" y="424" type="curve" smooth="yes"/>
      <point x="293" y="431"/>
      <point x="294" y="438"/>
      <point x="298" y="441" type="curve"/>
      <point x="332" y="441"/>
      <point x="368" y="439"/>
      <point x="400" y="439" type="curve" smooth="yes"/>
      <point x="414" y="439"/>
      <point x="430" y="440"/>
      <point x="434" y="441" type="curve" smooth="yes"/>
      <point x="440" y="441"/>
      <point x="442" y="438"/>
      <point x="442" y="435" type="curve" smooth="yes"/>
      <point x="442" y="435"/>
      <point x="438" y="362"/>
      <point x="438" y="332" type="curve" smooth="yes"/>
      <point x="438" y="140" type="line" smooth="yes"/>
      <point x="438" y="91"/>
      <point x="448" y="67"/>
      <point x="512" y="67" type="curve"/>
      <point x="514" y="64"/>
      <point x="516" y="58"/>
      <point x="516" y="53" type="curve" smooth="yes"/>
      <point x="516" y="48"/>
      <point x="514" y="43"/>
      <point x="512" y="40" type="curve"/>
      <point x="450" y="33"/>
      <point x="416" y="18"/>
      <point x="394" y="-0" type="curve"/>
      <point x="390" y="-2"/>
      <point x="387" y="-2"/>
      <point x="384" y="-2" type="curve" smooth="yes"/>
      <point x="381" y="-2"/>
      <point x="378" y="-2"/>
      <point x="374" y="-0" type="curve"/>
      <point x="374" y="-0"/>
      <point x="364" y="33"/>
      <point x="364" y="59" type="curve" smooth="yes"/>
      <point x="364" y="66"/>
      <point x="354" y="64"/>
      <point x="348" y="60" type="curve" smooth="yes"/>
      <point x="300" y="20"/>
      <point x="252" y="-0"/>
    </contour>
  </outline>
</glyph>
<glyph name="uni0076" format="2">
  <advance width="522"/>
  <unicode hex="0076"/>
  <outline>
    <contour>
      <point x="329" y="385" type="curve"/>
      <point x="326" y="388"/>
      <point x="324" y="419"/>
      <point x="324" y="426" type="curve" smooth="yes"/>
      <point x="324" y="433"/>
      <point x="326" y="440"/>
      <point x="329" y="443" type="curve"/>
      <point x="354" y="443"/>
      <point x="388" y="441"/>
      <point x="421" y="441" type="curve" smooth="yes"/>
      <point x="447" y="441"/>
      <point x="471" y="443"/>
      <point x="491" y="443" type="curve"/>
      <point x="494" y="440"/>
      <point x="496" y="433"/>
      <point x="496" y="426" type="curve" smooth="yes"/>
      <point x="496" y="419"/>
      <point x="494" y="413"/>
      <point x="491" y="410" type="curve"/>
      <point x="435" y="410"/>
      <point x="424" y="380"/>
      <point x="405" y="336" type="curve" smooth="yes"/>
      <point x="272" y="23" type="line" smooth="yes"/>
      <point x="265" y="6"/>
      <point x="258" y="-0"/>
      <point x="248" y="-0" type="curve" smooth="yes"/>
      <point x="235" y="-0"/>
      <point x="229" y="6"/>
      <point x="223" y="21" type="curve" smooth="yes"/>
      <point x="95" y="337" type="line" smooth="yes"/>
      <point x="75" y="387"/>
      <point x="68" y="403"/>
      <point x="15" y="410" type="curve"/>
      <point x="12" y="413"/>
      <point x="10" y="419"/>
      <point x="10" y="426" type="curve" smooth="yes"/>
      <point x="10" y="433"/>
      <point x="12" y="440"/>
      <point x="15" y="443" type="curve"/>
      <point x="45" y="443"/>
      <point x="75" y="441"/>
      <point x="108" y="441" type="curve" smooth="yes"/>
      <point x="141" y="441"/>
      <point x="176" y="443"/>
      <point x="209" y="443" type="curve"/>
      <point x="212" y="440"/>
      <point x="214" y="433"/>
      <point x="214" y="426" type="curve" smooth="yes"/>
      <point x="214" y="419"/>
      <point x="212" y="413"/>
      <point x="209" y="410" type="curve"/>
      <point x="177" y="405"/>
      <point x="166" y="399"/>
      <point x="166" y="385" type="curve" smooth="yes"/>
      <point x="166" y="375"/>
      <point x="171" y="362"/>
      <point x="178" y="343" type="curve" smooth="yes"/>
      <point x="250" y="150" type="line" smooth="yes"/>
      <point x="258" y="128"/>
      <point x="263" y="118"/>
      <point x="269" y="118" type="curve" smooth="yes"/>
      <point x="274" y="118"/>
      <point x="279" y="127"/>
      <point x="287" y="147" type="curve" smooth="yes"/>
      <point x="368" y="343" type="line" smooth="yes"/>
      <point x="375" y="360"/>
      <point x="379" y="375"/>
      <point x="379" y="385" type="curve" smooth="yes"/>
      <point x="379" y="391"/>
      <point x="377" y="393"/>
      <point x="374" y="393" type="curve" smooth="yes"/>
      <point x="367" y="393"/>
      <point x="352" y="385"/>
    </contour>
  </outline>
</glyph>
